STARTFONT 2.1
COMMENT
COMMENT Converted from OpenType font "l_10646.ttf" by "otf2bdf 3.0".
COMMENT
FONT -FreeType-Lucida Sans Unicode-Medium-R-Normal--11-80-100-100-P-61-ISO10646-1
SIZE 8 100 100
FONTBOUNDINGBOX 22 18 -7 -5
STARTPROPERTIES 19
FOUNDRY "FreeType"
FAMILY_NAME "Lucida Sans Unicode"
WEIGHT_NAME "Medium"
SLANT "R"
SETWIDTH_NAME "Normal"
ADD_STYLE_NAME ""
PIXEL_SIZE 11
POINT_SIZE 80
RESOLUTION_X 100
RESOLUTION_Y 100
SPACING "P"
AVERAGE_WIDTH 61
CHARSET_REGISTRY "ISO10646"
CHARSET_ENCODING "1"
FONT_ASCENT 12
FONT_DESCENT 4
COPYRIGHT "Copyright © 1993 Bigelow & Holmes Inc. All rights reserved. Pat. Des. 289,420. Pats. Pend."
_OTF_FONTFILE "l_10646.ttf"
_OTF_PSNAME "LucidaSansUnicode"
ENDPROPERTIES
CHARS 1753
STARTCHAR 0020
ENCODING 32
SWIDTH 270 0
DWIDTH 3 0
BBX 0 0 0 0
BITMAP
ENDCHAR
STARTCHAR 0021
ENCODING 33
SWIDTH 270 0
DWIDTH 3 0
BBX 1 8 1 0
BITMAP
80
80
80
80
80
80
00
80
ENDCHAR
STARTCHAR 0022
ENCODING 34
SWIDTH 360 0
DWIDTH 4 0
BBX 2 2 1 6
BITMAP
C0
C0
ENDCHAR
STARTCHAR 0023
ENCODING 35
SWIDTH 630 0
DWIDTH 7 0
BBX 7 8 0 0
BITMAP
14
28
7E
28
28
FC
50
50
ENDCHAR
STARTCHAR 0024
ENCODING 36
SWIDTH 630 0
DWIDTH 7 0
BBX 5 10 1 -1
BITMAP
20
78
A0
A0
60
30
28
28
F0
20
ENDCHAR
STARTCHAR 0025
ENCODING 37
SWIDTH 630 0
DWIDTH 7 0
BBX 7 8 0 0
BITMAP
62
A4
A8
70
1E
2A
4A
8E
ENDCHAR
STARTCHAR 0026
ENCODING 38
SWIDTH 720 0
DWIDTH 8 0
BBX 7 8 0 0
BITMAP
38
28
28
30
52
8A
44
7E
ENDCHAR
STARTCHAR 0027
ENCODING 39
SWIDTH 270 0
DWIDTH 3 0
BBX 1 3 1 5
BITMAP
80
80
80
ENDCHAR
STARTCHAR 0028
ENCODING 40
SWIDTH 360 0
DWIDTH 4 0
BBX 2 10 1 -2
BITMAP
40
40
80
80
80
80
80
80
40
40
ENDCHAR
STARTCHAR 0029
ENCODING 41
SWIDTH 360 0
DWIDTH 4 0
BBX 3 10 0 -2
BITMAP
80
40
40
20
20
20
20
40
40
80
ENDCHAR
STARTCHAR 002A
ENCODING 42
SWIDTH 450 0
DWIDTH 5 0
BBX 4 4 1 4
BITMAP
40
D0
20
A0
ENDCHAR
STARTCHAR 002B
ENCODING 43
SWIDTH 810 0
DWIDTH 9 0
BBX 7 7 1 0
BITMAP
10
10
10
FE
10
10
10
ENDCHAR
STARTCHAR 002C
ENCODING 44
SWIDTH 270 0
DWIDTH 3 0
BBX 1 3 1 -2
BITMAP
80
80
80
ENDCHAR
STARTCHAR 002D
ENCODING 45
SWIDTH 540 0
DWIDTH 6 0
BBX 5 1 1 3
BITMAP
F8
ENDCHAR
STARTCHAR 002E
ENCODING 46
SWIDTH 270 0
DWIDTH 3 0
BBX 1 1 1 0
BITMAP
80
ENDCHAR
STARTCHAR 002F
ENCODING 47
SWIDTH 540 0
DWIDTH 6 0
BBX 3 10 1 -2
BITMAP
20
20
20
20
40
40
40
80
80
80
ENDCHAR
STARTCHAR 0030
ENCODING 48
SWIDTH 630 0
DWIDTH 7 0
BBX 5 8 1 0
BITMAP
70
88
88
88
88
88
88
70
ENDCHAR
STARTCHAR 0031
ENCODING 49
SWIDTH 630 0
DWIDTH 7 0
BBX 2 8 2 0
BITMAP
C0
40
40
40
40
40
40
40
ENDCHAR
STARTCHAR 0032
ENCODING 50
SWIDTH 630 0
DWIDTH 7 0
BBX 5 8 1 0
BITMAP
70
98
08
10
20
40
80
F8
ENDCHAR
STARTCHAR 0033
ENCODING 51
SWIDTH 630 0
DWIDTH 7 0
BBX 5 8 1 0
BITMAP
70
90
10
60
18
08
98
70
ENDCHAR
STARTCHAR 0034
ENCODING 52
SWIDTH 630 0
DWIDTH 7 0
BBX 5 8 1 0
BITMAP
10
30
50
50
90
F8
10
10
ENDCHAR
STARTCHAR 0035
ENCODING 53
SWIDTH 630 0
DWIDTH 7 0
BBX 5 8 1 0
BITMAP
F8
80
80
F0
10
08
18
F0
ENDCHAR
STARTCHAR 0036
ENCODING 54
SWIDTH 630 0
DWIDTH 7 0
BBX 5 8 1 0
BITMAP
78
C0
80
F0
88
88
88
70
ENDCHAR
STARTCHAR 0037
ENCODING 55
SWIDTH 630 0
DWIDTH 7 0
BBX 5 8 1 0
BITMAP
F8
08
10
10
20
20
40
40
ENDCHAR
STARTCHAR 0038
ENCODING 56
SWIDTH 630 0
DWIDTH 7 0
BBX 5 8 1 0
BITMAP
70
88
C8
70
D8
88
88
70
ENDCHAR
STARTCHAR 0039
ENCODING 57
SWIDTH 630 0
DWIDTH 7 0
BBX 5 8 1 0
BITMAP
70
88
88
88
78
08
18
F0
ENDCHAR
STARTCHAR 003A
ENCODING 58
SWIDTH 270 0
DWIDTH 3 0
BBX 1 6 1 0
BITMAP
80
00
00
00
00
80
ENDCHAR
STARTCHAR 003B
ENCODING 59
SWIDTH 270 0
DWIDTH 3 0
BBX 1 8 1 -2
BITMAP
80
00
00
00
00
80
80
80
ENDCHAR
STARTCHAR 003C
ENCODING 60
SWIDTH 810 0
DWIDTH 9 0
BBX 7 7 1 0
BITMAP
02
0C
30
C0
60
18
06
ENDCHAR
STARTCHAR 003D
ENCODING 61
SWIDTH 810 0
DWIDTH 9 0
BBX 7 3 1 2
BITMAP
FE
00
FE
ENDCHAR
STARTCHAR 003E
ENCODING 62
SWIDTH 810 0
DWIDTH 9 0
BBX 7 7 1 0
BITMAP
80
60
18
06
08
30
C0
ENDCHAR
STARTCHAR 003F
ENCODING 63
SWIDTH 450 0
DWIDTH 5 0
BBX 4 8 0 0
BITMAP
F0
10
10
20
20
40
00
40
ENDCHAR
STARTCHAR 0040
ENCODING 64
SWIDTH 810 0
DWIDTH 9 0
BBX 9 8 0 0
BITMAP
1E00
2180
4E80
9280
A480
9F00
4000
3C00
ENDCHAR
STARTCHAR 0041
ENCODING 65
SWIDTH 720 0
DWIDTH 8 0
BBX 7 8 0 0
BITMAP
18
18
28
2C
64
7C
42
82
ENDCHAR
STARTCHAR 0042
ENCODING 66
SWIDTH 540 0
DWIDTH 6 0
BBX 5 8 1 0
BITMAP
F0
98
90
E0
90
88
98
F0
ENDCHAR
STARTCHAR 0043
ENCODING 67
SWIDTH 720 0
DWIDTH 8 0
BBX 6 8 1 0
BITMAP
78
C4
80
80
80
80
C4
78
ENDCHAR
STARTCHAR 0044
ENCODING 68
SWIDTH 720 0
DWIDTH 8 0
BBX 7 8 1 0
BITMAP
F8
8C
86
86
86
84
8C
F8
ENDCHAR
STARTCHAR 0045
ENCODING 69
SWIDTH 540 0
DWIDTH 6 0
BBX 5 8 1 0
BITMAP
F0
80
80
F0
80
80
80
F8
ENDCHAR
STARTCHAR 0046
ENCODING 70
SWIDTH 540 0
DWIDTH 6 0
BBX 4 8 1 0
BITMAP
F0
80
80
80
F0
80
80
80
ENDCHAR
STARTCHAR 0047
ENCODING 71
SWIDTH 720 0
DWIDTH 8 0
BBX 6 8 1 0
BITMAP
7C
C0
80
80
80
84
C4
7C
ENDCHAR
STARTCHAR 0048
ENCODING 72
SWIDTH 720 0
DWIDTH 8 0
BBX 6 8 1 0
BITMAP
84
84
84
FC
84
84
84
84
ENDCHAR
STARTCHAR 0049
ENCODING 73
SWIDTH 270 0
DWIDTH 3 0
BBX 1 8 1 0
BITMAP
80
80
80
80
80
80
80
80
ENDCHAR
STARTCHAR 004A
ENCODING 74
SWIDTH 270 0
DWIDTH 3 0
BBX 3 10 -1 -2
BITMAP
20
20
20
20
20
20
20
20
20
E0
ENDCHAR
STARTCHAR 004B
ENCODING 75
SWIDTH 630 0
DWIDTH 7 0
BBX 6 8 1 0
BITMAP
88
90
A0
E0
A0
B0
98
8C
ENDCHAR
STARTCHAR 004C
ENCODING 76
SWIDTH 540 0
DWIDTH 6 0
BBX 5 8 1 0
BITMAP
80
80
80
80
80
80
80
F8
ENDCHAR
STARTCHAR 004D
ENCODING 77
SWIDTH 810 0
DWIDTH 9 0
BBX 7 8 1 0
BITMAP
C2
C6
E6
A6
AA
9A
92
82
ENDCHAR
STARTCHAR 004E
ENCODING 78
SWIDTH 720 0
DWIDTH 8 0
BBX 6 8 1 0
BITMAP
84
C4
A4
A4
94
94
8C
84
ENDCHAR
STARTCHAR 004F
ENCODING 79
SWIDTH 810 0
DWIDTH 9 0
BBX 7 8 1 0
BITMAP
78
C4
82
82
82
82
C4
78
ENDCHAR
STARTCHAR 0050
ENCODING 80
SWIDTH 540 0
DWIDTH 6 0
BBX 5 8 1 0
BITMAP
F0
98
88
98
F0
80
80
80
ENDCHAR
STARTCHAR 0051
ENCODING 81
SWIDTH 810 0
DWIDTH 9 0
BBX 7 9 1 -1
BITMAP
78
C4
82
82
82
82
C4
78
06
ENDCHAR
STARTCHAR 0052
ENCODING 82
SWIDTH 630 0
DWIDTH 7 0
BBX 5 8 1 0
BITMAP
F0
98
88
90
E0
90
98
88
ENDCHAR
STARTCHAR 0053
ENCODING 83
SWIDTH 540 0
DWIDTH 6 0
BBX 4 8 1 0
BITMAP
F0
80
80
C0
30
10
10
E0
ENDCHAR
STARTCHAR 0054
ENCODING 84
SWIDTH 630 0
DWIDTH 7 0
BBX 7 8 0 0
BITMAP
FE
10
10
10
10
10
10
10
ENDCHAR
STARTCHAR 0055
ENCODING 85
SWIDTH 720 0
DWIDTH 8 0
BBX 6 8 1 0
BITMAP
84
84
84
84
84
84
C8
78
ENDCHAR
STARTCHAR 0056
ENCODING 86
SWIDTH 630 0
DWIDTH 7 0
BBX 7 8 0 0
BITMAP
C2
42
44
24
24
28
18
10
ENDCHAR
STARTCHAR 0057
ENCODING 87
SWIDTH 810 0
DWIDTH 9 0
BBX 9 8 0 0
BITMAP
8880
8C80
4C80
5500
5500
7700
3300
2200
ENDCHAR
STARTCHAR 0058
ENCODING 88
SWIDTH 630 0
DWIDTH 7 0
BBX 6 8 0 0
BITMAP
44
4C
28
30
30
28
4C
84
ENDCHAR
STARTCHAR 0059
ENCODING 89
SWIDTH 630 0
DWIDTH 7 0
BBX 6 8 0 0
BITMAP
C4
44
28
28
10
10
10
10
ENDCHAR
STARTCHAR 005A
ENCODING 90
SWIDTH 630 0
DWIDTH 7 0
BBX 5 8 1 0
BITMAP
F8
18
10
20
60
40
80
F8
ENDCHAR
STARTCHAR 005B
ENCODING 91
SWIDTH 360 0
DWIDTH 4 0
BBX 2 10 1 -2
BITMAP
C0
80
80
80
80
80
80
80
80
C0
ENDCHAR
STARTCHAR 005C
ENCODING 92
SWIDTH 540 0
DWIDTH 6 0
BBX 3 10 1 -2
BITMAP
80
80
80
40
40
40
20
20
20
20
ENDCHAR
STARTCHAR 005D
ENCODING 93
SWIDTH 360 0
DWIDTH 4 0
BBX 3 10 0 -2
BITMAP
E0
20
20
20
20
20
20
20
20
E0
ENDCHAR
STARTCHAR 005E
ENCODING 94
SWIDTH 630 0
DWIDTH 7 0
BBX 5 6 1 2
BITMAP
20
20
50
50
88
88
ENDCHAR
STARTCHAR 005F
ENCODING 95
SWIDTH 540 0
DWIDTH 6 0
BBX 5 1 0 -1
BITMAP
F8
ENDCHAR
STARTCHAR 0060
ENCODING 96
SWIDTH 630 0
DWIDTH 7 0
BBX 1 2 3 7
BITMAP
80
80
ENDCHAR
STARTCHAR 0061
ENCODING 97
SWIDTH 540 0
DWIDTH 6 0
BBX 5 6 1 0
BITMAP
F0
10
F0
90
90
F8
ENDCHAR
STARTCHAR 0062
ENCODING 98
SWIDTH 630 0
DWIDTH 7 0
BBX 5 8 1 0
BITMAP
80
80
B0
C8
88
88
88
F0
ENDCHAR
STARTCHAR 0063
ENCODING 99
SWIDTH 540 0
DWIDTH 6 0
BBX 4 6 1 0
BITMAP
70
80
80
80
80
70
ENDCHAR
STARTCHAR 0064
ENCODING 100
SWIDTH 630 0
DWIDTH 7 0
BBX 5 8 1 0
BITMAP
08
08
78
88
88
88
98
E8
ENDCHAR
STARTCHAR 0065
ENCODING 101
SWIDTH 540 0
DWIDTH 6 0
BBX 4 6 1 0
BITMAP
70
90
F0
80
80
70
ENDCHAR
STARTCHAR 0066
ENCODING 102
SWIDTH 360 0
DWIDTH 4 0
BBX 4 8 0 0
BITMAP
30
40
F0
40
40
40
40
40
ENDCHAR
STARTCHAR 0067
ENCODING 103
SWIDTH 630 0
DWIDTH 7 0
BBX 5 8 1 -2
BITMAP
68
98
88
88
98
E8
18
F0
ENDCHAR
STARTCHAR 0068
ENCODING 104
SWIDTH 630 0
DWIDTH 7 0
BBX 5 8 1 0
BITMAP
80
80
B0
C8
88
88
88
88
ENDCHAR
STARTCHAR 0069
ENCODING 105
SWIDTH 270 0
DWIDTH 3 0
BBX 1 8 1 0
BITMAP
80
00
80
80
80
80
80
80
ENDCHAR
STARTCHAR 006A
ENCODING 106
SWIDTH 270 0
DWIDTH 3 0
BBX 3 10 -1 -2
BITMAP
20
00
20
20
20
20
20
20
20
E0
ENDCHAR
STARTCHAR 006B
ENCODING 107
SWIDTH 540 0
DWIDTH 6 0
BBX 5 8 1 0
BITMAP
80
80
90
A0
E0
A0
90
98
ENDCHAR
STARTCHAR 006C
ENCODING 108
SWIDTH 270 0
DWIDTH 3 0
BBX 1 8 1 0
BITMAP
80
80
80
80
80
80
80
80
ENDCHAR
STARTCHAR 006D
ENCODING 109
SWIDTH 900 0
DWIDTH 10 0
BBX 8 6 1 0
BITMAP
B7
C9
89
89
89
89
ENDCHAR
STARTCHAR 006E
ENCODING 110
SWIDTH 630 0
DWIDTH 7 0
BBX 5 6 1 0
BITMAP
B0
C8
88
88
88
88
ENDCHAR
STARTCHAR 006F
ENCODING 111
SWIDTH 630 0
DWIDTH 7 0
BBX 5 6 1 0
BITMAP
70
88
88
88
88
70
ENDCHAR
STARTCHAR 0070
ENCODING 112
SWIDTH 630 0
DWIDTH 7 0
BBX 5 8 1 -2
BITMAP
B0
C8
88
88
88
F0
80
80
ENDCHAR
STARTCHAR 0071
ENCODING 113
SWIDTH 630 0
DWIDTH 7 0
BBX 5 8 1 -2
BITMAP
78
88
88
88
98
E8
08
08
ENDCHAR
STARTCHAR 0072
ENCODING 114
SWIDTH 450 0
DWIDTH 5 0
BBX 3 6 1 0
BITMAP
A0
C0
80
80
80
80
ENDCHAR
STARTCHAR 0073
ENCODING 115
SWIDTH 540 0
DWIDTH 6 0
BBX 4 6 1 0
BITMAP
E0
80
C0
30
10
E0
ENDCHAR
STARTCHAR 0074
ENCODING 116
SWIDTH 360 0
DWIDTH 4 0
BBX 4 7 0 0
BITMAP
40
F0
40
40
40
40
70
ENDCHAR
STARTCHAR 0075
ENCODING 117
SWIDTH 630 0
DWIDTH 7 0
BBX 5 6 1 0
BITMAP
88
88
88
88
98
E8
ENDCHAR
STARTCHAR 0076
ENCODING 118
SWIDTH 540 0
DWIDTH 6 0
BBX 5 6 0 0
BITMAP
88
48
48
50
30
30
ENDCHAR
STARTCHAR 0077
ENCODING 119
SWIDTH 720 0
DWIDTH 8 0
BBX 8 6 0 0
BITMAP
89
D9
59
56
66
26
ENDCHAR
STARTCHAR 0078
ENCODING 120
SWIDTH 630 0
DWIDTH 7 0
BBX 5 6 1 0
BITMAP
88
50
60
60
50
88
ENDCHAR
STARTCHAR 0079
ENCODING 121
SWIDTH 540 0
DWIDTH 6 0
BBX 5 8 0 -2
BITMAP
88
48
48
70
30
20
20
20
ENDCHAR
STARTCHAR 007A
ENCODING 122
SWIDTH 540 0
DWIDTH 6 0
BBX 5 6 1 0
BITMAP
F8
10
20
40
80
F8
ENDCHAR
STARTCHAR 007B
ENCODING 123
SWIDTH 360 0
DWIDTH 4 0
BBX 3 10 0 -2
BITMAP
60
40
40
40
80
40
40
40
40
60
ENDCHAR
STARTCHAR 007C
ENCODING 124
SWIDTH 360 0
DWIDTH 4 0
BBX 1 10 2 -2
BITMAP
80
80
80
80
80
80
80
80
80
80
ENDCHAR
STARTCHAR 007D
ENCODING 125
SWIDTH 360 0
DWIDTH 4 0
BBX 2 10 1 -2
BITMAP
80
40
80
80
40
80
80
40
40
80
ENDCHAR
STARTCHAR 007E
ENCODING 126
SWIDTH 630 0
DWIDTH 7 0
BBX 5 2 1 2
BITMAP
E0
38
ENDCHAR
STARTCHAR 00A0
ENCODING 160
SWIDTH 270 0
DWIDTH 3 0
BBX 0 0 0 0
BITMAP
ENDCHAR
STARTCHAR 00A1
ENCODING 161
SWIDTH 270 0
DWIDTH 3 0
BBX 1 8 1 -2
BITMAP
80
00
80
80
80
80
80
80
ENDCHAR
STARTCHAR 00A2
ENCODING 162
SWIDTH 630 0
DWIDTH 7 0
BBX 5 8 1 0
BITMAP
20
78
E0
A0
A0
E0
78
20
ENDCHAR
STARTCHAR 00A3
ENCODING 163
SWIDTH 630 0
DWIDTH 7 0
BBX 5 8 1 0
BITMAP
38
60
60
F0
60
40
40
F8
ENDCHAR
STARTCHAR 00A4
ENCODING 164
SWIDTH 630 0
DWIDTH 7 0
BBX 5 5 1 1
BITMAP
F8
88
88
88
F8
ENDCHAR
STARTCHAR 00A5
ENCODING 165
SWIDTH 630 0
DWIDTH 7 0
BBX 5 8 1 0
BITMAP
80
C8
50
20
F8
20
F8
20
ENDCHAR
STARTCHAR 00A6
ENCODING 166
SWIDTH 360 0
DWIDTH 4 0
BBX 1 10 2 -2
BITMAP
80
80
80
80
00
00
80
80
80
80
ENDCHAR
STARTCHAR 00A7
ENCODING 167
SWIDTH 630 0
DWIDTH 7 0
BBX 5 10 1 -2
BITMAP
70
88
80
70
98
C8
30
08
88
70
ENDCHAR
STARTCHAR 00A8
ENCODING 168
SWIDTH 630 0
DWIDTH 7 0
BBX 3 1 2 7
BITMAP
A0
ENDCHAR
STARTCHAR 00A9
ENCODING 169
SWIDTH 810 0
DWIDTH 9 0
BBX 8 8 1 0
BITMAP
3C
C2
B9
A1
A1
B9
C2
3C
ENDCHAR
STARTCHAR 00AA
ENCODING 170
SWIDTH 450 0
DWIDTH 5 0
BBX 3 4 1 4
BITMAP
C0
40
C0
E0
ENDCHAR
STARTCHAR 00AB
ENCODING 171
SWIDTH 540 0
DWIDTH 6 0
BBX 4 5 1 0
BITMAP
50
90
A0
90
50
ENDCHAR
STARTCHAR 00AC
ENCODING 172
SWIDTH 810 0
DWIDTH 9 0
BBX 7 3 1 1
BITMAP
FE
02
02
ENDCHAR
STARTCHAR 00AD
ENCODING 173
SWIDTH 360 0
DWIDTH 4 0
BBX 2 1 1 3
BITMAP
C0
ENDCHAR
STARTCHAR 00AE
ENCODING 174
SWIDTH 630 0
DWIDTH 7 0
BBX 5 5 1 3
BITMAP
70
A8
A8
E8
70
ENDCHAR
STARTCHAR 00AF
ENCODING 175
SWIDTH 540 0
DWIDTH 6 0
BBX 5 1 0 7
BITMAP
F8
ENDCHAR
STARTCHAR 00B0
ENCODING 176
SWIDTH 270 0
DWIDTH 3 0
BBX 3 3 0 5
BITMAP
40
A0
40
ENDCHAR
STARTCHAR 00B1
ENCODING 177
SWIDTH 810 0
DWIDTH 9 0
BBX 7 7 1 0
BITMAP
10
10
FE
10
10
00
FE
ENDCHAR
STARTCHAR 00B2
ENCODING 178
SWIDTH 450 0
DWIDTH 5 0
BBX 3 5 1 3
BITMAP
E0
20
40
80
E0
ENDCHAR
STARTCHAR 00B3
ENCODING 179
SWIDTH 450 0
DWIDTH 5 0
BBX 3 5 1 3
BITMAP
C0
20
C0
20
C0
ENDCHAR
STARTCHAR 00B4
ENCODING 180
SWIDTH 630 0
DWIDTH 7 0
BBX 2 2 2 7
BITMAP
40
80
ENDCHAR
STARTCHAR 00B5
ENCODING 181
SWIDTH 630 0
DWIDTH 7 0
BBX 5 8 1 -2
BITMAP
88
88
88
88
98
E8
80
80
ENDCHAR
STARTCHAR 00B6
ENCODING 182
SWIDTH 630 0
DWIDTH 7 0
BBX 5 10 1 -2
BITMAP
78
E8
E8
68
28
28
28
28
28
28
ENDCHAR
STARTCHAR 00B7
ENCODING 183
SWIDTH 630 0
DWIDTH 7 0
BBX 1 1 3 3
BITMAP
80
ENDCHAR
STARTCHAR 00B8
ENCODING 184
SWIDTH 630 0
DWIDTH 7 0
BBX 2 3 3 -3
BITMAP
80
40
80
ENDCHAR
STARTCHAR 00B9
ENCODING 185
SWIDTH 450 0
DWIDTH 5 0
BBX 2 5 1 3
BITMAP
C0
40
40
40
40
ENDCHAR
STARTCHAR 00BA
ENCODING 186
SWIDTH 450 0
DWIDTH 5 0
BBX 3 4 1 4
BITMAP
E0
A0
A0
E0
ENDCHAR
STARTCHAR 00BB
ENCODING 187
SWIDTH 540 0
DWIDTH 6 0
BBX 5 5 0 0
BITMAP
A0
50
28
50
A0
ENDCHAR
STARTCHAR 00BC
ENCODING 188
SWIDTH 810 0
DWIDTH 9 0
BBX 7 8 1 0
BITMAP
84
88
88
92
AE
4A
4E
82
ENDCHAR
STARTCHAR 00BD
ENCODING 189
SWIDTH 810 0
DWIDTH 9 0
BBX 7 8 1 0
BITMAP
84
88
90
9E
A2
42
8C
8E
ENDCHAR
STARTCHAR 00BE
ENCODING 190
SWIDTH 810 0
DWIDTH 9 0
BBX 7 8 1 0
BITMAP
C2
44
C8
52
DE
2A
4E
82
ENDCHAR
STARTCHAR 00BF
ENCODING 191
SWIDTH 450 0
DWIDTH 5 0
BBX 4 8 0 -2
BITMAP
20
00
20
20
40
80
80
70
ENDCHAR
STARTCHAR 00C0
ENCODING 192
SWIDTH 720 0
DWIDTH 8 0
BBX 7 11 0 0
BITMAP
10
10
00
18
18
28
2C
64
7C
42
82
ENDCHAR
STARTCHAR 00C1
ENCODING 193
SWIDTH 720 0
DWIDTH 8 0
BBX 7 11 0 0
BITMAP
08
10
00
18
18
28
2C
64
7C
42
82
ENDCHAR
STARTCHAR 00C2
ENCODING 194
SWIDTH 720 0
DWIDTH 8 0
BBX 7 11 0 0
BITMAP
18
28
00
18
18
28
2C
64
7C
42
82
ENDCHAR
STARTCHAR 00C3
ENCODING 195
SWIDTH 720 0
DWIDTH 8 0
BBX 7 11 0 0
BITMAP
34
28
00
18
18
28
2C
64
7C
42
82
ENDCHAR
STARTCHAR 00C4
ENCODING 196
SWIDTH 720 0
DWIDTH 8 0
BBX 7 10 0 0
BITMAP
28
00
18
18
28
2C
64
7C
42
82
ENDCHAR
STARTCHAR 00C5
ENCODING 197
SWIDTH 720 0
DWIDTH 8 0
BBX 7 12 0 0
BITMAP
18
28
18
00
18
18
28
2C
64
7C
42
82
ENDCHAR
STARTCHAR 00C6
ENCODING 198
SWIDTH 900 0
DWIDTH 10 0
BBX 10 8 0 0
BITMAP
0F80
0C00
1400
1780
2400
3C00
4400
87C0
ENDCHAR
STARTCHAR 00C7
ENCODING 199
SWIDTH 720 0
DWIDTH 8 0
BBX 6 11 1 -3
BITMAP
78
C4
80
80
80
80
C4
78
10
10
10
ENDCHAR
STARTCHAR 00C8
ENCODING 200
SWIDTH 540 0
DWIDTH 6 0
BBX 5 11 1 0
BITMAP
40
20
00
F0
80
80
F0
80
80
80
F8
ENDCHAR
STARTCHAR 00C9
ENCODING 201
SWIDTH 540 0
DWIDTH 6 0
BBX 5 11 1 0
BITMAP
30
20
00
F0
80
80
F0
80
80
80
F8
ENDCHAR
STARTCHAR 00CA
ENCODING 202
SWIDTH 540 0
DWIDTH 6 0
BBX 5 11 1 0
BITMAP
60
50
00
F0
80
80
F0
80
80
80
F8
ENDCHAR
STARTCHAR 00CB
ENCODING 203
SWIDTH 540 0
DWIDTH 6 0
BBX 5 10 1 0
BITMAP
50
00
F0
80
80
F0
80
80
80
F8
ENDCHAR
STARTCHAR 00CC
ENCODING 204
SWIDTH 270 0
DWIDTH 3 0
BBX 2 11 0 0
BITMAP
80
40
00
40
40
40
40
40
40
40
40
ENDCHAR
STARTCHAR 00CD
ENCODING 205
SWIDTH 270 0
DWIDTH 3 0
BBX 2 11 1 0
BITMAP
40
80
00
80
80
80
80
80
80
80
80
ENDCHAR
STARTCHAR 00CE
ENCODING 206
SWIDTH 270 0
DWIDTH 3 0
BBX 3 11 0 0
BITMAP
40
A0
00
40
40
40
40
40
40
40
40
ENDCHAR
STARTCHAR 00CF
ENCODING 207
SWIDTH 270 0
DWIDTH 3 0
BBX 3 10 0 0
BITMAP
A0
00
40
40
40
40
40
40
40
40
ENDCHAR
STARTCHAR 00D0
ENCODING 208
SWIDTH 720 0
DWIDTH 8 0
BBX 8 8 0 0
BITMAP
7C
46
43
F3
43
42
46
7C
ENDCHAR
STARTCHAR 00D1
ENCODING 209
SWIDTH 720 0
DWIDTH 8 0
BBX 6 11 1 0
BITMAP
28
58
00
84
C4
A4
A4
94
94
8C
84
ENDCHAR
STARTCHAR 00D2
ENCODING 210
SWIDTH 810 0
DWIDTH 9 0
BBX 7 11 1 0
BITMAP
20
10
00
78
C4
82
82
82
82
C4
78
ENDCHAR
STARTCHAR 00D3
ENCODING 211
SWIDTH 810 0
DWIDTH 9 0
BBX 7 11 1 0
BITMAP
18
10
00
78
C4
82
82
82
82
C4
78
ENDCHAR
STARTCHAR 00D4
ENCODING 212
SWIDTH 810 0
DWIDTH 9 0
BBX 7 11 1 0
BITMAP
30
28
00
78
C4
82
82
82
82
C4
78
ENDCHAR
STARTCHAR 00D5
ENCODING 213
SWIDTH 810 0
DWIDTH 9 0
BBX 7 11 1 0
BITMAP
28
58
00
78
C4
82
82
82
82
C4
78
ENDCHAR
STARTCHAR 00D6
ENCODING 214
SWIDTH 810 0
DWIDTH 9 0
BBX 7 10 1 0
BITMAP
28
00
78
C4
82
82
82
82
C4
78
ENDCHAR
STARTCHAR 00D7
ENCODING 215
SWIDTH 810 0
DWIDTH 9 0
BBX 6 7 1 0
BITMAP
80
44
28
10
28
44
80
ENDCHAR
STARTCHAR 00D8
ENCODING 216
SWIDTH 810 0
DWIDTH 9 0
BBX 7 8 1 0
BITMAP
7A
C4
8A
92
A2
C2
C4
F8
ENDCHAR
STARTCHAR 00D9
ENCODING 217
SWIDTH 720 0
DWIDTH 8 0
BBX 6 11 1 0
BITMAP
20
20
00
84
84
84
84
84
84
C8
78
ENDCHAR
STARTCHAR 00DA
ENCODING 218
SWIDTH 720 0
DWIDTH 8 0
BBX 6 11 1 0
BITMAP
10
20
00
84
84
84
84
84
84
C8
78
ENDCHAR
STARTCHAR 00DB
ENCODING 219
SWIDTH 720 0
DWIDTH 8 0
BBX 6 11 1 0
BITMAP
30
50
00
84
84
84
84
84
84
C8
78
ENDCHAR
STARTCHAR 00DC
ENCODING 220
SWIDTH 720 0
DWIDTH 8 0
BBX 6 10 1 0
BITMAP
50
00
84
84
84
84
84
84
C8
78
ENDCHAR
STARTCHAR 00DD
ENCODING 221
SWIDTH 630 0
DWIDTH 7 0
BBX 6 11 0 0
BITMAP
08
10
00
C4
44
28
28
10
10
10
10
ENDCHAR
STARTCHAR 00DE
ENCODING 222
SWIDTH 540 0
DWIDTH 6 0
BBX 5 8 1 0
BITMAP
80
80
F0
88
98
F0
80
80
ENDCHAR
STARTCHAR 00DF
ENCODING 223
SWIDTH 630 0
DWIDTH 7 0
BBX 5 8 1 0
BITMAP
60
90
90
A0
B0
88
88
B8
ENDCHAR
STARTCHAR 00E0
ENCODING 224
SWIDTH 540 0
DWIDTH 6 0
BBX 5 9 1 0
BITMAP
40
20
00
F0
10
F0
90
90
F8
ENDCHAR
STARTCHAR 00E1
ENCODING 225
SWIDTH 540 0
DWIDTH 6 0
BBX 5 9 1 0
BITMAP
20
20
00
F0
10
F0
90
90
F8
ENDCHAR
STARTCHAR 00E2
ENCODING 226
SWIDTH 540 0
DWIDTH 6 0
BBX 5 9 1 0
BITMAP
60
90
00
F0
10
F0
90
90
F8
ENDCHAR
STARTCHAR 00E3
ENCODING 227
SWIDTH 540 0
DWIDTH 6 0
BBX 5 9 1 0
BITMAP
50
B0
00
F0
10
F0
90
90
F8
ENDCHAR
STARTCHAR 00E4
ENCODING 228
SWIDTH 540 0
DWIDTH 6 0
BBX 5 8 1 0
BITMAP
90
00
F0
10
F0
90
90
F8
ENDCHAR
STARTCHAR 00E5
ENCODING 229
SWIDTH 540 0
DWIDTH 6 0
BBX 5 10 1 0
BITMAP
60
A0
60
00
F0
10
F0
90
90
F8
ENDCHAR
STARTCHAR 00E6
ENCODING 230
SWIDTH 810 0
DWIDTH 9 0
BBX 8 6 1 0
BITMAP
FE
12
FF
90
98
EF
ENDCHAR
STARTCHAR 00E7
ENCODING 231
SWIDTH 540 0
DWIDTH 6 0
BBX 4 9 1 -3
BITMAP
70
80
80
80
80
70
20
20
20
ENDCHAR
STARTCHAR 00E8
ENCODING 232
SWIDTH 540 0
DWIDTH 6 0
BBX 4 9 1 0
BITMAP
40
20
00
70
90
F0
80
80
70
ENDCHAR
STARTCHAR 00E9
ENCODING 233
SWIDTH 540 0
DWIDTH 6 0
BBX 4 9 1 0
BITMAP
20
40
00
70
90
F0
80
80
70
ENDCHAR
STARTCHAR 00EA
ENCODING 234
SWIDTH 540 0
DWIDTH 6 0
BBX 4 9 1 0
BITMAP
60
90
00
70
90
F0
80
80
70
ENDCHAR
STARTCHAR 00EB
ENCODING 235
SWIDTH 540 0
DWIDTH 6 0
BBX 4 8 1 0
BITMAP
50
00
70
90
F0
80
80
70
ENDCHAR
STARTCHAR 00EC
ENCODING 236
SWIDTH 270 0
DWIDTH 3 0
BBX 2 9 0 0
BITMAP
80
40
00
40
40
40
40
40
40
ENDCHAR
STARTCHAR 00ED
ENCODING 237
SWIDTH 270 0
DWIDTH 3 0
BBX 2 9 1 0
BITMAP
40
80
00
80
80
80
80
80
80
ENDCHAR
STARTCHAR 00EE
ENCODING 238
SWIDTH 270 0
DWIDTH 3 0
BBX 3 9 0 0
BITMAP
60
A0
00
40
40
40
40
40
40
ENDCHAR
STARTCHAR 00EF
ENCODING 239
SWIDTH 270 0
DWIDTH 3 0
BBX 3 8 0 0
BITMAP
A0
00
40
40
40
40
40
40
ENDCHAR
STARTCHAR 00F0
ENCODING 240
SWIDTH 630 0
DWIDTH 7 0
BBX 5 9 1 0
BITMAP
20
C0
A0
70
88
88
88
98
70
ENDCHAR
STARTCHAR 00F1
ENCODING 241
SWIDTH 630 0
DWIDTH 7 0
BBX 5 9 1 0
BITMAP
70
50
00
B0
C8
88
88
88
88
ENDCHAR
STARTCHAR 00F2
ENCODING 242
SWIDTH 630 0
DWIDTH 7 0
BBX 5 9 1 0
BITMAP
40
20
00
70
88
88
88
88
70
ENDCHAR
STARTCHAR 00F3
ENCODING 243
SWIDTH 630 0
DWIDTH 7 0
BBX 5 9 1 0
BITMAP
10
20
00
70
88
88
88
88
70
ENDCHAR
STARTCHAR 00F4
ENCODING 244
SWIDTH 630 0
DWIDTH 7 0
BBX 5 9 1 0
BITMAP
60
50
00
70
88
88
88
88
70
ENDCHAR
STARTCHAR 00F5
ENCODING 245
SWIDTH 630 0
DWIDTH 7 0
BBX 5 9 1 0
BITMAP
50
B0
00
70
88
88
88
88
70
ENDCHAR
STARTCHAR 00F6
ENCODING 246
SWIDTH 630 0
DWIDTH 7 0
BBX 5 8 1 0
BITMAP
50
00
70
88
88
88
88
70
ENDCHAR
STARTCHAR 00F7
ENCODING 247
SWIDTH 810 0
DWIDTH 9 0
BBX 7 5 1 1
BITMAP
10
00
FE
00
10
ENDCHAR
STARTCHAR 00F8
ENCODING 248
SWIDTH 630 0
DWIDTH 7 0
BBX 5 6 1 0
BITMAP
78
98
A8
C8
88
F0
ENDCHAR
STARTCHAR 00F9
ENCODING 249
SWIDTH 630 0
DWIDTH 7 0
BBX 5 9 1 0
BITMAP
40
20
00
88
88
88
88
98
E8
ENDCHAR
STARTCHAR 00FA
ENCODING 250
SWIDTH 630 0
DWIDTH 7 0
BBX 5 9 1 0
BITMAP
10
20
00
88
88
88
88
98
E8
ENDCHAR
STARTCHAR 00FB
ENCODING 251
SWIDTH 630 0
DWIDTH 7 0
BBX 5 9 1 0
BITMAP
60
50
00
88
88
88
88
98
E8
ENDCHAR
STARTCHAR 00FC
ENCODING 252
SWIDTH 630 0
DWIDTH 7 0
BBX 5 8 1 0
BITMAP
50
00
88
88
88
88
98
E8
ENDCHAR
STARTCHAR 00FD
ENCODING 253
SWIDTH 540 0
DWIDTH 6 0
BBX 5 11 0 -2
BITMAP
10
20
00
88
48
48
70
30
20
20
20
ENDCHAR
STARTCHAR 00FE
ENCODING 254
SWIDTH 630 0
DWIDTH 7 0
BBX 5 10 1 -2
BITMAP
80
80
B0
C8
88
88
88
F0
80
80
ENDCHAR
STARTCHAR 00FF
ENCODING 255
SWIDTH 540 0
DWIDTH 6 0
BBX 5 10 0 -2
BITMAP
50
00
88
48
48
70
30
20
20
20
ENDCHAR
STARTCHAR 0100
ENCODING 256
SWIDTH 720 0
DWIDTH 8 0
BBX 7 10 0 0
BITMAP
3C
00
18
18
28
2C
64
7C
42
82
ENDCHAR
STARTCHAR 0101
ENCODING 257
SWIDTH 540 0
DWIDTH 6 0
BBX 5 8 1 0
BITMAP
F0
00
F0
10
F0
90
90
F8
ENDCHAR
STARTCHAR 0102
ENCODING 258
SWIDTH 720 0
DWIDTH 8 0
BBX 7 11 0 0
BITMAP
28
18
00
18
18
28
2C
64
7C
42
82
ENDCHAR
STARTCHAR 0103
ENCODING 259
SWIDTH 540 0
DWIDTH 6 0
BBX 5 9 1 0
BITMAP
90
60
00
F0
10
F0
90
90
F8
ENDCHAR
STARTCHAR 0104
ENCODING 260
SWIDTH 720 0
DWIDTH 8 0
BBX 7 11 0 -3
BITMAP
18
18
28
2C
64
7C
42
82
04
04
02
ENDCHAR
STARTCHAR 0105
ENCODING 261
SWIDTH 540 0
DWIDTH 6 0
BBX 5 9 1 -3
BITMAP
F0
10
F0
90
90
F8
10
10
18
ENDCHAR
STARTCHAR 0106
ENCODING 262
SWIDTH 720 0
DWIDTH 8 0
BBX 6 11 1 0
BITMAP
18
10
00
78
C4
80
80
80
80
C4
78
ENDCHAR
STARTCHAR 0107
ENCODING 263
SWIDTH 540 0
DWIDTH 6 0
BBX 4 9 1 0
BITMAP
20
20
00
70
80
80
80
80
70
ENDCHAR
STARTCHAR 0108
ENCODING 264
SWIDTH 720 0
DWIDTH 8 0
BBX 6 11 1 0
BITMAP
10
28
00
78
C4
80
80
80
80
C4
78
ENDCHAR
STARTCHAR 0109
ENCODING 265
SWIDTH 540 0
DWIDTH 6 0
BBX 4 9 1 0
BITMAP
60
50
00
70
80
80
80
80
70
ENDCHAR
STARTCHAR 010A
ENCODING 266
SWIDTH 720 0
DWIDTH 8 0
BBX 6 10 1 0
BITMAP
10
00
78
C4
80
80
80
80
C4
78
ENDCHAR
STARTCHAR 010B
ENCODING 267
SWIDTH 540 0
DWIDTH 6 0
BBX 4 8 1 0
BITMAP
20
00
70
80
80
80
80
70
ENDCHAR
STARTCHAR 010C
ENCODING 268
SWIDTH 720 0
DWIDTH 8 0
BBX 6 11 1 0
BITMAP
28
10
00
78
C4
80
80
80
80
C4
78
ENDCHAR
STARTCHAR 010D
ENCODING 269
SWIDTH 540 0
DWIDTH 6 0
BBX 4 9 1 0
BITMAP
50
60
00
70
80
80
80
80
70
ENDCHAR
STARTCHAR 010E
ENCODING 270
SWIDTH 720 0
DWIDTH 8 0
BBX 7 11 1 0
BITMAP
48
30
00
F8
8C
86
86
86
84
8C
F8
ENDCHAR
STARTCHAR 010F
ENCODING 271
SWIDTH 810 0
DWIDTH 9 0
BBX 7 8 1 0
BITMAP
0A
0A
78
88
88
88
98
E8
ENDCHAR
STARTCHAR 0110
ENCODING 272
SWIDTH 720 0
DWIDTH 8 0
BBX 8 8 0 0
BITMAP
7C
46
43
F3
43
42
46
7C
ENDCHAR
STARTCHAR 0111
ENCODING 273
SWIDTH 630 0
DWIDTH 7 0
BBX 6 8 1 0
BITMAP
3C
08
78
88
88
88
98
68
ENDCHAR
STARTCHAR 0112
ENCODING 274
SWIDTH 540 0
DWIDTH 6 0
BBX 5 10 1 0
BITMAP
70
00
F0
80
80
F0
80
80
80
F8
ENDCHAR
STARTCHAR 0113
ENCODING 275
SWIDTH 540 0
DWIDTH 6 0
BBX 4 8 1 0
BITMAP
F0
00
70
90
F0
80
80
70
ENDCHAR
STARTCHAR 0114
ENCODING 276
SWIDTH 540 0
DWIDTH 6 0
BBX 5 11 1 0
BITMAP
90
70
00
F0
80
80
F0
80
80
80
F8
ENDCHAR
STARTCHAR 0115
ENCODING 277
SWIDTH 540 0
DWIDTH 6 0
BBX 4 9 1 0
BITMAP
90
60
00
70
90
F0
80
80
70
ENDCHAR
STARTCHAR 0116
ENCODING 278
SWIDTH 540 0
DWIDTH 6 0
BBX 5 10 1 0
BITMAP
20
00
F0
80
80
F0
80
80
80
F8
ENDCHAR
STARTCHAR 0117
ENCODING 279
SWIDTH 540 0
DWIDTH 6 0
BBX 4 8 1 0
BITMAP
20
00
70
90
F0
80
80
70
ENDCHAR
STARTCHAR 0118
ENCODING 280
SWIDTH 540 0
DWIDTH 6 0
BBX 5 11 1 -3
BITMAP
F0
80
80
F0
80
80
80
F8
10
20
18
ENDCHAR
STARTCHAR 0119
ENCODING 281
SWIDTH 540 0
DWIDTH 6 0
BBX 4 9 1 -3
BITMAP
70
90
F0
80
80
70
20
20
30
ENDCHAR
STARTCHAR 011A
ENCODING 282
SWIDTH 540 0
DWIDTH 6 0
BBX 5 11 1 0
BITMAP
50
60
00
F0
80
80
F0
80
80
80
F8
ENDCHAR
STARTCHAR 011B
ENCODING 283
SWIDTH 540 0
DWIDTH 6 0
BBX 4 9 1 0
BITMAP
90
60
00
70
90
F0
80
80
70
ENDCHAR
STARTCHAR 011C
ENCODING 284
SWIDTH 720 0
DWIDTH 8 0
BBX 6 11 1 0
BITMAP
10
28
00
7C
C0
80
80
80
84
C4
7C
ENDCHAR
STARTCHAR 011D
ENCODING 285
SWIDTH 630 0
DWIDTH 7 0
BBX 5 11 1 -2
BITMAP
60
50
00
68
98
88
88
98
E8
18
F0
ENDCHAR
STARTCHAR 011E
ENCODING 286
SWIDTH 720 0
DWIDTH 8 0
BBX 6 11 1 0
BITMAP
48
30
00
7C
C0
80
80
80
84
C4
7C
ENDCHAR
STARTCHAR 011F
ENCODING 287
SWIDTH 630 0
DWIDTH 7 0
BBX 5 11 1 -2
BITMAP
90
60
00
68
98
88
88
98
E8
18
F0
ENDCHAR
STARTCHAR 0120
ENCODING 288
SWIDTH 720 0
DWIDTH 8 0
BBX 6 10 1 0
BITMAP
10
00
7C
C0
80
80
80
84
C4
7C
ENDCHAR
STARTCHAR 0121
ENCODING 289
SWIDTH 630 0
DWIDTH 7 0
BBX 5 10 1 -2
BITMAP
20
00
68
98
88
88
98
E8
18
F0
ENDCHAR
STARTCHAR 0122
ENCODING 290
SWIDTH 720 0
DWIDTH 8 0
BBX 6 11 1 -3
BITMAP
7C
C0
80
80
80
84
C4
7C
10
10
10
ENDCHAR
STARTCHAR 0123
ENCODING 291
SWIDTH 630 0
DWIDTH 7 0
BBX 5 11 1 -2
BITMAP
20
20
00
68
98
88
88
98
E8
18
F0
ENDCHAR
STARTCHAR 0124
ENCODING 292
SWIDTH 720 0
DWIDTH 8 0
BBX 6 11 1 0
BITMAP
30
48
00
84
84
84
FC
84
84
84
84
ENDCHAR
STARTCHAR 0125
ENCODING 293
SWIDTH 630 0
DWIDTH 7 0
BBX 6 11 0 0
BITMAP
60
A0
00
40
40
58
64
44
44
44
44
ENDCHAR
STARTCHAR 0126
ENCODING 294
SWIDTH 810 0
DWIDTH 9 0
BBX 8 8 0 0
BITMAP
42
FF
42
7E
42
42
42
42
ENDCHAR
STARTCHAR 0127
ENCODING 295
SWIDTH 630 0
DWIDTH 7 0
BBX 6 8 0 0
BITMAP
F0
40
58
64
44
44
44
44
ENDCHAR
STARTCHAR 0128
ENCODING 296
SWIDTH 270 0
DWIDTH 3 0
BBX 3 11 0 0
BITMAP
E0
A0
00
40
40
40
40
40
40
40
40
ENDCHAR
STARTCHAR 0129
ENCODING 297
SWIDTH 270 0
DWIDTH 3 0
BBX 3 9 0 0
BITMAP
E0
A0
00
40
40
40
40
40
40
ENDCHAR
STARTCHAR 012A
ENCODING 298
SWIDTH 270 0
DWIDTH 3 0
BBX 3 10 0 0
BITMAP
E0
00
40
40
40
40
40
40
40
40
ENDCHAR
STARTCHAR 012B
ENCODING 299
SWIDTH 270 0
DWIDTH 3 0
BBX 3 8 0 0
BITMAP
E0
00
40
40
40
40
40
40
ENDCHAR
STARTCHAR 012C
ENCODING 300
SWIDTH 270 0
DWIDTH 3 0
BBX 3 11 0 0
BITMAP
A0
E0
00
40
40
40
40
40
40
40
40
ENDCHAR
STARTCHAR 012D
ENCODING 301
SWIDTH 270 0
DWIDTH 3 0
BBX 3 9 0 0
BITMAP
A0
E0
00
40
40
40
40
40
40
ENDCHAR
STARTCHAR 012E
ENCODING 302
SWIDTH 270 0
DWIDTH 3 0
BBX 2 11 1 -3
BITMAP
80
80
80
80
80
80
80
80
80
80
C0
ENDCHAR
STARTCHAR 012F
ENCODING 303
SWIDTH 270 0
DWIDTH 3 0
BBX 2 11 1 -3
BITMAP
80
00
80
80
80
80
80
80
80
80
C0
ENDCHAR
STARTCHAR 0130
ENCODING 304
SWIDTH 270 0
DWIDTH 3 0
BBX 1 10 1 0
BITMAP
80
00
80
80
80
80
80
80
80
80
ENDCHAR
STARTCHAR 0131
ENCODING 305
SWIDTH 270 0
DWIDTH 3 0
BBX 1 6 1 0
BITMAP
80
80
80
80
80
80
ENDCHAR
STARTCHAR 0132
ENCODING 306
SWIDTH 630 0
DWIDTH 7 0
BBX 5 10 1 -2
BITMAP
98
98
98
98
98
98
98
98
10
70
ENDCHAR
STARTCHAR 0133
ENCODING 307
SWIDTH 540 0
DWIDTH 6 0
BBX 4 10 1 -2
BITMAP
90
00
90
90
90
90
90
90
10
70
ENDCHAR
STARTCHAR 0134
ENCODING 308
SWIDTH 270 0
DWIDTH 3 0
BBX 4 13 -1 -2
BITMAP
30
50
00
20
20
20
20
20
20
20
20
20
E0
ENDCHAR
STARTCHAR 0135
ENCODING 309
SWIDTH 270 0
DWIDTH 3 0
BBX 4 11 -1 -2
BITMAP
30
50
00
20
20
20
20
20
20
20
E0
ENDCHAR
STARTCHAR 0136
ENCODING 310
SWIDTH 630 0
DWIDTH 7 0
BBX 6 11 1 -3
BITMAP
88
90
A0
E0
A0
B0
98
8C
20
10
20
ENDCHAR
STARTCHAR 0137
ENCODING 311
SWIDTH 540 0
DWIDTH 6 0
BBX 5 11 1 -3
BITMAP
80
80
90
A0
E0
A0
90
98
20
20
20
ENDCHAR
STARTCHAR 0138
ENCODING 312
SWIDTH 540 0
DWIDTH 6 0
BBX 5 6 1 0
BITMAP
90
A0
E0
A0
90
98
ENDCHAR
STARTCHAR 0139
ENCODING 313
SWIDTH 540 0
DWIDTH 6 0
BBX 5 11 1 0
BITMAP
40
80
00
80
80
80
80
80
80
80
F8
ENDCHAR
STARTCHAR 013A
ENCODING 314
SWIDTH 270 0
DWIDTH 3 0
BBX 2 11 1 0
BITMAP
40
80
00
80
80
80
80
80
80
80
80
ENDCHAR
STARTCHAR 013B
ENCODING 315
SWIDTH 540 0
DWIDTH 6 0
BBX 5 11 1 -3
BITMAP
80
80
80
80
80
80
80
F8
20
20
60
ENDCHAR
STARTCHAR 013C
ENCODING 316
SWIDTH 270 0
DWIDTH 3 0
BBX 2 11 1 -3
BITMAP
80
80
80
80
80
80
80
80
80
40
80
ENDCHAR
STARTCHAR 013D
ENCODING 317
SWIDTH 540 0
DWIDTH 6 0
BBX 5 8 1 0
BITMAP
90
90
80
80
80
80
80
F8
ENDCHAR
STARTCHAR 013E
ENCODING 318
SWIDTH 270 0
DWIDTH 3 0
BBX 3 8 1 0
BITMAP
A0
A0
80
80
80
80
80
80
ENDCHAR
STARTCHAR 013F
ENCODING 319
SWIDTH 540 0
DWIDTH 6 0
BBX 5 8 1 0
BITMAP
80
80
80
90
80
80
80
F8
ENDCHAR
STARTCHAR 0140
ENCODING 320
SWIDTH 270 0
DWIDTH 3 0
BBX 3 8 1 0
BITMAP
80
80
80
A0
80
80
80
80
ENDCHAR
STARTCHAR 0141
ENCODING 321
SWIDTH 540 0
DWIDTH 6 0
BBX 6 8 0 0
BITMAP
40
40
60
C0
40
40
40
7C
ENDCHAR
STARTCHAR 0142
ENCODING 322
SWIDTH 270 0
DWIDTH 3 0
BBX 3 8 0 0
BITMAP
40
40
40
60
C0
40
40
40
ENDCHAR
STARTCHAR 0143
ENCODING 323
SWIDTH 720 0
DWIDTH 8 0
BBX 6 11 1 0
BITMAP
10
10
00
84
C4
A4
A4
94
94
8C
84
ENDCHAR
STARTCHAR 0144
ENCODING 324
SWIDTH 630 0
DWIDTH 7 0
BBX 5 9 1 0
BITMAP
30
20
00
B0
C8
88
88
88
88
ENDCHAR
STARTCHAR 0145
ENCODING 325
SWIDTH 720 0
DWIDTH 8 0
BBX 6 11 1 -3
BITMAP
84
C4
A4
A4
94
94
8C
84
30
10
30
ENDCHAR
STARTCHAR 0146
ENCODING 326
SWIDTH 630 0
DWIDTH 7 0
BBX 5 9 1 -3
BITMAP
B0
C8
88
88
88
88
20
10
20
ENDCHAR
STARTCHAR 0147
ENCODING 327
SWIDTH 720 0
DWIDTH 8 0
BBX 6 11 1 0
BITMAP
48
30
00
84
C4
A4
A4
94
94
8C
84
ENDCHAR
STARTCHAR 0148
ENCODING 328
SWIDTH 630 0
DWIDTH 7 0
BBX 5 9 1 0
BITMAP
50
20
00
B0
C8
88
88
88
88
ENDCHAR
STARTCHAR 0149
ENCODING 329
SWIDTH 630 0
DWIDTH 7 0
BBX 7 8 0 0
BITMAP
80
80
2E
32
22
22
22
22
ENDCHAR
STARTCHAR 014A
ENCODING 330
SWIDTH 720 0
DWIDTH 8 0
BBX 6 10 1 -2
BITMAP
84
C4
A4
A4
94
9C
8C
84
04
0C
ENDCHAR
STARTCHAR 014B
ENCODING 331
SWIDTH 630 0
DWIDTH 7 0
BBX 5 8 1 -2
BITMAP
B0
C8
88
88
88
88
08
30
ENDCHAR
STARTCHAR 014C
ENCODING 332
SWIDTH 810 0
DWIDTH 9 0
BBX 7 10 1 0
BITMAP
38
00
78
C4
82
82
82
82
C4
78
ENDCHAR
STARTCHAR 014D
ENCODING 333
SWIDTH 630 0
DWIDTH 7 0
BBX 5 8 1 0
BITMAP
70
00
70
88
88
88
88
70
ENDCHAR
STARTCHAR 014E
ENCODING 334
SWIDTH 810 0
DWIDTH 9 0
BBX 7 11 1 0
BITMAP
48
30
00
78
C4
82
82
82
82
C4
78
ENDCHAR
STARTCHAR 014F
ENCODING 335
SWIDTH 630 0
DWIDTH 7 0
BBX 5 9 1 0
BITMAP
90
70
00
70
88
88
88
88
70
ENDCHAR
STARTCHAR 0150
ENCODING 336
SWIDTH 810 0
DWIDTH 9 0
BBX 7 11 1 0
BITMAP
14
28
00
78
C4
82
82
82
82
C4
78
ENDCHAR
STARTCHAR 0151
ENCODING 337
SWIDTH 630 0
DWIDTH 7 0
BBX 5 9 1 0
BITMAP
28
50
00
70
88
88
88
88
70
ENDCHAR
STARTCHAR 0152
ENCODING 338
SWIDTH 990 0
DWIDTH 11 0
BBX 10 8 1 0
BITMAP
7FC0
C400
8400
8780
8400
8400
C400
7FC0
ENDCHAR
STARTCHAR 0153
ENCODING 339
SWIDTH 900 0
DWIDTH 10 0
BBX 8 6 1 0
BITMAP
77
99
8F
88
98
77
ENDCHAR
STARTCHAR 0154
ENCODING 340
SWIDTH 630 0
DWIDTH 7 0
BBX 5 11 1 0
BITMAP
10
20
00
F0
98
88
90
E0
90
98
88
ENDCHAR
STARTCHAR 0155
ENCODING 341
SWIDTH 450 0
DWIDTH 5 0
BBX 3 9 1 0
BITMAP
20
40
00
A0
C0
80
80
80
80
ENDCHAR
STARTCHAR 0156
ENCODING 342
SWIDTH 630 0
DWIDTH 7 0
BBX 5 11 1 -3
BITMAP
F0
98
88
90
E0
90
98
88
20
20
20
ENDCHAR
STARTCHAR 0157
ENCODING 343
SWIDTH 450 0
DWIDTH 5 0
BBX 3 9 1 -3
BITMAP
A0
C0
80
80
80
80
C0
40
C0
ENDCHAR
STARTCHAR 0158
ENCODING 344
SWIDTH 630 0
DWIDTH 7 0
BBX 5 11 1 0
BITMAP
50
60
00
F0
98
88
90
E0
90
98
88
ENDCHAR
STARTCHAR 0159
ENCODING 345
SWIDTH 450 0
DWIDTH 5 0
BBX 3 9 1 0
BITMAP
A0
60
00
A0
C0
80
80
80
80
ENDCHAR
STARTCHAR 015A
ENCODING 346
SWIDTH 540 0
DWIDTH 6 0
BBX 4 11 1 0
BITMAP
20
20
00
F0
80
80
C0
30
10
10
E0
ENDCHAR
STARTCHAR 015B
ENCODING 347
SWIDTH 540 0
DWIDTH 6 0
BBX 4 9 1 0
BITMAP
20
40
00
E0
80
C0
30
10
E0
ENDCHAR
STARTCHAR 015C
ENCODING 348
SWIDTH 540 0
DWIDTH 6 0
BBX 4 11 1 0
BITMAP
60
90
00
F0
80
80
C0
30
10
10
E0
ENDCHAR
STARTCHAR 015D
ENCODING 349
SWIDTH 540 0
DWIDTH 6 0
BBX 4 9 1 0
BITMAP
60
A0
00
E0
80
C0
30
10
E0
ENDCHAR
STARTCHAR 015E
ENCODING 350
SWIDTH 540 0
DWIDTH 6 0
BBX 4 11 1 -3
BITMAP
F0
80
80
C0
30
10
10
E0
60
20
60
ENDCHAR
STARTCHAR 015F
ENCODING 351
SWIDTH 540 0
DWIDTH 6 0
BBX 4 9 1 -3
BITMAP
E0
80
C0
30
10
E0
60
20
60
ENDCHAR
STARTCHAR 0160
ENCODING 352
SWIDTH 540 0
DWIDTH 6 0
BBX 4 11 1 0
BITMAP
90
60
00
F0
80
80
C0
30
10
10
E0
ENDCHAR
STARTCHAR 0161
ENCODING 353
SWIDTH 540 0
DWIDTH 6 0
BBX 4 9 1 0
BITMAP
A0
60
00
E0
80
C0
30
10
E0
ENDCHAR
STARTCHAR 0162
ENCODING 354
SWIDTH 630 0
DWIDTH 7 0
BBX 7 11 0 -3
BITMAP
FE
10
10
10
10
10
10
10
10
08
10
ENDCHAR
STARTCHAR 0163
ENCODING 355
SWIDTH 360 0
DWIDTH 4 0
BBX 4 10 0 -3
BITMAP
40
F0
40
40
40
40
70
20
10
20
ENDCHAR
STARTCHAR 0164
ENCODING 356
SWIDTH 630 0
DWIDTH 7 0
BBX 7 11 0 0
BITMAP
28
10
00
FE
10
10
10
10
10
10
10
ENDCHAR
STARTCHAR 0165
ENCODING 357
SWIDTH 540 0
DWIDTH 6 0
BBX 4 9 0 0
BITMAP
10
10
40
F0
40
40
40
40
70
ENDCHAR
STARTCHAR 0166
ENCODING 358
SWIDTH 630 0
DWIDTH 7 0
BBX 7 8 0 0
BITMAP
FE
10
10
7C
10
10
10
10
ENDCHAR
STARTCHAR 0167
ENCODING 359
SWIDTH 360 0
DWIDTH 4 0
BBX 4 7 0 0
BITMAP
40
F0
40
F0
40
40
70
ENDCHAR
STARTCHAR 0168
ENCODING 360
SWIDTH 720 0
DWIDTH 8 0
BBX 6 11 1 0
BITMAP
68
50
00
84
84
84
84
84
84
C8
78
ENDCHAR
STARTCHAR 0169
ENCODING 361
SWIDTH 630 0
DWIDTH 7 0
BBX 5 9 1 0
BITMAP
50
B0
00
88
88
88
88
98
E8
ENDCHAR
STARTCHAR 016A
ENCODING 362
SWIDTH 720 0
DWIDTH 8 0
BBX 6 10 1 0
BITMAP
78
00
84
84
84
84
84
84
C8
78
ENDCHAR
STARTCHAR 016B
ENCODING 363
SWIDTH 630 0
DWIDTH 7 0
BBX 5 8 1 0
BITMAP
70
00
88
88
88
88
98
E8
ENDCHAR
STARTCHAR 016C
ENCODING 364
SWIDTH 720 0
DWIDTH 8 0
BBX 6 11 1 0
BITMAP
48
30
00
84
84
84
84
84
84
C8
78
ENDCHAR
STARTCHAR 016D
ENCODING 365
SWIDTH 630 0
DWIDTH 7 0
BBX 5 9 1 0
BITMAP
90
70
00
88
88
88
88
98
E8
ENDCHAR
STARTCHAR 016E
ENCODING 366
SWIDTH 720 0
DWIDTH 8 0
BBX 6 12 1 0
BITMAP
30
50
30
00
84
84
84
84
84
84
C8
78
ENDCHAR
STARTCHAR 016F
ENCODING 367
SWIDTH 630 0
DWIDTH 7 0
BBX 5 10 1 0
BITMAP
60
50
60
00
88
88
88
88
98
E8
ENDCHAR
STARTCHAR 0170
ENCODING 368
SWIDTH 720 0
DWIDTH 8 0
BBX 6 11 1 0
BITMAP
18
28
00
84
84
84
84
84
84
C8
78
ENDCHAR
STARTCHAR 0171
ENCODING 369
SWIDTH 630 0
DWIDTH 7 0
BBX 5 9 1 0
BITMAP
28
50
00
88
88
88
88
98
E8
ENDCHAR
STARTCHAR 0172
ENCODING 370
SWIDTH 720 0
DWIDTH 8 0
BBX 6 11 1 -3
BITMAP
84
84
84
84
84
84
C8
78
10
20
10
ENDCHAR
STARTCHAR 0173
ENCODING 371
SWIDTH 630 0
DWIDTH 7 0
BBX 5 9 1 -3
BITMAP
88
88
88
88
98
E8
10
10
18
ENDCHAR
STARTCHAR 0174
ENCODING 372
SWIDTH 810 0
DWIDTH 9 0
BBX 9 11 0 0
BITMAP
0C00
1400
0000
8880
8C80
4C80
5500
5500
7700
3300
2200
ENDCHAR
STARTCHAR 0175
ENCODING 373
SWIDTH 720 0
DWIDTH 8 0
BBX 8 9 0 0
BITMAP
18
14
00
89
D9
59
56
66
26
ENDCHAR
STARTCHAR 0176
ENCODING 374
SWIDTH 630 0
DWIDTH 7 0
BBX 6 11 0 0
BITMAP
10
28
00
C4
44
28
28
10
10
10
10
ENDCHAR
STARTCHAR 0177
ENCODING 375
SWIDTH 540 0
DWIDTH 6 0
BBX 5 11 0 -2
BITMAP
30
48
00
88
48
48
70
30
20
20
20
ENDCHAR
STARTCHAR 0178
ENCODING 376
SWIDTH 630 0
DWIDTH 7 0
BBX 6 10 0 0
BITMAP
28
00
C4
44
28
28
10
10
10
10
ENDCHAR
STARTCHAR 0179
ENCODING 377
SWIDTH 630 0
DWIDTH 7 0
BBX 5 11 1 0
BITMAP
10
20
00
F8
18
10
20
60
40
80
F8
ENDCHAR
STARTCHAR 017A
ENCODING 378
SWIDTH 540 0
DWIDTH 6 0
BBX 5 9 1 0
BITMAP
20
40
00
F8
10
20
40
80
F8
ENDCHAR
STARTCHAR 017B
ENCODING 379
SWIDTH 630 0
DWIDTH 7 0
BBX 5 10 1 0
BITMAP
20
00
F8
18
10
20
60
40
80
F8
ENDCHAR
STARTCHAR 017C
ENCODING 380
SWIDTH 540 0
DWIDTH 6 0
BBX 5 8 1 0
BITMAP
20
00
F8
10
20
40
80
F8
ENDCHAR
STARTCHAR 017D
ENCODING 381
SWIDTH 630 0
DWIDTH 7 0
BBX 5 11 1 0
BITMAP
50
20
00
F8
18
10
20
60
40
80
F8
ENDCHAR
STARTCHAR 017E
ENCODING 382
SWIDTH 540 0
DWIDTH 6 0
BBX 5 9 1 0
BITMAP
90
60
00
F8
10
20
40
80
F8
ENDCHAR
STARTCHAR 017F
ENCODING 383
SWIDTH 360 0
DWIDTH 4 0
BBX 4 8 0 0
BITMAP
30
40
C0
40
40
40
40
40
ENDCHAR
STARTCHAR 0180
ENCODING 384
SWIDTH 630 0
DWIDTH 7 0
BBX 6 8 0 0
BITMAP
F0
40
58
64
44
44
44
78
ENDCHAR
STARTCHAR 0181
ENCODING 385
SWIDTH 720 0
DWIDTH 8 0
BBX 7 8 0 0
BITMAP
7C
B6
B2
34
3C
32
32
3E
ENDCHAR
STARTCHAR 0182
ENCODING 386
SWIDTH 540 0
DWIDTH 6 0
BBX 5 8 1 0
BITMAP
F0
80
80
F0
98
88
98
F0
ENDCHAR
STARTCHAR 0183
ENCODING 387
SWIDTH 630 0
DWIDTH 7 0
BBX 5 8 1 0
BITMAP
F0
80
B0
C8
88
88
88
F0
ENDCHAR
STARTCHAR 0184
ENCODING 388
SWIDTH 540 0
DWIDTH 6 0
BBX 5 8 1 0
BITMAP
80
80
80
F0
98
88
98
F0
ENDCHAR
STARTCHAR 0185
ENCODING 389
SWIDTH 450 0
DWIDTH 5 0
BBX 4 6 1 0
BITMAP
80
80
E0
90
90
E0
ENDCHAR
STARTCHAR 0186
ENCODING 390
SWIDTH 720 0
DWIDTH 8 0
BBX 6 8 1 0
BITMAP
F0
88
04
04
04
04
08
F0
ENDCHAR
STARTCHAR 0187
ENCODING 391
SWIDTH 720 0
DWIDTH 8 0
BBX 8 10 1 0
BITMAP
03
04
7C
C4
80
80
80
80
C4
78
ENDCHAR
STARTCHAR 0188
ENCODING 392
SWIDTH 540 0
DWIDTH 6 0
BBX 6 8 1 0
BITMAP
0C
10
70
80
80
80
80
70
ENDCHAR
STARTCHAR 0189
ENCODING 393
SWIDTH 720 0
DWIDTH 8 0
BBX 8 8 0 0
BITMAP
7C
46
43
F3
43
42
46
7C
ENDCHAR
STARTCHAR 018A
ENCODING 394
SWIDTH 900 0
DWIDTH 10 0
BBX 9 8 0 0
BITMAP
7E00
B100
B080
3080
3080
3080
3100
3E00
ENDCHAR
STARTCHAR 018B
ENCODING 395
SWIDTH 540 0
DWIDTH 6 0
BBX 4 8 1 0
BITMAP
F0
10
10
F0
90
90
90
70
ENDCHAR
STARTCHAR 018C
ENCODING 396
SWIDTH 630 0
DWIDTH 7 0
BBX 5 8 1 0
BITMAP
78
08
78
88
88
88
98
E8
ENDCHAR
STARTCHAR 018D
ENCODING 397
SWIDTH 630 0
DWIDTH 7 0
BBX 5 8 1 0
BITMAP
70
98
88
88
F0
30
08
70
ENDCHAR
STARTCHAR 018E
ENCODING 398
SWIDTH 540 0
DWIDTH 6 0
BBX 5 8 0 0
BITMAP
F8
08
08
08
78
08
08
F8
ENDCHAR
STARTCHAR 018F
ENCODING 399
SWIDTH 630 0
DWIDTH 7 0
BBX 6 8 1 0
BITMAP
F0
88
0C
04
FC
84
88
70
ENDCHAR
STARTCHAR 0190
ENCODING 400
SWIDTH 540 0
DWIDTH 6 0
BBX 4 8 1 0
BITMAP
70
90
80
60
80
80
90
70
ENDCHAR
STARTCHAR 0191
ENCODING 401
SWIDTH 540 0
DWIDTH 6 0
BBX 6 10 -1 -2
BITMAP
3C
20
20
3C
20
20
20
20
A0
60
ENDCHAR
STARTCHAR 0192
ENCODING 402
SWIDTH 360 0
DWIDTH 4 0
BBX 6 10 -1 -2
BITMAP
1C
10
38
10
10
10
10
10
30
E0
ENDCHAR
STARTCHAR 0193
ENCODING 403
SWIDTH 720 0
DWIDTH 8 0
BBX 8 10 1 0
BITMAP
03
04
7C
C4
80
80
80
84
C4
7C
ENDCHAR
STARTCHAR 0194
ENCODING 404
SWIDTH 630 0
DWIDTH 7 0
BBX 7 10 0 -2
BITMAP
82
44
44
2C
28
18
10
28
28
38
ENDCHAR
STARTCHAR 0195
ENCODING 405
SWIDTH 900 0
DWIDTH 10 0
BBX 8 8 1 0
BITMAP
80
80
B1
C9
89
89
89
8E
ENDCHAR
STARTCHAR 0196
ENCODING 406
SWIDTH 360 0
DWIDTH 4 0
BBX 3 8 1 0
BITMAP
80
80
80
80
80
80
80
E0
ENDCHAR
STARTCHAR 0197
ENCODING 407
SWIDTH 360 0
DWIDTH 4 0
BBX 4 8 0 0
BITMAP
60
60
60
F0
60
60
60
60
ENDCHAR
STARTCHAR 0198
ENCODING 408
SWIDTH 630 0
DWIDTH 7 0
BBX 7 8 1 0
BITMAP
8E
90
A0
C0
A0
B0
98
8C
ENDCHAR
STARTCHAR 0199
ENCODING 409
SWIDTH 540 0
DWIDTH 6 0
BBX 5 8 1 0
BITMAP
70
80
90
A0
E0
A0
90
98
ENDCHAR
STARTCHAR 019A
ENCODING 410
SWIDTH 360 0
DWIDTH 4 0
BBX 4 8 0 0
BITMAP
60
60
60
F0
60
60
60
60
ENDCHAR
STARTCHAR 019B
ENCODING 411
SWIDTH 630 0
DWIDTH 7 0
BBX 6 8 0 0
BITMAP
40
38
30
70
30
48
48
C4
ENDCHAR
STARTCHAR 019C
ENCODING 412
SWIDTH 1080 0
DWIDTH 12 0
BBX 10 8 1 0
BITMAP
8840
8840
8840
8840
8840
8840
9CC0
E740
ENDCHAR
STARTCHAR 019D
ENCODING 413
SWIDTH 720 0
DWIDTH 8 0
BBX 7 10 0 -2
BITMAP
42
62
52
52
4A
4E
46
42
40
C0
ENDCHAR
STARTCHAR 019E
ENCODING 414
SWIDTH 630 0
DWIDTH 7 0
BBX 5 6 1 0
BITMAP
B8
C8
88
88
88
88
ENDCHAR
STARTCHAR 019F
ENCODING 415
SWIDTH 810 0
DWIDTH 9 0
BBX 7 8 1 0
BITMAP
78
C4
82
FE
82
86
C4
78
ENDCHAR
STARTCHAR 01A0
ENCODING 416
SWIDTH 810 0
DWIDTH 9 0
BBX 7 9 1 0
BITMAP
02
7C
C4
82
82
82
82
C4
78
ENDCHAR
STARTCHAR 01A1
ENCODING 417
SWIDTH 630 0
DWIDTH 7 0
BBX 6 8 1 0
BITMAP
04
04
78
88
88
88
88
70
ENDCHAR
STARTCHAR 01A2
ENCODING 418
SWIDTH 1080 0
DWIDTH 12 0
BBX 10 10 1 -2
BITMAP
7B80
C4C0
8240
8240
8240
8240
C440
7840
0040
0040
ENDCHAR
STARTCHAR 01A3
ENCODING 419
SWIDTH 900 0
DWIDTH 10 0
BBX 8 8 1 -2
BITMAP
76
89
89
89
89
71
01
01
ENDCHAR
STARTCHAR 01A4
ENCODING 420
SWIDTH 630 0
DWIDTH 7 0
BBX 7 8 0 0
BITMAP
7E
B2
B2
32
3C
30
30
30
ENDCHAR
STARTCHAR 01A5
ENCODING 421
SWIDTH 630 0
DWIDTH 7 0
BBX 5 10 1 -2
BITMAP
70
80
B0
C8
88
88
88
F0
80
80
ENDCHAR
STARTCHAR 01A6
ENCODING 422
SWIDTH 630 0
DWIDTH 7 0
BBX 6 11 1 -2
BITMAP
80
F0
98
88
90
E0
B0
90
98
08
0C
ENDCHAR
STARTCHAR 01A7
ENCODING 423
SWIDTH 540 0
DWIDTH 6 0
BBX 4 8 1 0
BITMAP
F0
10
10
70
C0
80
80
F0
ENDCHAR
STARTCHAR 01A8
ENCODING 424
SWIDTH 540 0
DWIDTH 6 0
BBX 4 6 1 0
BITMAP
E0
10
60
C0
80
F0
ENDCHAR
STARTCHAR 01A9
ENCODING 425
SWIDTH 540 0
DWIDTH 6 0
BBX 6 8 0 0
BITMAP
7C
60
20
10
10
20
40
FC
ENDCHAR
STARTCHAR 01AA
ENCODING 426
SWIDTH 540 0
DWIDTH 6 0
BBX 6 10 0 -2
BITMAP
70
90
70
10
10
10
10
10
10
0C
ENDCHAR
STARTCHAR 01AB
ENCODING 427
SWIDTH 360 0
DWIDTH 4 0
BBX 4 9 0 -2
BITMAP
40
F0
40
40
40
40
70
10
60
ENDCHAR
STARTCHAR 01AC
ENCODING 428
SWIDTH 630 0
DWIDTH 7 0
BBX 7 8 0 0
BITMAP
7E
90
90
10
10
10
10
10
ENDCHAR
STARTCHAR 01AD
ENCODING 429
SWIDTH 360 0
DWIDTH 4 0
BBX 4 8 0 0
BITMAP
70
40
F0
40
40
40
40
70
ENDCHAR
STARTCHAR 01AE
ENCODING 430
SWIDTH 630 0
DWIDTH 7 0
BBX 7 10 0 -2
BITMAP
FE
10
10
10
10
10
10
10
10
1C
ENDCHAR
STARTCHAR 01AF
ENCODING 431
SWIDTH 810 0
DWIDTH 9 0
BBX 8 10 1 0
BITMAP
01
01
86
84
84
84
84
84
C8
78
ENDCHAR
STARTCHAR 01B0
ENCODING 432
SWIDTH 720 0
DWIDTH 8 0
BBX 7 8 1 0
BITMAP
02
02
8C
88
88
88
98
E8
ENDCHAR
STARTCHAR 01B1
ENCODING 433
SWIDTH 810 0
DWIDTH 9 0
BBX 8 8 0 0
BITMAP
F7
22
42
41
41
41
62
3C
ENDCHAR
STARTCHAR 01B2
ENCODING 434
SWIDTH 720 0
DWIDTH 8 0
BBX 6 8 1 0
BITMAP
8C
84
84
84
84
84
C8
70
ENDCHAR
STARTCHAR 01B3
ENCODING 435
SWIDTH 630 0
DWIDTH 7 0
BBX 7 8 0 0
BITMAP
C2
24
28
18
10
10
10
10
ENDCHAR
STARTCHAR 01B4
ENCODING 436
SWIDTH 630 0
DWIDTH 7 0
BBX 8 10 0 -2
BITMAP
03
04
88
48
48
50
30
20
20
20
ENDCHAR
STARTCHAR 01B5
ENCODING 437
SWIDTH 630 0
DWIDTH 7 0
BBX 5 8 1 0
BITMAP
F8
18
30
F8
40
C0
80
F8
ENDCHAR
STARTCHAR 01B6
ENCODING 438
SWIDTH 540 0
DWIDTH 6 0
BBX 5 6 1 0
BITMAP
F8
10
30
F0
C0
F8
ENDCHAR
STARTCHAR 01B7
ENCODING 439
SWIDTH 540 0
DWIDTH 6 0
BBX 5 8 0 0
BITMAP
78
18
20
70
08
08
08
F0
ENDCHAR
STARTCHAR 01B8
ENCODING 440
SWIDTH 540 0
DWIDTH 6 0
BBX 5 8 1 0
BITMAP
F8
40
20
70
80
80
80
78
ENDCHAR
STARTCHAR 01B9
ENCODING 441
SWIDTH 540 0
DWIDTH 6 0
BBX 4 8 1 -2
BITMAP
F0
C0
20
70
80
80
80
70
ENDCHAR
STARTCHAR 01BA
ENCODING 442
SWIDTH 540 0
DWIDTH 6 0
BBX 4 8 1 -2
BITMAP
F0
30
40
F0
10
60
80
F0
ENDCHAR
STARTCHAR 01BB
ENCODING 443
SWIDTH 630 0
DWIDTH 7 0
BBX 5 8 1 0
BITMAP
70
98
08
10
F8
40
80
F8
ENDCHAR
STARTCHAR 01BC
ENCODING 444
SWIDTH 630 0
DWIDTH 7 0
BBX 5 8 1 0
BITMAP
F8
80
80
F0
10
08
18
F0
ENDCHAR
STARTCHAR 01BD
ENCODING 445
SWIDTH 450 0
DWIDTH 5 0
BBX 3 6 1 0
BITMAP
E0
80
E0
20
20
E0
ENDCHAR
STARTCHAR 01BE
ENCODING 446
SWIDTH 450 0
DWIDTH 5 0
BBX 5 8 0 0
BITMAP
40
40
F0
40
20
10
08
70
ENDCHAR
STARTCHAR 01BF
ENCODING 447
SWIDTH 630 0
DWIDTH 7 0
BBX 5 8 1 -2
BITMAP
B8
C8
88
98
B0
C0
80
80
ENDCHAR
STARTCHAR 01C0
ENCODING 448
SWIDTH 270 0
DWIDTH 3 0
BBX 1 8 1 0
BITMAP
80
80
80
80
80
80
80
80
ENDCHAR
STARTCHAR 01C1
ENCODING 449
SWIDTH 450 0
DWIDTH 5 0
BBX 3 8 1 0
BITMAP
A0
A0
A0
A0
A0
A0
A0
A0
ENDCHAR
STARTCHAR 01C2
ENCODING 450
SWIDTH 630 0
DWIDTH 7 0
BBX 5 8 1 0
BITMAP
20
20
F8
20
F8
20
20
20
ENDCHAR
STARTCHAR 01C3
ENCODING 451
SWIDTH 270 0
DWIDTH 3 0
BBX 1 8 1 0
BITMAP
80
80
80
80
80
80
00
80
ENDCHAR
STARTCHAR 01C4
ENCODING 452
SWIDTH 1260 0
DWIDTH 14 0
BBX 12 11 1 0
BITMAP
00A0
0060
0000
F9F0
8C10
8620
8660
8640
8480
8D80
F9F0
ENDCHAR
STARTCHAR 01C5
ENCODING 453
SWIDTH 1260 0
DWIDTH 14 0
BBX 12 9 1 0
BITMAP
0090
F860
8C00
86F0
8610
8620
8440
8C80
F9F0
ENDCHAR
STARTCHAR 01C6
ENCODING 454
SWIDTH 1170 0
DWIDTH 13 0
BBX 11 9 1 0
BITMAP
0140
08C0
0800
7BE0
8840
8880
8980
9B00
EBE0
ENDCHAR
STARTCHAR 01C7
ENCODING 455
SWIDTH 810 0
DWIDTH 9 0
BBX 7 10 1 -2
BITMAP
82
82
82
82
82
82
82
FA
02
0C
ENDCHAR
STARTCHAR 01C8
ENCODING 456
SWIDTH 810 0
DWIDTH 9 0
BBX 7 10 1 -2
BITMAP
82
80
82
82
82
82
82
FA
02
0C
ENDCHAR
STARTCHAR 01C9
ENCODING 457
SWIDTH 540 0
DWIDTH 6 0
BBX 4 10 1 -2
BITMAP
90
80
90
90
90
90
90
90
10
60
ENDCHAR
STARTCHAR 01CA
ENCODING 458
SWIDTH 990 0
DWIDTH 11 0
BBX 9 10 1 -2
BITMAP
8480
C480
A480
A480
9480
9480
8C80
8480
0080
0300
ENDCHAR
STARTCHAR 01CB
ENCODING 459
SWIDTH 990 0
DWIDTH 11 0
BBX 9 10 1 -2
BITMAP
8480
C400
A480
A480
9480
9480
8C80
8480
0080
0300
ENDCHAR
STARTCHAR 01CC
ENCODING 460
SWIDTH 900 0
DWIDTH 10 0
BBX 7 10 1 -2
BITMAP
02
00
B2
CA
8A
8A
8A
8A
02
0E
ENDCHAR
STARTCHAR 01CD
ENCODING 461
SWIDTH 720 0
DWIDTH 8 0
BBX 7 11 0 0
BITMAP
28
18
00
18
18
28
2C
64
7C
42
82
ENDCHAR
STARTCHAR 01CE
ENCODING 462
SWIDTH 540 0
DWIDTH 6 0
BBX 5 9 1 0
BITMAP
90
60
00
F0
10
F0
90
90
F8
ENDCHAR
STARTCHAR 01CF
ENCODING 463
SWIDTH 270 0
DWIDTH 3 0
BBX 3 11 0 0
BITMAP
A0
40
00
40
40
40
40
40
40
40
40
ENDCHAR
STARTCHAR 01D0
ENCODING 464
SWIDTH 270 0
DWIDTH 3 0
BBX 3 9 0 0
BITMAP
A0
60
00
40
40
40
40
40
40
ENDCHAR
STARTCHAR 01D1
ENCODING 465
SWIDTH 810 0
DWIDTH 9 0
BBX 7 11 1 0
BITMAP
28
30
00
78
C4
82
82
82
82
C4
78
ENDCHAR
STARTCHAR 01D2
ENCODING 466
SWIDTH 630 0
DWIDTH 7 0
BBX 5 9 1 0
BITMAP
50
60
00
70
88
88
88
88
70
ENDCHAR
STARTCHAR 01D3
ENCODING 467
SWIDTH 720 0
DWIDTH 8 0
BBX 6 11 1 0
BITMAP
50
30
00
84
84
84
84
84
84
C8
78
ENDCHAR
STARTCHAR 01D4
ENCODING 468
SWIDTH 630 0
DWIDTH 7 0
BBX 5 9 1 0
BITMAP
50
60
00
88
88
88
88
98
E8
ENDCHAR
STARTCHAR 01D5
ENCODING 469
SWIDTH 720 0
DWIDTH 8 0
BBX 6 12 1 0
BITMAP
78
00
50
00
84
84
84
84
84
84
C8
78
ENDCHAR
STARTCHAR 01D6
ENCODING 470
SWIDTH 630 0
DWIDTH 7 0
BBX 5 10 1 0
BITMAP
70
00
50
00
88
88
88
88
98
E8
ENDCHAR
STARTCHAR 01D7
ENCODING 471
SWIDTH 720 0
DWIDTH 8 0
BBX 6 13 1 0
BITMAP
10
20
00
50
00
84
84
84
84
84
84
C8
78
ENDCHAR
STARTCHAR 01D8
ENCODING 472
SWIDTH 630 0
DWIDTH 7 0
BBX 5 11 1 0
BITMAP
10
20
00
50
00
88
88
88
88
98
E8
ENDCHAR
STARTCHAR 01D9
ENCODING 473
SWIDTH 720 0
DWIDTH 8 0
BBX 6 13 1 0
BITMAP
50
30
00
50
00
84
84
84
84
84
84
C8
78
ENDCHAR
STARTCHAR 01DA
ENCODING 474
SWIDTH 630 0
DWIDTH 7 0
BBX 5 11 1 0
BITMAP
50
60
00
50
00
88
88
88
88
98
E8
ENDCHAR
STARTCHAR 01DB
ENCODING 475
SWIDTH 720 0
DWIDTH 8 0
BBX 6 13 1 0
BITMAP
20
20
00
50
00
84
84
84
84
84
84
C8
78
ENDCHAR
STARTCHAR 01DC
ENCODING 476
SWIDTH 630 0
DWIDTH 7 0
BBX 5 11 1 0
BITMAP
40
20
00
50
00
88
88
88
88
98
E8
ENDCHAR
STARTCHAR 01DD
ENCODING 477
SWIDTH 540 0
DWIDTH 6 0
BBX 5 6 1 0
BITMAP
E0
10
18
F8
90
60
ENDCHAR
STARTCHAR 01DE
ENCODING 478
SWIDTH 720 0
DWIDTH 8 0
BBX 7 12 0 0
BITMAP
3C
00
28
00
18
18
28
2C
64
7C
42
82
ENDCHAR
STARTCHAR 01DF
ENCODING 479
SWIDTH 540 0
DWIDTH 6 0
BBX 5 10 1 0
BITMAP
F0
00
90
00
F0
10
F0
90
90
F8
ENDCHAR
STARTCHAR 01E0
ENCODING 480
SWIDTH 720 0
DWIDTH 8 0
BBX 7 12 0 0
BITMAP
3C
00
10
00
18
18
28
2C
64
7C
42
82
ENDCHAR
STARTCHAR 01E1
ENCODING 481
SWIDTH 540 0
DWIDTH 6 0
BBX 5 10 1 0
BITMAP
F0
00
20
00
F0
10
F0
90
90
F8
ENDCHAR
STARTCHAR 01E2
ENCODING 482
SWIDTH 900 0
DWIDTH 10 0
BBX 10 10 0 0
BITMAP
0700
0000
0F80
0C00
1400
1780
2400
3C00
4400
87C0
ENDCHAR
STARTCHAR 01E3
ENCODING 483
SWIDTH 810 0
DWIDTH 9 0
BBX 8 8 1 0
BITMAP
38
00
FE
12
FF
90
98
EF
ENDCHAR
STARTCHAR 01E4
ENCODING 484
SWIDTH 810 0
DWIDTH 9 0
BBX 7 8 1 0
BITMAP
7C
C0
80
80
84
8E
C4
7C
ENDCHAR
STARTCHAR 01E5
ENCODING 485
SWIDTH 720 0
DWIDTH 8 0
BBX 6 8 1 -2
BITMAP
68
98
BC
88
98
E8
18
F0
ENDCHAR
STARTCHAR 01E6
ENCODING 486
SWIDTH 720 0
DWIDTH 8 0
BBX 6 11 1 0
BITMAP
28
10
00
7C
C0
80
80
80
84
C4
7C
ENDCHAR
STARTCHAR 01E7
ENCODING 487
SWIDTH 630 0
DWIDTH 7 0
BBX 5 11 1 -2
BITMAP
50
60
00
68
98
88
88
98
E8
18
F0
ENDCHAR
STARTCHAR 01E8
ENCODING 488
SWIDTH 630 0
DWIDTH 7 0
BBX 6 11 1 0
BITMAP
50
20
00
88
90
A0
E0
A0
B0
98
8C
ENDCHAR
STARTCHAR 01E9
ENCODING 489
SWIDTH 540 0
DWIDTH 6 0
BBX 5 11 1 0
BITMAP
50
30
00
80
80
90
A0
E0
A0
90
98
ENDCHAR
STARTCHAR 01EA
ENCODING 490
SWIDTH 810 0
DWIDTH 9 0
BBX 7 11 1 -3
BITMAP
78
C4
82
82
82
82
C4
78
10
20
18
ENDCHAR
STARTCHAR 01EB
ENCODING 491
SWIDTH 630 0
DWIDTH 7 0
BBX 5 9 1 -3
BITMAP
70
88
88
88
88
70
20
40
30
ENDCHAR
STARTCHAR 01EC
ENCODING 492
SWIDTH 810 0
DWIDTH 9 0
BBX 7 13 1 -3
BITMAP
38
00
78
C4
82
82
82
82
C4
78
10
20
18
ENDCHAR
STARTCHAR 01ED
ENCODING 493
SWIDTH 630 0
DWIDTH 7 0
BBX 5 11 1 -3
BITMAP
70
00
70
88
88
88
88
70
20
40
30
ENDCHAR
STARTCHAR 01EE
ENCODING 494
SWIDTH 540 0
DWIDTH 6 0
BBX 5 11 0 0
BITMAP
50
30
00
78
18
20
70
08
08
08
F0
ENDCHAR
STARTCHAR 01EF
ENCODING 495
SWIDTH 540 0
DWIDTH 6 0
BBX 5 11 0 -2
BITMAP
50
30
00
78
10
20
70
18
08
08
F0
ENDCHAR
STARTCHAR 01F0
ENCODING 496
SWIDTH 270 0
DWIDTH 3 0
BBX 4 11 -1 -2
BITMAP
50
30
00
20
20
20
20
20
20
20
E0
ENDCHAR
STARTCHAR 01FA
ENCODING 506
SWIDTH 720 0
DWIDTH 8 0
BBX 7 13 0 0
BITMAP
08
10
18
28
18
18
18
28
2C
64
7C
42
82
ENDCHAR
STARTCHAR 01FB
ENCODING 507
SWIDTH 540 0
DWIDTH 6 0
BBX 5 12 1 0
BITMAP
20
40
60
A0
60
00
F0
10
F0
90
90
F8
ENDCHAR
STARTCHAR 01FC
ENCODING 508
SWIDTH 900 0
DWIDTH 10 0
BBX 10 11 0 0
BITMAP
0200
0200
0000
0F80
0C00
1400
1780
2400
3C00
4400
87C0
ENDCHAR
STARTCHAR 01FD
ENCODING 509
SWIDTH 810 0
DWIDTH 9 0
BBX 8 9 1 0
BITMAP
08
10
00
FE
12
FF
90
98
EF
ENDCHAR
STARTCHAR 01FE
ENCODING 510
SWIDTH 810 0
DWIDTH 9 0
BBX 7 11 1 0
BITMAP
18
10
00
7A
C4
8A
92
A2
C2
C4
F8
ENDCHAR
STARTCHAR 01FF
ENCODING 511
SWIDTH 630 0
DWIDTH 7 0
BBX 5 9 1 0
BITMAP
10
20
00
78
98
A8
C8
88
F0
ENDCHAR
STARTCHAR 0218
ENCODING 536
SWIDTH 540 0
DWIDTH 6 0
BBX 4 11 1 -3
BITMAP
F0
80
80
C0
30
10
10
E0
00
40
40
ENDCHAR
STARTCHAR 0219
ENCODING 537
SWIDTH 540 0
DWIDTH 6 0
BBX 4 9 1 -3
BITMAP
E0
80
C0
30
10
E0
00
40
40
ENDCHAR
STARTCHAR 021A
ENCODING 538
SWIDTH 630 0
DWIDTH 7 0
BBX 7 11 0 -3
BITMAP
FE
10
10
10
10
10
10
10
00
10
10
ENDCHAR
STARTCHAR 021B
ENCODING 539
SWIDTH 360 0
DWIDTH 4 0
BBX 4 10 0 -3
BITMAP
40
F0
40
40
40
40
70
00
20
20
ENDCHAR
STARTCHAR 0250
ENCODING 592
SWIDTH 540 0
DWIDTH 6 0
BBX 5 6 0 0
BITMAP
D8
68
48
78
40
78
ENDCHAR
STARTCHAR 0251
ENCODING 593
SWIDTH 630 0
DWIDTH 7 0
BBX 5 6 1 0
BITMAP
78
C8
88
98
A8
E8
ENDCHAR
STARTCHAR 0252
ENCODING 594
SWIDTH 630 0
DWIDTH 7 0
BBX 5 6 1 0
BITMAP
B8
C8
88
88
90
F0
ENDCHAR
STARTCHAR 0253
ENCODING 595
SWIDTH 630 0
DWIDTH 7 0
BBX 5 8 1 0
BITMAP
70
80
B0
C8
88
88
88
F0
ENDCHAR
STARTCHAR 0254
ENCODING 596
SWIDTH 540 0
DWIDTH 6 0
BBX 4 6 1 0
BITMAP
E0
30
10
10
30
E0
ENDCHAR
STARTCHAR 0255
ENCODING 597
SWIDTH 540 0
DWIDTH 6 0
BBX 5 7 1 -1
BITMAP
70
80
80
B8
C8
F0
80
ENDCHAR
STARTCHAR 0256
ENCODING 598
SWIDTH 630 0
DWIDTH 7 0
BBX 6 10 1 -2
BITMAP
08
08
68
98
88
88
98
E8
08
0C
ENDCHAR
STARTCHAR 0257
ENCODING 599
SWIDTH 630 0
DWIDTH 7 0
BBX 6 8 1 0
BITMAP
0C
08
78
88
88
88
98
E8
ENDCHAR
STARTCHAR 0258
ENCODING 600
SWIDTH 540 0
DWIDTH 6 0
BBX 5 6 1 0
BITMAP
60
90
F8
10
10
E0
ENDCHAR
STARTCHAR 0259
ENCODING 601
SWIDTH 540 0
DWIDTH 6 0
BBX 5 6 1 0
BITMAP
E0
10
18
F8
90
60
ENDCHAR
STARTCHAR 025A
ENCODING 602
SWIDTH 810 0
DWIDTH 9 0
BBX 8 6 1 0
BITMAP
E0
14
3C
D2
93
60
ENDCHAR
STARTCHAR 025B
ENCODING 603
SWIDTH 450 0
DWIDTH 5 0
BBX 4 6 1 0
BITMAP
E0
80
60
80
90
E0
ENDCHAR
STARTCHAR 025C
ENCODING 604
SWIDTH 450 0
DWIDTH 5 0
BBX 4 6 1 0
BITMAP
E0
20
E0
30
30
E0
ENDCHAR
STARTCHAR 025D
ENCODING 605
SWIDTH 630 0
DWIDTH 7 0
BBX 6 6 1 0
BITMAP
F8
28
E4
30
30
E0
ENDCHAR
STARTCHAR 025E
ENCODING 606
SWIDTH 540 0
DWIDTH 6 0
BBX 5 6 1 0
BITMAP
70
88
B0
88
88
70
ENDCHAR
STARTCHAR 025F
ENCODING 607
SWIDTH 360 0
DWIDTH 4 0
BBX 4 8 0 -2
BITMAP
20
20
F0
20
20
20
20
C0
ENDCHAR
STARTCHAR 0260
ENCODING 608
SWIDTH 630 0
DWIDTH 7 0
BBX 6 10 1 -2
BITMAP
0C
08
68
98
88
88
98
E8
18
F0
ENDCHAR
STARTCHAR 0261
ENCODING 609
SWIDTH 630 0
DWIDTH 7 0
BBX 5 8 1 -2
BITMAP
68
98
88
88
98
E8
18
F0
ENDCHAR
STARTCHAR 0262
ENCODING 610
SWIDTH 540 0
DWIDTH 6 0
BBX 5 6 1 0
BITMAP
78
80
80
88
88
78
ENDCHAR
STARTCHAR 0263
ENCODING 611
SWIDTH 540 0
DWIDTH 6 0
BBX 6 8 0 -2
BITMAP
84
48
28
30
30
50
50
30
ENDCHAR
STARTCHAR 0264
ENCODING 612
SWIDTH 540 0
DWIDTH 6 0
BBX 6 6 0 0
BITMAP
CC
70
20
50
50
30
ENDCHAR
STARTCHAR 0265
ENCODING 613
SWIDTH 630 0
DWIDTH 7 0
BBX 5 8 1 -2
BITMAP
88
88
88
88
98
E8
08
08
ENDCHAR
STARTCHAR 0266
ENCODING 614
SWIDTH 630 0
DWIDTH 7 0
BBX 5 8 1 0
BITMAP
70
80
B0
C8
88
88
88
88
ENDCHAR
STARTCHAR 0267
ENCODING 615
SWIDTH 630 0
DWIDTH 7 0
BBX 5 10 1 -2
BITMAP
70
80
B0
C8
88
88
88
88
08
30
ENDCHAR
STARTCHAR 0268
ENCODING 616
SWIDTH 360 0
DWIDTH 4 0
BBX 4 8 0 0
BITMAP
20
00
20
20
F0
20
20
20
ENDCHAR
STARTCHAR 0269
ENCODING 617
SWIDTH 360 0
DWIDTH 4 0
BBX 3 6 1 0
BITMAP
80
80
80
80
80
E0
ENDCHAR
STARTCHAR 026A
ENCODING 618
SWIDTH 450 0
DWIDTH 5 0
BBX 3 6 1 0
BITMAP
E0
40
40
40
40
E0
ENDCHAR
STARTCHAR 026B
ENCODING 619
SWIDTH 540 0
DWIDTH 6 0
BBX 5 8 0 0
BITMAP
20
20
68
B8
20
20
20
20
ENDCHAR
STARTCHAR 026C
ENCODING 620
SWIDTH 540 0
DWIDTH 6 0
BBX 6 8 0 0
BITMAP
10
10
F0
B0
7C
10
10
10
ENDCHAR
STARTCHAR 026D
ENCODING 621
SWIDTH 270 0
DWIDTH 3 0
BBX 3 10 1 -2
BITMAP
80
80
80
80
80
80
80
80
80
E0
ENDCHAR
STARTCHAR 026E
ENCODING 622
SWIDTH 630 0
DWIDTH 7 0
BBX 6 10 1 -2
BITMAP
80
80
FC
88
90
B8
8C
84
08
78
ENDCHAR
STARTCHAR 026F
ENCODING 623
SWIDTH 900 0
DWIDTH 10 0
BBX 8 6 1 0
BITMAP
89
89
89
89
99
EF
ENDCHAR
STARTCHAR 0270
ENCODING 624
SWIDTH 900 0
DWIDTH 10 0
BBX 8 8 1 -2
BITMAP
89
89
89
89
99
EF
01
01
ENDCHAR
STARTCHAR 0271
ENCODING 625
SWIDTH 900 0
DWIDTH 10 0
BBX 8 8 1 -2
BITMAP
B7
C9
89
89
89
89
01
03
ENDCHAR
STARTCHAR 0272
ENCODING 626
SWIDTH 630 0
DWIDTH 7 0
BBX 6 8 0 -2
BITMAP
58
64
44
44
44
44
40
C0
ENDCHAR
STARTCHAR 0273
ENCODING 627
SWIDTH 630 0
DWIDTH 7 0
BBX 6 8 1 -2
BITMAP
B0
C8
88
88
88
88
08
0C
ENDCHAR
STARTCHAR 0274
ENCODING 628
SWIDTH 630 0
DWIDTH 7 0
BBX 5 6 1 0
BITMAP
88
C8
E8
A8
98
88
ENDCHAR
STARTCHAR 0275
ENCODING 629
SWIDTH 630 0
DWIDTH 7 0
BBX 5 6 1 0
BITMAP
70
88
88
F8
88
70
ENDCHAR
STARTCHAR 0276
ENCODING 630
SWIDTH 810 0
DWIDTH 9 0
BBX 7 6 1 0
BITMAP
7E
88
8E
88
88
7E
ENDCHAR
STARTCHAR 0277
ENCODING 631
SWIDTH 810 0
DWIDTH 9 0
BBX 7 6 1 0
BITMAP
7C
C6
92
92
92
EC
ENDCHAR
STARTCHAR 0278
ENCODING 632
SWIDTH 720 0
DWIDTH 8 0
BBX 7 10 1 -2
BITMAP
10
10
10
7C
96
92
96
7C
10
10
ENDCHAR
STARTCHAR 0279
ENCODING 633
SWIDTH 450 0
DWIDTH 5 0
BBX 3 6 0 0
BITMAP
20
20
20
20
20
E0
ENDCHAR
STARTCHAR 027A
ENCODING 634
SWIDTH 450 0
DWIDTH 5 0
BBX 3 8 0 0
BITMAP
20
20
20
20
20
20
20
E0
ENDCHAR
STARTCHAR 027B
ENCODING 635
SWIDTH 450 0
DWIDTH 5 0
BBX 5 8 0 -2
BITMAP
20
20
20
20
20
E0
30
18
ENDCHAR
STARTCHAR 027C
ENCODING 636
SWIDTH 450 0
DWIDTH 5 0
BBX 3 8 1 -2
BITMAP
A0
C0
80
80
80
80
80
80
ENDCHAR
STARTCHAR 027D
ENCODING 637
SWIDTH 450 0
DWIDTH 5 0
BBX 3 8 1 -2
BITMAP
A0
C0
80
80
80
80
80
E0
ENDCHAR
STARTCHAR 027E
ENCODING 638
SWIDTH 450 0
DWIDTH 5 0
BBX 3 6 1 0
BITMAP
60
80
80
80
80
80
ENDCHAR
STARTCHAR 027F
ENCODING 639
SWIDTH 450 0
DWIDTH 5 0
BBX 3 6 0 0
BITMAP
E0
20
20
20
20
20
ENDCHAR
STARTCHAR 0280
ENCODING 640
SWIDTH 540 0
DWIDTH 6 0
BBX 4 6 1 0
BITMAP
F0
90
90
E0
B0
90
ENDCHAR
STARTCHAR 0281
ENCODING 641
SWIDTH 540 0
DWIDTH 6 0
BBX 4 6 1 0
BITMAP
90
B0
E0
90
90
F0
ENDCHAR
STARTCHAR 0282
ENCODING 642
SWIDTH 540 0
DWIDTH 6 0
BBX 4 8 1 -2
BITMAP
E0
80
C0
30
90
E0
80
C0
ENDCHAR
STARTCHAR 0283
ENCODING 643
SWIDTH 450 0
DWIDTH 5 0
BBX 5 10 0 -2
BITMAP
38
20
20
20
20
20
20
20
20
C0
ENDCHAR
STARTCHAR 0284
ENCODING 644
SWIDTH 450 0
DWIDTH 5 0
BBX 4 10 0 -2
BITMAP
30
20
20
20
70
20
70
20
20
E0
ENDCHAR
STARTCHAR 0285
ENCODING 645
SWIDTH 450 0
DWIDTH 5 0
BBX 5 8 0 0
BITMAP
C0
20
20
20
20
20
20
38
ENDCHAR
STARTCHAR 0286
ENCODING 646
SWIDTH 540 0
DWIDTH 6 0
BBX 6 10 0 -2
BITMAP
1C
10
30
30
30
30
30
F8
A0
E0
ENDCHAR
STARTCHAR 0287
ENCODING 647
SWIDTH 360 0
DWIDTH 4 0
BBX 4 7 0 -1
BITMAP
E0
20
20
20
20
F0
20
ENDCHAR
STARTCHAR 0288
ENCODING 648
SWIDTH 360 0
DWIDTH 4 0
BBX 4 9 0 -2
BITMAP
40
F0
40
40
40
40
40
40
30
ENDCHAR
STARTCHAR 0289
ENCODING 649
SWIDTH 630 0
DWIDTH 7 0
BBX 7 6 0 0
BITMAP
44
44
FE
44
4C
34
ENDCHAR
STARTCHAR 028A
ENCODING 650
SWIDTH 630 0
DWIDTH 7 0
BBX 7 6 0 0
BITMAP
E6
44
44
46
44
38
ENDCHAR
STARTCHAR 028B
ENCODING 651
SWIDTH 630 0
DWIDTH 7 0
BBX 6 6 0 0
BITMAP
84
44
44
44
28
30
ENDCHAR
STARTCHAR 028C
ENCODING 652
SWIDTH 540 0
DWIDTH 6 0
BBX 5 6 0 0
BITMAP
30
30
50
48
48
88
ENDCHAR
STARTCHAR 028D
ENCODING 653
SWIDTH 720 0
DWIDTH 8 0
BBX 8 6 0 0
BITMAP
22
26
56
59
99
89
ENDCHAR
STARTCHAR 028E
ENCODING 654
SWIDTH 540 0
DWIDTH 6 0
BBX 5 8 0 0
BITMAP
10
10
30
30
50
48
48
88
ENDCHAR
STARTCHAR 028F
ENCODING 655
SWIDTH 450 0
DWIDTH 5 0
BBX 5 6 0 0
BITMAP
C8
50
30
20
20
20
ENDCHAR
STARTCHAR 0290
ENCODING 656
SWIDTH 540 0
DWIDTH 6 0
BBX 6 8 1 -2
BITMAP
F8
10
20
40
80
F8
08
0C
ENDCHAR
STARTCHAR 0291
ENCODING 657
SWIDTH 720 0
DWIDTH 8 0
BBX 7 8 1 -2
BITMAP
F8
10
20
4C
92
FC
20
20
ENDCHAR
STARTCHAR 0292
ENCODING 658
SWIDTH 540 0
DWIDTH 6 0
BBX 5 8 0 -2
BITMAP
78
10
20
70
18
08
08
F0
ENDCHAR
STARTCHAR 0293
ENCODING 659
SWIDTH 540 0
DWIDTH 6 0
BBX 5 9 0 -3
BITMAP
78
18
20
70
08
68
98
78
08
ENDCHAR
STARTCHAR 0294
ENCODING 660
SWIDTH 450 0
DWIDTH 5 0
BBX 5 8 0 0
BITMAP
F0
18
10
10
20
40
40
40
ENDCHAR
STARTCHAR 0295
ENCODING 661
SWIDTH 450 0
DWIDTH 5 0
BBX 4 8 0 0
BITMAP
70
80
80
40
20
10
10
10
ENDCHAR
STARTCHAR 0296
ENCODING 662
SWIDTH 450 0
DWIDTH 5 0
BBX 5 8 0 0
BITMAP
40
40
40
20
10
10
18
F0
ENDCHAR
STARTCHAR 0297
ENCODING 663
SWIDTH 450 0
DWIDTH 5 0
BBX 4 8 1 -2
BITMAP
70
80
80
80
80
80
80
70
ENDCHAR
STARTCHAR 0298
ENCODING 664
SWIDTH 630 0
DWIDTH 7 0
BBX 6 6 1 0
BITMAP
70
88
A4
84
88
70
ENDCHAR
STARTCHAR 0299
ENCODING 665
SWIDTH 540 0
DWIDTH 6 0
BBX 4 6 1 0
BITMAP
F0
90
90
E0
90
F0
ENDCHAR
STARTCHAR 029A
ENCODING 666
SWIDTH 540 0
DWIDTH 6 0
BBX 5 6 1 0
BITMAP
F0
90
E8
88
98
F0
ENDCHAR
STARTCHAR 029B
ENCODING 667
SWIDTH 630 0
DWIDTH 7 0
BBX 6 9 1 0
BITMAP
0C
08
08
78
80
80
88
88
78
ENDCHAR
STARTCHAR 029C
ENCODING 668
SWIDTH 630 0
DWIDTH 7 0
BBX 5 6 1 0
BITMAP
88
88
F8
88
88
88
ENDCHAR
STARTCHAR 029D
ENCODING 669
SWIDTH 450 0
DWIDTH 5 0
BBX 5 10 0 -2
BITMAP
30
00
30
30
30
30
30
F8
A0
E0
ENDCHAR
STARTCHAR 029E
ENCODING 670
SWIDTH 540 0
DWIDTH 6 0
BBX 4 8 1 -2
BITMAP
90
50
70
30
50
90
10
10
ENDCHAR
STARTCHAR 029F
ENCODING 671
SWIDTH 450 0
DWIDTH 5 0
BBX 4 6 1 0
BITMAP
80
80
80
80
80
F0
ENDCHAR
STARTCHAR 02A0
ENCODING 672
SWIDTH 630 0
DWIDTH 7 0
BBX 6 10 1 -2
BITMAP
0C
08
78
88
88
88
98
E8
08
08
ENDCHAR
STARTCHAR 02A1
ENCODING 673
SWIDTH 450 0
DWIDTH 5 0
BBX 5 8 0 0
BITMAP
70
08
10
20
20
F0
60
60
ENDCHAR
STARTCHAR 02A2
ENCODING 674
SWIDTH 450 0
DWIDTH 5 0
BBX 5 8 0 0
BITMAP
70
80
80
60
30
78
10
10
ENDCHAR
STARTCHAR 02A3
ENCODING 675
SWIDTH 990 0
DWIDTH 11 0
BBX 10 8 1 0
BITMAP
0800
0800
7FC0
8880
8900
8B00
9E00
EFC0
ENDCHAR
STARTCHAR 02A4
ENCODING 676
SWIDTH 990 0
DWIDTH 11 0
BBX 9 10 1 -2
BITMAP
0800
0800
7F80
8880
8B00
8B00
9880
E880
0080
0700
ENDCHAR
STARTCHAR 02A5
ENCODING 677
SWIDTH 1170 0
DWIDTH 13 0
BBX 12 10 1 -2
BITMAP
0800
0800
7FC0
8880
8900
8A60
9E90
EFE0
0100
0100
ENDCHAR
STARTCHAR 02A6
ENCODING 678
SWIDTH 810 0
DWIDTH 9 0
BBX 8 7 0 0
BITMAP
40
FE
48
4C
43
41
7E
ENDCHAR
STARTCHAR 02A7
ENCODING 679
SWIDTH 720 0
DWIDTH 8 0
BBX 8 10 0 -2
BITMAP
07
44
FC
44
44
44
44
74
04
18
ENDCHAR
STARTCHAR 02A8
ENCODING 680
SWIDTH 900 0
DWIDTH 10 0
BBX 9 9 0 -2
BITMAP
4000
FF80
4C00
4800
4980
4680
7780
0400
0400
ENDCHAR
STARTCHAR 02B0
ENCODING 688
SWIDTH 360 0
DWIDTH 4 0
BBX 3 6 1 4
BITMAP
80
80
C0
A0
A0
A0
ENDCHAR
STARTCHAR 02B1
ENCODING 689
SWIDTH 360 0
DWIDTH 4 0
BBX 3 6 1 4
BITMAP
C0
80
C0
A0
A0
A0
ENDCHAR
STARTCHAR 02B2
ENCODING 690
SWIDTH 270 0
DWIDTH 3 0
BBX 2 7 0 3
BITMAP
40
00
40
40
40
40
C0
ENDCHAR
STARTCHAR 02B3
ENCODING 691
SWIDTH 270 0
DWIDTH 3 0
BBX 2 4 1 4
BITMAP
C0
80
80
80
ENDCHAR
STARTCHAR 02B4
ENCODING 692
SWIDTH 270 0
DWIDTH 3 0
BBX 2 4 0 4
BITMAP
40
40
40
C0
ENDCHAR
STARTCHAR 02B5
ENCODING 693
SWIDTH 360 0
DWIDTH 4 0
BBX 3 4 0 4
BITMAP
40
40
40
A0
ENDCHAR
STARTCHAR 02B6
ENCODING 694
SWIDTH 360 0
DWIDTH 4 0
BBX 2 4 1 4
BITMAP
C0
C0
C0
C0
ENDCHAR
STARTCHAR 02B7
ENCODING 695
SWIDTH 450 0
DWIDTH 5 0
BBX 5 4 0 4
BITMAP
A8
A8
58
50
ENDCHAR
STARTCHAR 02B8
ENCODING 696
SWIDTH 360 0
DWIDTH 4 0
BBX 3 4 0 4
BITMAP
A0
60
40
40
ENDCHAR
STARTCHAR 02B9
ENCODING 697
SWIDTH 270 0
DWIDTH 3 0
BBX 2 3 1 5
BITMAP
40
80
80
ENDCHAR
STARTCHAR 02BA
ENCODING 698
SWIDTH 540 0
DWIDTH 6 0
BBX 4 3 1 5
BITMAP
50
90
A0
ENDCHAR
STARTCHAR 02BB
ENCODING 699
SWIDTH 270 0
DWIDTH 3 0
BBX 1 3 1 5
BITMAP
80
80
80
ENDCHAR
STARTCHAR 02BC
ENCODING 700
SWIDTH 270 0
DWIDTH 3 0
BBX 1 3 1 5
BITMAP
80
80
80
ENDCHAR
STARTCHAR 02BD
ENCODING 701
SWIDTH 270 0
DWIDTH 3 0
BBX 1 3 1 5
BITMAP
80
80
80
ENDCHAR
STARTCHAR 02BE
ENCODING 702
SWIDTH 270 0
DWIDTH 3 0
BBX 2 3 1 5
BITMAP
80
40
80
ENDCHAR
STARTCHAR 02BF
ENCODING 703
SWIDTH 270 0
DWIDTH 3 0
BBX 2 3 1 5
BITMAP
C0
80
C0
ENDCHAR
STARTCHAR 02C0
ENCODING 704
SWIDTH 360 0
DWIDTH 4 0
BBX 3 4 0 4
BITMAP
E0
20
40
40
ENDCHAR
STARTCHAR 02C1
ENCODING 705
SWIDTH 360 0
DWIDTH 4 0
BBX 3 4 0 4
BITMAP
60
80
40
40
ENDCHAR
STARTCHAR 02C2
ENCODING 706
SWIDTH 360 0
DWIDTH 4 0
BBX 4 3 0 5
BITMAP
30
C0
30
ENDCHAR
STARTCHAR 02C3
ENCODING 707
SWIDTH 360 0
DWIDTH 4 0
BBX 3 3 1 5
BITMAP
80
60
C0
ENDCHAR
STARTCHAR 02C4
ENCODING 708
SWIDTH 360 0
DWIDTH 4 0
BBX 3 3 1 5
BITMAP
40
C0
A0
ENDCHAR
STARTCHAR 02C5
ENCODING 709
SWIDTH 360 0
DWIDTH 4 0
BBX 3 3 1 5
BITMAP
A0
C0
40
ENDCHAR
STARTCHAR 02C6
ENCODING 710
SWIDTH 630 0
DWIDTH 7 0
BBX 3 2 2 7
BITMAP
C0
A0
ENDCHAR
STARTCHAR 02C7
ENCODING 711
SWIDTH 630 0
DWIDTH 7 0
BBX 3 2 2 7
BITMAP
A0
C0
ENDCHAR
STARTCHAR 02C8
ENCODING 712
SWIDTH 270 0
DWIDTH 3 0
BBX 1 3 1 5
BITMAP
80
80
80
ENDCHAR
STARTCHAR 02C9
ENCODING 713
SWIDTH 630 0
DWIDTH 7 0
BBX 3 1 2 7
BITMAP
E0
ENDCHAR
STARTCHAR 02CA
ENCODING 714
SWIDTH 630 0
DWIDTH 7 0
BBX 2 2 2 7
BITMAP
40
80
ENDCHAR
STARTCHAR 02CB
ENCODING 715
SWIDTH 630 0
DWIDTH 7 0
BBX 1 2 3 7
BITMAP
80
80
ENDCHAR
STARTCHAR 02CC
ENCODING 716
SWIDTH 270 0
DWIDTH 3 0
BBX 1 3 1 -2
BITMAP
80
80
80
ENDCHAR
STARTCHAR 02CD
ENCODING 717
SWIDTH 630 0
DWIDTH 7 0
BBX 3 1 2 -2
BITMAP
E0
ENDCHAR
STARTCHAR 02CE
ENCODING 718
SWIDTH 630 0
DWIDTH 7 0
BBX 1 2 3 -3
BITMAP
80
80
ENDCHAR
STARTCHAR 02CF
ENCODING 719
SWIDTH 630 0
DWIDTH 7 0
BBX 2 2 2 -3
BITMAP
40
80
ENDCHAR
STARTCHAR 02D0
ENCODING 720
SWIDTH 450 0
DWIDTH 5 0
BBX 2 6 1 0
BITMAP
C0
40
00
00
40
C0
ENDCHAR
STARTCHAR 02D1
ENCODING 721
SWIDTH 450 0
DWIDTH 5 0
BBX 2 2 1 4
BITMAP
C0
40
ENDCHAR
STARTCHAR 02D2
ENCODING 722
SWIDTH 270 0
DWIDTH 3 0
BBX 2 3 1 2
BITMAP
80
40
80
ENDCHAR
STARTCHAR 02D3
ENCODING 723
SWIDTH 270 0
DWIDTH 3 0
BBX 2 3 1 2
BITMAP
C0
80
C0
ENDCHAR
STARTCHAR 02D4
ENCODING 724
SWIDTH 450 0
DWIDTH 5 0
BBX 3 2 1 3
BITMAP
40
E0
ENDCHAR
STARTCHAR 02D5
ENCODING 725
SWIDTH 450 0
DWIDTH 5 0
BBX 3 2 1 3
BITMAP
E0
40
ENDCHAR
STARTCHAR 02D6
ENCODING 726
SWIDTH 450 0
DWIDTH 5 0
BBX 3 3 1 2
BITMAP
40
E0
40
ENDCHAR
STARTCHAR 02D7
ENCODING 727
SWIDTH 450 0
DWIDTH 5 0
BBX 3 3 1 2
BITMAP
A0
E0
A0
ENDCHAR
STARTCHAR 02D8
ENCODING 728
SWIDTH 630 0
DWIDTH 7 0
BBX 3 2 2 7
BITMAP
A0
E0
ENDCHAR
STARTCHAR 02D9
ENCODING 729
SWIDTH 630 0
DWIDTH 7 0
BBX 1 1 3 7
BITMAP
80
ENDCHAR
STARTCHAR 02DA
ENCODING 730
SWIDTH 630 0
DWIDTH 7 0
BBX 3 3 2 7
BITMAP
C0
A0
C0
ENDCHAR
STARTCHAR 02DB
ENCODING 731
SWIDTH 630 0
DWIDTH 7 0
BBX 2 3 3 -3
BITMAP
80
80
C0
ENDCHAR
STARTCHAR 02DC
ENCODING 732
SWIDTH 630 0
DWIDTH 7 0
BBX 3 2 2 7
BITMAP
A0
E0
ENDCHAR
STARTCHAR 02DD
ENCODING 733
SWIDTH 630 0
DWIDTH 7 0
BBX 4 2 1 7
BITMAP
50
A0
ENDCHAR
STARTCHAR 02DE
ENCODING 734
SWIDTH 270 0
DWIDTH 3 0
BBX 4 3 -1 1
BITMAP
60
E0
30
ENDCHAR
STARTCHAR 02E0
ENCODING 736
SWIDTH 360 0
DWIDTH 4 0
BBX 4 5 0 3
BITMAP
90
60
20
60
60
ENDCHAR
STARTCHAR 02E1
ENCODING 737
SWIDTH 180 0
DWIDTH 2 0
BBX 1 5 1 5
BITMAP
80
80
80
80
80
ENDCHAR
STARTCHAR 02E2
ENCODING 738
SWIDTH 360 0
DWIDTH 4 0
BBX 2 3 1 5
BITMAP
C0
C0
C0
ENDCHAR
STARTCHAR 02E3
ENCODING 739
SWIDTH 450 0
DWIDTH 5 0
BBX 3 4 1 4
BITMAP
A0
40
40
A0
ENDCHAR
STARTCHAR 02E4
ENCODING 740
SWIDTH 360 0
DWIDTH 4 0
BBX 3 6 0 4
BITMAP
60
80
80
40
40
40
ENDCHAR
STARTCHAR 02E5
ENCODING 741
SWIDTH 450 0
DWIDTH 5 0
BBX 4 8 0 0
BITMAP
F0
10
10
10
10
10
10
10
ENDCHAR
STARTCHAR 02E6
ENCODING 742
SWIDTH 450 0
DWIDTH 5 0
BBX 4 8 0 0
BITMAP
10
10
F0
10
10
10
10
10
ENDCHAR
STARTCHAR 02E7
ENCODING 743
SWIDTH 450 0
DWIDTH 5 0
BBX 4 8 0 0
BITMAP
10
10
10
10
F0
10
10
10
ENDCHAR
STARTCHAR 02E8
ENCODING 744
SWIDTH 450 0
DWIDTH 5 0
BBX 4 8 0 0
BITMAP
10
10
10
10
10
10
F0
10
ENDCHAR
STARTCHAR 02E9
ENCODING 745
SWIDTH 450 0
DWIDTH 5 0
BBX 4 8 0 0
BITMAP
10
10
10
10
10
10
10
F0
ENDCHAR
STARTCHAR 0300
ENCODING 768
SWIDTH 0 0
DWIDTH 0 0
BBX 2 2 -5 7
BITMAP
80
40
ENDCHAR
STARTCHAR 0301
ENCODING 769
SWIDTH 0 0
DWIDTH 0 0
BBX 2 2 -4 7
BITMAP
40
80
ENDCHAR
STARTCHAR 0302
ENCODING 770
SWIDTH 0 0
DWIDTH 0 0
BBX 3 2 -5 7
BITMAP
60
A0
ENDCHAR
STARTCHAR 0303
ENCODING 771
SWIDTH 0 0
DWIDTH 0 0
BBX 3 2 -5 7
BITMAP
E0
A0
ENDCHAR
STARTCHAR 0304
ENCODING 772
SWIDTH 0 0
DWIDTH 0 0
BBX 3 1 -5 7
BITMAP
E0
ENDCHAR
STARTCHAR 0305
ENCODING 773
SWIDTH 0 0
DWIDTH 0 0
BBX 7 1 -7 9
BITMAP
FE
ENDCHAR
STARTCHAR 0306
ENCODING 774
SWIDTH 0 0
DWIDTH 0 0
BBX 3 2 -5 7
BITMAP
A0
E0
ENDCHAR
STARTCHAR 0307
ENCODING 775
SWIDTH 0 0
DWIDTH 0 0
BBX 1 1 -4 7
BITMAP
80
ENDCHAR
STARTCHAR 0308
ENCODING 776
SWIDTH 0 0
DWIDTH 0 0
BBX 3 1 -5 7
BITMAP
A0
ENDCHAR
STARTCHAR 0309
ENCODING 777
SWIDTH 0 0
DWIDTH 0 0
BBX 2 1 -4 7
BITMAP
C0
ENDCHAR
STARTCHAR 030A
ENCODING 778
SWIDTH 0 0
DWIDTH 0 0
BBX 3 3 -5 7
BITMAP
60
A0
60
ENDCHAR
STARTCHAR 030B
ENCODING 779
SWIDTH 0 0
DWIDTH 0 0
BBX 4 2 -5 7
BITMAP
50
A0
ENDCHAR
STARTCHAR 030C
ENCODING 780
SWIDTH 0 0
DWIDTH 0 0
BBX 3 2 -5 7
BITMAP
A0
60
ENDCHAR
STARTCHAR 030D
ENCODING 781
SWIDTH 0 0
DWIDTH 0 0
BBX 1 2 -4 7
BITMAP
80
80
ENDCHAR
STARTCHAR 030E
ENCODING 782
SWIDTH 0 0
DWIDTH 0 0
BBX 3 2 -5 7
BITMAP
A0
A0
ENDCHAR
STARTCHAR 030F
ENCODING 783
SWIDTH 0 0
DWIDTH 0 0
BBX 4 2 -6 7
BITMAP
A0
50
ENDCHAR
STARTCHAR 0310
ENCODING 784
SWIDTH 0 0
DWIDTH 0 0
BBX 3 4 -5 7
BITMAP
40
00
A0
60
ENDCHAR
STARTCHAR 0311
ENCODING 785
SWIDTH 0 0
DWIDTH 0 0
BBX 3 2 -5 7
BITMAP
E0
A0
ENDCHAR
STARTCHAR 0312
ENCODING 786
SWIDTH 0 0
DWIDTH 0 0
BBX 1 2 -4 7
BITMAP
80
80
ENDCHAR
STARTCHAR 0313
ENCODING 787
SWIDTH 0 0
DWIDTH 0 0
BBX 1 2 -4 7
BITMAP
80
80
ENDCHAR
STARTCHAR 0314
ENCODING 788
SWIDTH 0 0
DWIDTH 0 0
BBX 1 2 -4 6
BITMAP
80
80
ENDCHAR
STARTCHAR 0315
ENCODING 789
SWIDTH 0 0
DWIDTH 0 0
BBX 1 2 -1 7
BITMAP
80
80
ENDCHAR
STARTCHAR 0316
ENCODING 790
SWIDTH 0 0
DWIDTH 0 0
BBX 2 2 -4 -3
BITMAP
80
40
ENDCHAR
STARTCHAR 0317
ENCODING 791
SWIDTH 0 0
DWIDTH 0 0
BBX 1 2 -4 -3
BITMAP
80
80
ENDCHAR
STARTCHAR 0318
ENCODING 792
SWIDTH 0 0
DWIDTH 0 0
BBX 2 3 -5 -3
BITMAP
40
C0
40
ENDCHAR
STARTCHAR 0319
ENCODING 793
SWIDTH 0 0
DWIDTH 0 0
BBX 2 3 -4 -3
BITMAP
80
C0
80
ENDCHAR
STARTCHAR 031A
ENCODING 794
SWIDTH 0 0
DWIDTH 0 0
BBX 3 2 -3 6
BITMAP
E0
20
ENDCHAR
STARTCHAR 031B
ENCODING 795
SWIDTH 0 0
DWIDTH 0 0
BBX 2 2 -2 5
BITMAP
40
C0
ENDCHAR
STARTCHAR 031C
ENCODING 796
SWIDTH 0 0
DWIDTH 0 0
BBX 1 3 -4 -4
BITMAP
80
80
80
ENDCHAR
STARTCHAR 031D
ENCODING 797
SWIDTH 0 0
DWIDTH 0 0
BBX 3 2 -5 -3
BITMAP
40
E0
ENDCHAR
STARTCHAR 031E
ENCODING 798
SWIDTH 0 0
DWIDTH 0 0
BBX 3 2 -5 -3
BITMAP
E0
40
ENDCHAR
STARTCHAR 031F
ENCODING 799
SWIDTH 0 0
DWIDTH 0 0
BBX 3 3 -5 -4
BITMAP
40
E0
40
ENDCHAR
STARTCHAR 0320
ENCODING 800
SWIDTH 0 0
DWIDTH 0 0
BBX 3 3 -5 -3
BITMAP
A0
E0
A0
ENDCHAR
STARTCHAR 0321
ENCODING 801
SWIDTH 0 0
DWIDTH 0 0
BBX 3 2 -3 -2
BITMAP
20
E0
ENDCHAR
STARTCHAR 0322
ENCODING 802
SWIDTH 0 0
DWIDTH 0 0
BBX 3 2 -3 -2
BITMAP
C0
60
ENDCHAR
STARTCHAR 0323
ENCODING 803
SWIDTH 0 0
DWIDTH 0 0
BBX 1 1 -4 -2
BITMAP
80
ENDCHAR
STARTCHAR 0324
ENCODING 804
SWIDTH 0 0
DWIDTH 0 0
BBX 3 1 -5 -2
BITMAP
A0
ENDCHAR
STARTCHAR 0325
ENCODING 805
SWIDTH 0 0
DWIDTH 0 0
BBX 3 3 -5 -4
BITMAP
60
A0
60
ENDCHAR
STARTCHAR 0326
ENCODING 806
SWIDTH 0 0
DWIDTH 0 0
BBX 1 2 -4 -3
BITMAP
80
80
ENDCHAR
STARTCHAR 0327
ENCODING 807
SWIDTH 0 0
DWIDTH 0 0
BBX 2 3 -4 -3
BITMAP
40
40
C0
ENDCHAR
STARTCHAR 0328
ENCODING 808
SWIDTH 0 0
DWIDTH 0 0
BBX 2 3 -4 -3
BITMAP
80
80
C0
ENDCHAR
STARTCHAR 0329
ENCODING 809
SWIDTH 0 0
DWIDTH 0 0
BBX 1 2 -4 -3
BITMAP
80
80
ENDCHAR
STARTCHAR 032A
ENCODING 810
SWIDTH 0 0
DWIDTH 0 0
BBX 3 2 -5 -3
BITMAP
E0
A0
ENDCHAR
STARTCHAR 032B
ENCODING 811
SWIDTH 0 0
DWIDTH 0 0
BBX 5 2 -6 -2
BITMAP
A8
50
ENDCHAR
STARTCHAR 032C
ENCODING 812
SWIDTH 0 0
DWIDTH 0 0
BBX 3 2 -5 -3
BITMAP
A0
60
ENDCHAR
STARTCHAR 032D
ENCODING 813
SWIDTH 0 0
DWIDTH 0 0
BBX 3 2 -5 -3
BITMAP
60
A0
ENDCHAR
STARTCHAR 032E
ENCODING 814
SWIDTH 0 0
DWIDTH 0 0
BBX 3 2 -5 -3
BITMAP
A0
E0
ENDCHAR
STARTCHAR 032F
ENCODING 815
SWIDTH 0 0
DWIDTH 0 0
BBX 3 2 -5 -3
BITMAP
E0
A0
ENDCHAR
STARTCHAR 0330
ENCODING 816
SWIDTH 0 0
DWIDTH 0 0
BBX 3 2 -5 -2
BITMAP
E0
A0
ENDCHAR
STARTCHAR 0331
ENCODING 817
SWIDTH 0 0
DWIDTH 0 0
BBX 3 1 -5 -2
BITMAP
E0
ENDCHAR
STARTCHAR 0332
ENCODING 818
SWIDTH 0 0
DWIDTH 0 0
BBX 7 1 -7 -3
BITMAP
FE
ENDCHAR
STARTCHAR 0333
ENCODING 819
SWIDTH 0 0
DWIDTH 0 0
BBX 7 3 -7 -5
BITMAP
FE
00
FE
ENDCHAR
STARTCHAR 0334
ENCODING 820
SWIDTH 0 0
DWIDTH 0 0
BBX 5 2 -6 2
BITMAP
E0
98
ENDCHAR
STARTCHAR 0335
ENCODING 821
SWIDTH 0 0
DWIDTH 0 0
BBX 5 1 -6 3
BITMAP
F8
ENDCHAR
STARTCHAR 0336
ENCODING 822
SWIDTH 0 0
DWIDTH 0 0
BBX 7 1 -7 3
BITMAP
FE
ENDCHAR
STARTCHAR 0337
ENCODING 823
SWIDTH 0 0
DWIDTH 0 0
BBX 6 6 -6 0
BITMAP
04
08
10
20
40
80
ENDCHAR
STARTCHAR 0338
ENCODING 824
SWIDTH 0 0
DWIDTH 0 0
BBX 5 10 -6 -1
BITMAP
08
08
10
10
20
20
40
40
80
80
ENDCHAR
STARTCHAR 0339
ENCODING 825
SWIDTH 0 0
DWIDTH 0 0
BBX 1 2 -4 -3
BITMAP
80
80
ENDCHAR
STARTCHAR 033A
ENCODING 826
SWIDTH 0 0
DWIDTH 0 0
BBX 3 2 -5 -3
BITMAP
A0
E0
ENDCHAR
STARTCHAR 033B
ENCODING 827
SWIDTH 0 0
DWIDTH 0 0
BBX 3 2 -5 -3
BITMAP
E0
E0
ENDCHAR
STARTCHAR 033C
ENCODING 828
SWIDTH 0 0
DWIDTH 0 0
BBX 5 2 -6 -3
BITMAP
50
A8
ENDCHAR
STARTCHAR 033D
ENCODING 829
SWIDTH 0 0
DWIDTH 0 0
BBX 3 2 -5 7
BITMAP
A0
E0
ENDCHAR
STARTCHAR 033E
ENCODING 830
SWIDTH 0 0
DWIDTH 0 0
BBX 1 2 -4 7
BITMAP
80
80
ENDCHAR
STARTCHAR 033F
ENCODING 831
SWIDTH 0 0
DWIDTH 0 0
BBX 7 3 -7 9
BITMAP
FE
00
FE
ENDCHAR
STARTCHAR 0340
ENCODING 832
SWIDTH 0 0
DWIDTH 0 0
BBX 1 2 -6 10
BITMAP
80
80
ENDCHAR
STARTCHAR 0341
ENCODING 833
SWIDTH 0 0
DWIDTH 0 0
BBX 2 2 -2 10
BITMAP
C0
80
ENDCHAR
STARTCHAR 0344
ENCODING 836
SWIDTH 0 0
DWIDTH 0 0
BBX 5 2 -6 7
BITMAP
20
A8
ENDCHAR
STARTCHAR 0345
ENCODING 837
SWIDTH 0 0
DWIDTH 0 0
BBX 1 2 -3 -2
BITMAP
80
80
ENDCHAR
STARTCHAR 0374
ENCODING 884
SWIDTH 360 0
DWIDTH 4 0
BBX 2 3 1 5
BITMAP
40
80
80
ENDCHAR
STARTCHAR 0375
ENCODING 885
SWIDTH 360 0
DWIDTH 4 0
BBX 2 3 1 0
BITMAP
40
80
80
ENDCHAR
STARTCHAR 037A
ENCODING 890
SWIDTH 630 0
DWIDTH 7 0
BBX 2 2 3 -2
BITMAP
80
C0
ENDCHAR
STARTCHAR 037E
ENCODING 894
SWIDTH 270 0
DWIDTH 3 0
BBX 1 8 1 -2
BITMAP
80
00
00
00
00
80
80
80
ENDCHAR
STARTCHAR 0384
ENCODING 900
SWIDTH 630 0
DWIDTH 7 0
BBX 1 2 3 6
BITMAP
80
80
ENDCHAR
STARTCHAR 0385
ENCODING 901
SWIDTH 630 0
DWIDTH 7 0
BBX 5 2 1 7
BITMAP
20
A8
ENDCHAR
STARTCHAR 0386
ENCODING 902
SWIDTH 720 0
DWIDTH 8 0
BBX 7 8 0 0
BITMAP
58
58
28
2C
64
7C
42
82
ENDCHAR
STARTCHAR 0388
ENCODING 904
SWIDTH 630 0
DWIDTH 7 0
BBX 7 8 0 0
BITMAP
BE
A0
20
3C
20
20
20
3E
ENDCHAR
STARTCHAR 0389
ENCODING 905
SWIDTH 810 0
DWIDTH 9 0
BBX 8 8 0 0
BITMAP
A1
A1
21
3F
21
21
21
21
ENDCHAR
STARTCHAR 038A
ENCODING 906
SWIDTH 360 0
DWIDTH 4 0
BBX 3 8 0 0
BITMAP
A0
A0
20
20
20
20
20
20
ENDCHAR
STARTCHAR 038C
ENCODING 908
SWIDTH 810 0
DWIDTH 9 0
BBX 9 8 0 0
BITMAP
9E00
B100
2180
2080
2080
2180
3100
1E00
ENDCHAR
STARTCHAR 038E
ENCODING 910
SWIDTH 810 0
DWIDTH 9 0
BBX 9 8 0 0
BITMAP
B080
9900
0A00
0400
0400
0400
0400
0400
ENDCHAR
STARTCHAR 038F
ENCODING 911
SWIDTH 900 0
DWIDTH 10 0
BBX 9 8 0 0
BITMAP
9E00
B100
2080
2080
2080
2100
1100
7B80
ENDCHAR
STARTCHAR 0390
ENCODING 912
SWIDTH 360 0
DWIDTH 4 0
BBX 5 9 -1 0
BITMAP
20
A8
00
20
20
20
20
20
38
ENDCHAR
STARTCHAR 0391
ENCODING 913
SWIDTH 720 0
DWIDTH 8 0
BBX 7 8 0 0
BITMAP
18
18
28
2C
64
7C
42
82
ENDCHAR
STARTCHAR 0392
ENCODING 914
SWIDTH 540 0
DWIDTH 6 0
BBX 5 8 1 0
BITMAP
F0
98
90
E0
90
88
98
F0
ENDCHAR
STARTCHAR 0393
ENCODING 915
SWIDTH 540 0
DWIDTH 6 0
BBX 4 8 1 0
BITMAP
F0
80
80
80
80
80
80
80
ENDCHAR
STARTCHAR 0394
ENCODING 916
SWIDTH 720 0
DWIDTH 8 0
BBX 7 8 0 0
BITMAP
18
18
28
24
44
42
82
FE
ENDCHAR
STARTCHAR 0395
ENCODING 917
SWIDTH 540 0
DWIDTH 6 0
BBX 5 8 1 0
BITMAP
F0
80
80
F0
80
80
80
F8
ENDCHAR
STARTCHAR 0396
ENCODING 918
SWIDTH 630 0
DWIDTH 7 0
BBX 5 8 1 0
BITMAP
F8
18
10
20
60
40
80
F8
ENDCHAR
STARTCHAR 0397
ENCODING 919
SWIDTH 720 0
DWIDTH 8 0
BBX 6 8 1 0
BITMAP
84
84
84
FC
84
84
84
84
ENDCHAR
STARTCHAR 0398
ENCODING 920
SWIDTH 810 0
DWIDTH 9 0
BBX 7 8 1 0
BITMAP
78
C4
82
BA
82
82
C4
78
ENDCHAR
STARTCHAR 0399
ENCODING 921
SWIDTH 270 0
DWIDTH 3 0
BBX 1 8 1 0
BITMAP
80
80
80
80
80
80
80
80
ENDCHAR
STARTCHAR 039A
ENCODING 922
SWIDTH 630 0
DWIDTH 7 0
BBX 6 8 1 0
BITMAP
88
90
A0
E0
A0
B0
98
8C
ENDCHAR
STARTCHAR 039B
ENCODING 923
SWIDTH 630 0
DWIDTH 7 0
BBX 7 8 0 0
BITMAP
10
38
28
28
44
44
44
82
ENDCHAR
STARTCHAR 039C
ENCODING 924
SWIDTH 810 0
DWIDTH 9 0
BBX 7 8 1 0
BITMAP
C2
C6
E6
A6
AA
9A
92
82
ENDCHAR
STARTCHAR 039D
ENCODING 925
SWIDTH 720 0
DWIDTH 8 0
BBX 6 8 1 0
BITMAP
84
C4
A4
A4
94
94
8C
84
ENDCHAR
STARTCHAR 039E
ENCODING 926
SWIDTH 630 0
DWIDTH 7 0
BBX 7 8 0 0
BITMAP
FC
00
00
7C
00
00
00
FE
ENDCHAR
STARTCHAR 039F
ENCODING 927
SWIDTH 810 0
DWIDTH 9 0
BBX 7 8 1 0
BITMAP
78
C4
82
82
82
82
C4
78
ENDCHAR
STARTCHAR 03A0
ENCODING 928
SWIDTH 720 0
DWIDTH 8 0
BBX 8 8 0 0
BITMAP
FF
42
42
42
42
42
42
42
ENDCHAR
STARTCHAR 03A1
ENCODING 929
SWIDTH 540 0
DWIDTH 6 0
BBX 5 8 1 0
BITMAP
F0
98
88
98
F0
80
80
80
ENDCHAR
STARTCHAR 03A3
ENCODING 931
SWIDTH 630 0
DWIDTH 7 0
BBX 6 8 0 0
BITMAP
7C
60
30
10
10
20
40
FC
ENDCHAR
STARTCHAR 03A4
ENCODING 932
SWIDTH 630 0
DWIDTH 7 0
BBX 7 8 0 0
BITMAP
FE
10
10
10
10
10
10
10
ENDCHAR
STARTCHAR 03A5
ENCODING 933
SWIDTH 630 0
DWIDTH 7 0
BBX 7 8 0 0
BITMAP
C2
64
28
10
10
10
10
10
ENDCHAR
STARTCHAR 03A6
ENCODING 934
SWIDTH 720 0
DWIDTH 8 0
BBX 7 8 0 0
BITMAP
10
38
76
D2
D2
76
38
10
ENDCHAR
STARTCHAR 03A7
ENCODING 935
SWIDTH 630 0
DWIDTH 7 0
BBX 6 8 0 0
BITMAP
44
4C
28
30
30
28
4C
84
ENDCHAR
STARTCHAR 03A8
ENCODING 936
SWIDTH 720 0
DWIDTH 8 0
BBX 8 8 0 0
BITMAP
DB
5A
5A
5A
3C
18
18
18
ENDCHAR
STARTCHAR 03A9
ENCODING 937
SWIDTH 810 0
DWIDTH 9 0
BBX 8 8 0 0
BITMAP
3C
62
41
41
41
43
22
F7
ENDCHAR
STARTCHAR 03AA
ENCODING 938
SWIDTH 270 0
DWIDTH 3 0
BBX 3 10 0 0
BITMAP
A0
00
40
40
40
40
40
40
40
40
ENDCHAR
STARTCHAR 03AB
ENCODING 939
SWIDTH 630 0
DWIDTH 7 0
BBX 7 10 0 0
BITMAP
28
00
C2
64
28
10
10
10
10
10
ENDCHAR
STARTCHAR 03AC
ENCODING 940
SWIDTH 720 0
DWIDTH 8 0
BBX 6 9 1 0
BITMAP
10
10
00
64
94
98
88
98
E4
ENDCHAR
STARTCHAR 03AD
ENCODING 941
SWIDTH 540 0
DWIDTH 6 0
BBX 4 9 1 0
BITMAP
20
20
00
70
80
F0
80
80
70
ENDCHAR
STARTCHAR 03AE
ENCODING 942
SWIDTH 630 0
DWIDTH 7 0
BBX 5 11 1 -2
BITMAP
20
20
00
B0
C8
88
88
88
88
08
08
ENDCHAR
STARTCHAR 03AF
ENCODING 943
SWIDTH 360 0
DWIDTH 4 0
BBX 3 9 1 0
BITMAP
80
80
00
80
80
80
80
80
E0
ENDCHAR
STARTCHAR 03B0
ENCODING 944
SWIDTH 630 0
DWIDTH 7 0
BBX 5 9 1 0
BITMAP
20
B0
00
90
88
88
88
98
70
ENDCHAR
STARTCHAR 03B1
ENCODING 945
SWIDTH 720 0
DWIDTH 8 0
BBX 6 6 1 0
BITMAP
64
94
98
88
98
E4
ENDCHAR
STARTCHAR 03B2
ENCODING 946
SWIDTH 630 0
DWIDTH 7 0
BBX 5 10 1 -2
BITMAP
70
90
90
B0
98
88
88
F0
80
80
ENDCHAR
STARTCHAR 03B3
ENCODING 947
SWIDTH 540 0
DWIDTH 6 0
BBX 6 8 0 -2
BITMAP
C4
48
28
30
30
30
30
30
ENDCHAR
STARTCHAR 03B4
ENCODING 948
SWIDTH 630 0
DWIDTH 7 0
BBX 5 8 1 0
BITMAP
F0
80
40
70
88
88
98
70
ENDCHAR
STARTCHAR 03B5
ENCODING 949
SWIDTH 540 0
DWIDTH 6 0
BBX 4 6 1 0
BITMAP
70
80
F0
80
80
70
ENDCHAR
STARTCHAR 03B6
ENCODING 950
SWIDTH 630 0
DWIDTH 7 0
BBX 7 10 0 -2
BITMAP
0E
FC
20
20
40
40
60
3E
02
0C
ENDCHAR
STARTCHAR 03B7
ENCODING 951
SWIDTH 630 0
DWIDTH 7 0
BBX 5 8 1 -2
BITMAP
B0
C8
88
88
88
88
08
08
ENDCHAR
STARTCHAR 03B8
ENCODING 952
SWIDTH 630 0
DWIDTH 7 0
BBX 5 8 1 0
BITMAP
70
98
88
88
F8
88
98
70
ENDCHAR
STARTCHAR 03B9
ENCODING 953
SWIDTH 360 0
DWIDTH 4 0
BBX 3 6 1 0
BITMAP
80
80
80
80
80
E0
ENDCHAR
STARTCHAR 03BA
ENCODING 954
SWIDTH 540 0
DWIDTH 6 0
BBX 4 6 1 0
BITMAP
90
A0
C0
A0
B0
90
ENDCHAR
STARTCHAR 03BB
ENCODING 955
SWIDTH 630 0
DWIDTH 7 0
BBX 6 8 0 0
BITMAP
60
20
30
30
38
48
48
C4
ENDCHAR
STARTCHAR 03BC
ENCODING 956
SWIDTH 630 0
DWIDTH 7 0
BBX 5 8 1 -2
BITMAP
88
88
88
88
98
E8
80
80
ENDCHAR
STARTCHAR 03BD
ENCODING 957
SWIDTH 540 0
DWIDTH 6 0
BBX 6 6 0 0
BITMAP
84
48
48
28
30
30
ENDCHAR
STARTCHAR 03BE
ENCODING 958
SWIDTH 540 0
DWIDTH 6 0
BBX 6 11 0 -2
BITMAP
F8
40
40
20
38
40
40
40
3C
04
1C
ENDCHAR
STARTCHAR 03BF
ENCODING 959
SWIDTH 630 0
DWIDTH 7 0
BBX 5 6 1 0
BITMAP
70
88
88
88
88
70
ENDCHAR
STARTCHAR 03C0
ENCODING 960
SWIDTH 810 0
DWIDTH 9 0
BBX 8 6 0 0
BITMAP
FF
22
22
22
22
22
ENDCHAR
STARTCHAR 03C1
ENCODING 961
SWIDTH 630 0
DWIDTH 7 0
BBX 5 8 1 -2
BITMAP
70
C8
88
88
98
F0
80
80
ENDCHAR
STARTCHAR 03C2
ENCODING 962
SWIDTH 540 0
DWIDTH 6 0
BBX 5 8 1 -2
BITMAP
78
C0
80
80
80
78
08
38
ENDCHAR
STARTCHAR 03C3
ENCODING 963
SWIDTH 630 0
DWIDTH 7 0
BBX 7 6 1 0
BITMAP
7E
88
88
88
88
70
ENDCHAR
STARTCHAR 03C4
ENCODING 964
SWIDTH 540 0
DWIDTH 6 0
BBX 6 6 0 0
BITMAP
FC
20
20
20
20
10
ENDCHAR
STARTCHAR 03C5
ENCODING 965
SWIDTH 630 0
DWIDTH 7 0
BBX 5 6 1 0
BITMAP
90
88
88
88
98
70
ENDCHAR
STARTCHAR 03C6
ENCODING 966
SWIDTH 720 0
DWIDTH 8 0
BBX 7 10 1 -2
BITMAP
10
10
10
7C
96
92
96
7C
10
10
ENDCHAR
STARTCHAR 03C7
ENCODING 967
SWIDTH 540 0
DWIDTH 6 0
BBX 6 8 0 -2
BITMAP
C8
48
30
30
30
50
48
8C
ENDCHAR
STARTCHAR 03C8
ENCODING 968
SWIDTH 810 0
DWIDTH 9 0
BBX 7 9 1 -2
BITMAP
10
92
92
92
92
92
7C
10
10
ENDCHAR
STARTCHAR 03C9
ENCODING 969
SWIDTH 900 0
DWIDTH 10 0
BBX 8 6 1 0
BITMAP
81
99
99
91
99
66
ENDCHAR
STARTCHAR 03CA
ENCODING 970
SWIDTH 360 0
DWIDTH 4 0
BBX 4 8 0 0
BITMAP
A0
00
40
40
40
40
40
70
ENDCHAR
STARTCHAR 03CB
ENCODING 971
SWIDTH 630 0
DWIDTH 7 0
BBX 5 8 1 0
BITMAP
50
00
90
88
88
88
98
70
ENDCHAR
STARTCHAR 03CC
ENCODING 972
SWIDTH 630 0
DWIDTH 7 0
BBX 5 9 1 0
BITMAP
20
20
00
70
88
88
88
88
70
ENDCHAR
STARTCHAR 03CD
ENCODING 973
SWIDTH 630 0
DWIDTH 7 0
BBX 5 9 1 0
BITMAP
20
20
00
90
88
88
88
98
70
ENDCHAR
STARTCHAR 03CE
ENCODING 974
SWIDTH 900 0
DWIDTH 10 0
BBX 8 9 1 0
BITMAP
10
10
00
81
99
99
91
99
66
ENDCHAR
STARTCHAR 03D0
ENCODING 976
SWIDTH 540 0
DWIDTH 6 0
BBX 4 8 1 0
BITMAP
70
90
F0
80
F0
90
90
60
ENDCHAR
STARTCHAR 03D1
ENCODING 977
SWIDTH 630 0
DWIDTH 7 0
BBX 6 8 1 0
BITMAP
60
90
90
FC
10
10
90
E0
ENDCHAR
STARTCHAR 03D2
ENCODING 978
SWIDTH 630 0
DWIDTH 7 0
BBX 6 8 1 0
BITMAP
8C
50
50
20
20
20
20
20
ENDCHAR
STARTCHAR 03D3
ENCODING 979
SWIDTH 810 0
DWIDTH 9 0
BBX 9 8 0 0
BITMAP
9180
9A00
0C00
0C00
0400
0400
0400
0400
ENDCHAR
STARTCHAR 03D4
ENCODING 980
SWIDTH 630 0
DWIDTH 7 0
BBX 6 10 1 0
BITMAP
50
00
8C
50
50
20
20
20
20
20
ENDCHAR
STARTCHAR 03D5
ENCODING 981
SWIDTH 810 0
DWIDTH 9 0
BBX 8 8 1 -2
BITMAP
EE
9B
91
91
D2
7C
10
10
ENDCHAR
STARTCHAR 03D6
ENCODING 982
SWIDTH 900 0
DWIDTH 10 0
BBX 9 6 0 0
BITMAP
FF80
4180
4880
4C80
4D80
3700
ENDCHAR
STARTCHAR 03DA
ENCODING 986
SWIDTH 630 0
DWIDTH 7 0
BBX 6 10 1 -2
BITMAP
3C
40
80
80
80
80
80
7C
04
1C
ENDCHAR
STARTCHAR 03DC
ENCODING 988
SWIDTH 540 0
DWIDTH 6 0
BBX 4 8 1 0
BITMAP
F0
80
80
80
F0
80
80
80
ENDCHAR
STARTCHAR 03DE
ENCODING 990
SWIDTH 540 0
DWIDTH 6 0
BBX 5 8 1 0
BITMAP
40
80
80
F8
10
10
10
20
ENDCHAR
STARTCHAR 03E0
ENCODING 992
SWIDTH 630 0
DWIDTH 7 0
BBX 6 8 0 0
BITMAP
E0
30
18
64
4C
14
24
04
ENDCHAR
STARTCHAR 03EE
ENCODING 1006
SWIDTH 630 0
DWIDTH 7 0
BBX 7 8 0 0
BITMAP
10
FE
10
10
10
10
10
10
ENDCHAR
STARTCHAR 03EF
ENCODING 1007
SWIDTH 540 0
DWIDTH 6 0
BBX 6 10 0 -2
BITMAP
30
30
FC
30
30
30
30
30
30
30
ENDCHAR
STARTCHAR 03F0
ENCODING 1008
SWIDTH 540 0
DWIDTH 6 0
BBX 6 6 0 0
BITMAP
C8
48
50
30
50
4C
ENDCHAR
STARTCHAR 03F1
ENCODING 1009
SWIDTH 630 0
DWIDTH 7 0
BBX 5 8 1 -2
BITMAP
70
98
88
88
90
F0
80
78
ENDCHAR
STARTCHAR 03F2
ENCODING 1010
SWIDTH 540 0
DWIDTH 6 0
BBX 4 6 1 0
BITMAP
70
80
80
80
80
70
ENDCHAR
STARTCHAR 0401
ENCODING 1025
SWIDTH 540 0
DWIDTH 6 0
BBX 5 10 1 0
BITMAP
50
00
F0
80
80
F0
80
80
80
F8
ENDCHAR
STARTCHAR 0402
ENCODING 1026
SWIDTH 810 0
DWIDTH 9 0
BBX 8 8 0 0
BITMAP
FE
10
10
1E
11
11
11
16
ENDCHAR
STARTCHAR 0403
ENCODING 1027
SWIDTH 540 0
DWIDTH 6 0
BBX 4 11 1 0
BITMAP
20
40
00
F0
80
80
80
80
80
80
80
ENDCHAR
STARTCHAR 0404
ENCODING 1028
SWIDTH 630 0
DWIDTH 7 0
BBX 5 8 1 0
BITMAP
78
C0
80
F0
80
80
C0
78
ENDCHAR
STARTCHAR 0405
ENCODING 1029
SWIDTH 540 0
DWIDTH 6 0
BBX 4 8 1 0
BITMAP
F0
80
80
C0
30
10
10
E0
ENDCHAR
STARTCHAR 0406
ENCODING 1030
SWIDTH 270 0
DWIDTH 3 0
BBX 1 8 1 0
BITMAP
80
80
80
80
80
80
80
80
ENDCHAR
STARTCHAR 0407
ENCODING 1031
SWIDTH 270 0
DWIDTH 3 0
BBX 3 10 0 0
BITMAP
A0
00
40
40
40
40
40
40
40
40
ENDCHAR
STARTCHAR 0408
ENCODING 1032
SWIDTH 270 0
DWIDTH 3 0
BBX 3 10 -1 -2
BITMAP
20
20
20
20
20
20
20
20
20
E0
ENDCHAR
STARTCHAR 0409
ENCODING 1033
SWIDTH 990 0
DWIDTH 11 0
BBX 10 8 0 0
BITMAP
3E00
2200
2200
23C0
2240
2240
6240
C380
ENDCHAR
STARTCHAR 040A
ENCODING 1034
SWIDTH 990 0
DWIDTH 11 0
BBX 9 8 1 0
BITMAP
8C00
8C00
8C00
FF00
8C80
8C80
8C80
8F00
ENDCHAR
STARTCHAR 040B
ENCODING 1035
SWIDTH 720 0
DWIDTH 8 0
BBX 8 8 0 0
BITMAP
FC
30
30
3E
33
31
31
31
ENDCHAR
STARTCHAR 040C
ENCODING 1036
SWIDTH 630 0
DWIDTH 7 0
BBX 5 11 1 0
BITMAP
10
20
00
88
90
A0
E0
B0
90
90
88
ENDCHAR
STARTCHAR 040E
ENCODING 1038
SWIDTH 630 0
DWIDTH 7 0
BBX 6 11 1 0
BITMAP
50
30
00
84
88
48
50
30
20
60
C0
ENDCHAR
STARTCHAR 040F
ENCODING 1039
SWIDTH 720 0
DWIDTH 8 0
BBX 6 10 1 -2
BITMAP
84
84
84
84
84
84
84
FC
10
10
ENDCHAR
STARTCHAR 0410
ENCODING 1040
SWIDTH 720 0
DWIDTH 8 0
BBX 7 8 0 0
BITMAP
18
18
28
2C
64
7C
42
82
ENDCHAR
STARTCHAR 0411
ENCODING 1041
SWIDTH 540 0
DWIDTH 6 0
BBX 5 8 1 0
BITMAP
F0
80
80
F0
98
88
98
F0
ENDCHAR
STARTCHAR 0412
ENCODING 1042
SWIDTH 540 0
DWIDTH 6 0
BBX 5 8 1 0
BITMAP
F0
98
90
E0
90
88
98
F0
ENDCHAR
STARTCHAR 0413
ENCODING 1043
SWIDTH 540 0
DWIDTH 6 0
BBX 4 8 1 0
BITMAP
F0
80
80
80
80
80
80
80
ENDCHAR
STARTCHAR 0414
ENCODING 1044
SWIDTH 720 0
DWIDTH 8 0
BBX 8 10 0 -2
BITMAP
1E
12
12
32
22
22
62
FF
C1
C1
ENDCHAR
STARTCHAR 0415
ENCODING 1045
SWIDTH 540 0
DWIDTH 6 0
BBX 5 8 1 0
BITMAP
F0
80
80
F0
80
80
80
F8
ENDCHAR
STARTCHAR 0416
ENCODING 1046
SWIDTH 810 0
DWIDTH 9 0
BBX 7 8 1 0
BITMAP
92
D6
54
38
54
92
92
92
ENDCHAR
STARTCHAR 0417
ENCODING 1047
SWIDTH 540 0
DWIDTH 6 0
BBX 5 8 0 0
BITMAP
78
88
08
30
08
08
88
70
ENDCHAR
STARTCHAR 0418
ENCODING 1048
SWIDTH 720 0
DWIDTH 8 0
BBX 6 8 1 0
BITMAP
84
8C
94
94
A4
A4
C4
84
ENDCHAR
STARTCHAR 0419
ENCODING 1049
SWIDTH 720 0
DWIDTH 8 0
BBX 6 11 1 0
BITMAP
48
30
00
84
8C
94
94
A4
A4
C4
84
ENDCHAR
STARTCHAR 041A
ENCODING 1050
SWIDTH 630 0
DWIDTH 7 0
BBX 5 8 1 0
BITMAP
88
90
A0
E0
B0
90
90
88
ENDCHAR
STARTCHAR 041B
ENCODING 1051
SWIDTH 720 0
DWIDTH 8 0
BBX 7 8 0 0
BITMAP
3E
22
22
22
22
22
62
C2
ENDCHAR
STARTCHAR 041C
ENCODING 1052
SWIDTH 810 0
DWIDTH 9 0
BBX 7 8 1 0
BITMAP
C2
C6
E6
A6
AA
9A
92
82
ENDCHAR
STARTCHAR 041D
ENCODING 1053
SWIDTH 720 0
DWIDTH 8 0
BBX 6 8 1 0
BITMAP
84
84
84
FC
84
84
84
84
ENDCHAR
STARTCHAR 041E
ENCODING 1054
SWIDTH 810 0
DWIDTH 9 0
BBX 7 8 1 0
BITMAP
78
C4
82
82
82
82
C4
78
ENDCHAR
STARTCHAR 041F
ENCODING 1055
SWIDTH 720 0
DWIDTH 8 0
BBX 6 8 1 0
BITMAP
FC
84
84
84
84
84
84
84
ENDCHAR
STARTCHAR 0420
ENCODING 1056
SWIDTH 540 0
DWIDTH 6 0
BBX 5 8 1 0
BITMAP
F0
98
88
98
F0
80
80
80
ENDCHAR
STARTCHAR 0421
ENCODING 1057
SWIDTH 720 0
DWIDTH 8 0
BBX 6 8 1 0
BITMAP
78
C4
80
80
80
80
C4
78
ENDCHAR
STARTCHAR 0422
ENCODING 1058
SWIDTH 630 0
DWIDTH 7 0
BBX 7 8 0 0
BITMAP
FE
10
10
10
10
10
10
10
ENDCHAR
STARTCHAR 0423
ENCODING 1059
SWIDTH 630 0
DWIDTH 7 0
BBX 6 8 1 0
BITMAP
84
88
48
50
30
20
60
C0
ENDCHAR
STARTCHAR 0424
ENCODING 1060
SWIDTH 720 0
DWIDTH 8 0
BBX 7 8 0 0
BITMAP
10
38
76
D2
D2
76
38
10
ENDCHAR
STARTCHAR 0425
ENCODING 1061
SWIDTH 630 0
DWIDTH 7 0
BBX 6 8 0 0
BITMAP
44
4C
28
30
30
28
4C
84
ENDCHAR
STARTCHAR 0426
ENCODING 1062
SWIDTH 720 0
DWIDTH 8 0
BBX 7 10 1 -2
BITMAP
84
84
84
84
84
84
84
FE
02
02
ENDCHAR
STARTCHAR 0427
ENCODING 1063
SWIDTH 630 0
DWIDTH 7 0
BBX 6 8 0 0
BITMAP
C4
C4
C4
4C
34
04
04
04
ENDCHAR
STARTCHAR 0428
ENCODING 1064
SWIDTH 900 0
DWIDTH 10 0
BBX 8 8 1 0
BITMAP
89
89
89
89
89
89
89
FF
ENDCHAR
STARTCHAR 0429
ENCODING 1065
SWIDTH 990 0
DWIDTH 11 0
BBX 10 10 1 -2
BITMAP
8900
8900
8900
8900
8900
8900
8900
FFC0
00C0
00C0
ENDCHAR
STARTCHAR 042A
ENCODING 1066
SWIDTH 630 0
DWIDTH 7 0
BBX 7 8 0 0
BITMAP
E0
20
20
3C
22
22
22
3C
ENDCHAR
STARTCHAR 042B
ENCODING 1067
SWIDTH 810 0
DWIDTH 9 0
BBX 7 8 1 0
BITMAP
82
82
82
F2
9A
8A
9A
F2
ENDCHAR
STARTCHAR 042C
ENCODING 1068
SWIDTH 540 0
DWIDTH 6 0
BBX 5 8 1 0
BITMAP
80
80
80
F0
98
88
98
F0
ENDCHAR
STARTCHAR 042D
ENCODING 1069
SWIDTH 630 0
DWIDTH 7 0
BBX 6 8 0 0
BITMAP
78
08
04
3C
04
04
08
F0
ENDCHAR
STARTCHAR 042E
ENCODING 1070
SWIDTH 990 0
DWIDTH 11 0
BBX 9 8 1 0
BITMAP
8E00
9100
9080
B080
F080
B080
9100
8E00
ENDCHAR
STARTCHAR 042F
ENCODING 1071
SWIDTH 630 0
DWIDTH 7 0
BBX 5 8 1 0
BITMAP
78
C8
88
48
38
48
C8
88
ENDCHAR
STARTCHAR 0430
ENCODING 1072
SWIDTH 540 0
DWIDTH 6 0
BBX 5 6 1 0
BITMAP
F0
10
F0
90
90
F8
ENDCHAR
STARTCHAR 0431
ENCODING 1073
SWIDTH 630 0
DWIDTH 7 0
BBX 5 8 1 0
BITMAP
70
80
F0
88
88
88
98
70
ENDCHAR
STARTCHAR 0432
ENCODING 1074
SWIDTH 540 0
DWIDTH 6 0
BBX 4 6 1 0
BITMAP
F0
90
E0
90
90
F0
ENDCHAR
STARTCHAR 0433
ENCODING 1075
SWIDTH 450 0
DWIDTH 5 0
BBX 4 6 1 0
BITMAP
F0
80
80
80
80
80
ENDCHAR
STARTCHAR 0434
ENCODING 1076
SWIDTH 630 0
DWIDTH 7 0
BBX 7 7 0 -1
BITMAP
3C
24
24
24
44
FE
82
ENDCHAR
STARTCHAR 0435
ENCODING 1077
SWIDTH 540 0
DWIDTH 6 0
BBX 4 6 1 0
BITMAP
70
90
F0
80
80
70
ENDCHAR
STARTCHAR 0436
ENCODING 1078
SWIDTH 720 0
DWIDTH 8 0
BBX 6 6 1 0
BITMAP
B4
B4
78
78
B4
B4
ENDCHAR
STARTCHAR 0437
ENCODING 1079
SWIDTH 450 0
DWIDTH 5 0
BBX 5 6 0 0
BITMAP
70
10
20
18
98
70
ENDCHAR
STARTCHAR 0438
ENCODING 1080
SWIDTH 630 0
DWIDTH 7 0
BBX 5 6 1 0
BITMAP
98
98
A8
A8
C8
88
ENDCHAR
STARTCHAR 0439
ENCODING 1081
SWIDTH 630 0
DWIDTH 7 0
BBX 5 9 1 0
BITMAP
50
70
00
98
98
A8
A8
C8
88
ENDCHAR
STARTCHAR 043A
ENCODING 1082
SWIDTH 540 0
DWIDTH 6 0
BBX 4 6 1 0
BITMAP
90
A0
A0
C0
A0
90
ENDCHAR
STARTCHAR 043B
ENCODING 1083
SWIDTH 540 0
DWIDTH 6 0
BBX 5 6 0 0
BITMAP
38
28
28
48
48
C8
ENDCHAR
STARTCHAR 043C
ENCODING 1084
SWIDTH 720 0
DWIDTH 8 0
BBX 6 6 1 0
BITMAP
84
CC
CC
D4
B4
A4
ENDCHAR
STARTCHAR 043D
ENCODING 1085
SWIDTH 630 0
DWIDTH 7 0
BBX 5 6 1 0
BITMAP
88
88
F8
88
88
88
ENDCHAR
STARTCHAR 043E
ENCODING 1086
SWIDTH 630 0
DWIDTH 7 0
BBX 5 6 1 0
BITMAP
70
88
88
88
88
70
ENDCHAR
STARTCHAR 043F
ENCODING 1087
SWIDTH 630 0
DWIDTH 7 0
BBX 5 6 1 0
BITMAP
F8
88
88
88
88
88
ENDCHAR
STARTCHAR 0440
ENCODING 1088
SWIDTH 630 0
DWIDTH 7 0
BBX 5 8 1 -2
BITMAP
B0
C8
88
88
88
F0
80
80
ENDCHAR
STARTCHAR 0441
ENCODING 1089
SWIDTH 540 0
DWIDTH 6 0
BBX 4 6 1 0
BITMAP
70
80
80
80
80
70
ENDCHAR
STARTCHAR 0442
ENCODING 1090
SWIDTH 450 0
DWIDTH 5 0
BBX 5 6 0 0
BITMAP
F8
20
20
20
20
20
ENDCHAR
STARTCHAR 0443
ENCODING 1091
SWIDTH 540 0
DWIDTH 6 0
BBX 5 8 0 -2
BITMAP
88
48
48
30
30
30
20
C0
ENDCHAR
STARTCHAR 0444
ENCODING 1092
SWIDTH 810 0
DWIDTH 9 0
BBX 7 10 1 -2
BITMAP
10
10
7C
92
92
92
92
7C
10
10
ENDCHAR
STARTCHAR 0445
ENCODING 1093
SWIDTH 630 0
DWIDTH 7 0
BBX 5 6 1 0
BITMAP
88
50
60
60
50
88
ENDCHAR
STARTCHAR 0446
ENCODING 1094
SWIDTH 630 0
DWIDTH 7 0
BBX 6 7 1 -1
BITMAP
88
88
88
88
88
FC
04
ENDCHAR
STARTCHAR 0447
ENCODING 1095
SWIDTH 540 0
DWIDTH 6 0
BBX 5 6 0 0
BITMAP
88
88
48
78
08
08
ENDCHAR
STARTCHAR 0448
ENCODING 1096
SWIDTH 810 0
DWIDTH 9 0
BBX 7 6 1 0
BITMAP
92
92
92
92
92
FE
ENDCHAR
STARTCHAR 0449
ENCODING 1097
SWIDTH 900 0
DWIDTH 10 0
BBX 8 7 1 -1
BITMAP
92
92
92
92
92
FF
01
ENDCHAR
STARTCHAR 044A
ENCODING 1098
SWIDTH 540 0
DWIDTH 6 0
BBX 6 6 0 0
BITMAP
E0
20
38
2C
2C
38
ENDCHAR
STARTCHAR 044B
ENCODING 1099
SWIDTH 720 0
DWIDTH 8 0
BBX 6 6 1 0
BITMAP
84
84
E4
94
94
E4
ENDCHAR
STARTCHAR 044C
ENCODING 1100
SWIDTH 540 0
DWIDTH 6 0
BBX 4 6 1 0
BITMAP
80
80
E0
90
90
E0
ENDCHAR
STARTCHAR 044D
ENCODING 1101
SWIDTH 540 0
DWIDTH 6 0
BBX 5 6 0 0
BITMAP
70
18
08
38
08
F0
ENDCHAR
STARTCHAR 044E
ENCODING 1102
SWIDTH 810 0
DWIDTH 9 0
BBX 7 6 1 0
BITMAP
9C
92
A2
E2
B2
9C
ENDCHAR
STARTCHAR 044F
ENCODING 1103
SWIDTH 540 0
DWIDTH 6 0
BBX 4 6 1 0
BITMAP
F0
B0
B0
70
B0
B0
ENDCHAR
STARTCHAR 0451
ENCODING 1105
SWIDTH 540 0
DWIDTH 6 0
BBX 4 8 1 0
BITMAP
50
00
70
90
F0
80
80
70
ENDCHAR
STARTCHAR 0452
ENCODING 1106
SWIDTH 630 0
DWIDTH 7 0
BBX 6 10 0 -2
BITMAP
40
F0
40
58
64
44
44
44
04
18
ENDCHAR
STARTCHAR 0453
ENCODING 1107
SWIDTH 450 0
DWIDTH 5 0
BBX 4 9 1 0
BITMAP
20
40
00
F0
80
80
80
80
80
ENDCHAR
STARTCHAR 0454
ENCODING 1108
SWIDTH 540 0
DWIDTH 6 0
BBX 4 6 1 0
BITMAP
70
80
E0
80
80
70
ENDCHAR
STARTCHAR 0455
ENCODING 1109
SWIDTH 540 0
DWIDTH 6 0
BBX 4 6 1 0
BITMAP
E0
80
C0
30
10
E0
ENDCHAR
STARTCHAR 0456
ENCODING 1110
SWIDTH 270 0
DWIDTH 3 0
BBX 1 8 1 0
BITMAP
80
00
80
80
80
80
80
80
ENDCHAR
STARTCHAR 0457
ENCODING 1111
SWIDTH 270 0
DWIDTH 3 0
BBX 3 8 0 0
BITMAP
A0
00
40
40
40
40
40
40
ENDCHAR
STARTCHAR 0458
ENCODING 1112
SWIDTH 270 0
DWIDTH 3 0
BBX 3 10 -1 -2
BITMAP
20
00
20
20
20
20
20
20
20
E0
ENDCHAR
STARTCHAR 0459
ENCODING 1113
SWIDTH 810 0
DWIDTH 9 0
BBX 8 6 0 0
BITMAP
38
28
2F
49
49
CF
ENDCHAR
STARTCHAR 045A
ENCODING 1114
SWIDTH 810 0
DWIDTH 9 0
BBX 8 6 1 0
BITMAP
88
88
FE
89
8B
8E
ENDCHAR
STARTCHAR 045B
ENCODING 1115
SWIDTH 630 0
DWIDTH 7 0
BBX 6 8 0 0
BITMAP
40
F0
40
58
64
44
44
44
ENDCHAR
STARTCHAR 045C
ENCODING 1116
SWIDTH 540 0
DWIDTH 6 0
BBX 4 9 1 0
BITMAP
20
40
00
90
A0
A0
C0
A0
90
ENDCHAR
STARTCHAR 045E
ENCODING 1118
SWIDTH 540 0
DWIDTH 6 0
BBX 5 11 0 -2
BITMAP
48
30
00
88
48
48
30
30
30
20
C0
ENDCHAR
STARTCHAR 045F
ENCODING 1119
SWIDTH 630 0
DWIDTH 7 0
BBX 5 7 1 -1
BITMAP
88
88
88
88
88
F8
20
ENDCHAR
STARTCHAR 0462
ENCODING 1122
SWIDTH 630 0
DWIDTH 7 0
BBX 7 8 0 0
BITMAP
20
F8
20
20
3C
22
26
3C
ENDCHAR
STARTCHAR 0463
ENCODING 1123
SWIDTH 540 0
DWIDTH 6 0
BBX 6 8 0 0
BITMAP
20
20
F0
20
20
38
2C
38
ENDCHAR
STARTCHAR 046A
ENCODING 1130
SWIDTH 810 0
DWIDTH 9 0
BBX 7 8 1 0
BITMAP
FE
82
44
28
7C
D4
92
92
ENDCHAR
STARTCHAR 046B
ENCODING 1131
SWIDTH 720 0
DWIDTH 8 0
BBX 6 6 1 0
BITMAP
FC
CC
48
78
AC
A4
ENDCHAR
STARTCHAR 0490
ENCODING 1168
SWIDTH 540 0
DWIDTH 6 0
BBX 4 10 1 0
BITMAP
10
10
F0
80
80
80
80
80
80
80
ENDCHAR
STARTCHAR 0491
ENCODING 1169
SWIDTH 450 0
DWIDTH 5 0
BBX 4 7 1 0
BITMAP
10
F0
80
80
80
80
80
ENDCHAR
STARTCHAR 0492
ENCODING 1170
SWIDTH 540 0
DWIDTH 6 0
BBX 6 8 0 0
BITMAP
7C
40
40
40
F0
40
40
40
ENDCHAR
STARTCHAR 0493
ENCODING 1171
SWIDTH 450 0
DWIDTH 5 0
BBX 5 6 0 0
BITMAP
78
40
40
F0
40
40
ENDCHAR
STARTCHAR 0494
ENCODING 1172
SWIDTH 630 0
DWIDTH 7 0
BBX 5 10 1 -2
BITMAP
F0
80
80
F0
88
88
88
88
08
30
ENDCHAR
STARTCHAR 0495
ENCODING 1173
SWIDTH 540 0
DWIDTH 6 0
BBX 4 8 1 -2
BITMAP
F0
80
F0
90
90
90
10
20
ENDCHAR
STARTCHAR 0496
ENCODING 1174
SWIDTH 900 0
DWIDTH 10 0
BBX 8 10 1 -2
BITMAP
92
D6
54
38
54
92
92
93
01
01
ENDCHAR
STARTCHAR 0497
ENCODING 1175
SWIDTH 810 0
DWIDTH 9 0
BBX 7 7 1 -1
BITMAP
B4
B4
78
78
B4
B6
02
ENDCHAR
STARTCHAR 0498
ENCODING 1176
SWIDTH 540 0
DWIDTH 6 0
BBX 5 11 0 -3
BITMAP
78
88
08
30
08
08
88
70
20
10
20
ENDCHAR
STARTCHAR 0499
ENCODING 1177
SWIDTH 450 0
DWIDTH 5 0
BBX 5 9 0 -3
BITMAP
70
10
20
18
98
70
20
20
60
ENDCHAR
STARTCHAR 049A
ENCODING 1178
SWIDTH 630 0
DWIDTH 7 0
BBX 6 10 1 -2
BITMAP
88
90
A0
E0
B0
90
90
8C
04
04
ENDCHAR
STARTCHAR 049B
ENCODING 1179
SWIDTH 540 0
DWIDTH 6 0
BBX 5 7 1 -1
BITMAP
90
A0
A0
C0
A0
98
08
ENDCHAR
STARTCHAR 049C
ENCODING 1180
SWIDTH 720 0
DWIDTH 8 0
BBX 6 8 1 0
BITMAP
84
88
B8
F0
A8
A8
84
84
ENDCHAR
STARTCHAR 049D
ENCODING 1181
SWIDTH 630 0
DWIDTH 7 0
BBX 6 6 1 0
BITMAP
8C
A8
B0
F0
A8
88
ENDCHAR
STARTCHAR 049E
ENCODING 1182
SWIDTH 630 0
DWIDTH 7 0
BBX 6 8 0 0
BITMAP
44
E8
50
70
58
48
4C
44
ENDCHAR
STARTCHAR 049F
ENCODING 1183
SWIDTH 540 0
DWIDTH 6 0
BBX 5 8 0 0
BITMAP
40
F0
48
50
50
60
50
48
ENDCHAR
STARTCHAR 04A0
ENCODING 1184
SWIDTH 720 0
DWIDTH 8 0
BBX 7 8 0 0
BITMAP
E2
24
28
38
2C
24
26
22
ENDCHAR
STARTCHAR 04A1
ENCODING 1185
SWIDTH 630 0
DWIDTH 7 0
BBX 6 6 0 0
BITMAP
E4
28
28
30
28
2C
ENDCHAR
STARTCHAR 04A2
ENCODING 1186
SWIDTH 720 0
DWIDTH 8 0
BBX 7 10 1 -2
BITMAP
84
84
84
FC
84
84
84
86
02
02
ENDCHAR
STARTCHAR 04A3
ENCODING 1187
SWIDTH 630 0
DWIDTH 7 0
BBX 6 7 1 -1
BITMAP
88
88
F8
88
88
8C
04
ENDCHAR
STARTCHAR 04A4
ENCODING 1188
SWIDTH 810 0
DWIDTH 9 0
BBX 8 8 1 0
BITMAP
87
84
84
FC
84
84
84
84
ENDCHAR
STARTCHAR 04A5
ENCODING 1189
SWIDTH 720 0
DWIDTH 8 0
BBX 6 6 1 0
BITMAP
8C
88
F8
88
88
88
ENDCHAR
STARTCHAR 04A6
ENCODING 1190
SWIDTH 990 0
DWIDTH 11 0
BBX 10 10 1 -2
BITMAP
FC00
8C00
8C00
8F80
8CC0
8C40
8C40
8C40
0080
0300
ENDCHAR
STARTCHAR 04A7
ENCODING 1191
SWIDTH 900 0
DWIDTH 10 0
BBX 8 8 1 -2
BITMAP
F8
88
8E
89
89
89
01
02
ENDCHAR
STARTCHAR 04A8
ENCODING 1192
SWIDTH 810 0
DWIDTH 9 0
BBX 7 9 1 -1
BITMAP
78
C4
8C
92
92
92
CC
78
06
ENDCHAR
STARTCHAR 04A9
ENCODING 1193
SWIDTH 630 0
DWIDTH 7 0
BBX 6 7 1 -1
BITMAP
70
B8
A8
A8
A8
70
0C
ENDCHAR
STARTCHAR 04AA
ENCODING 1194
SWIDTH 720 0
DWIDTH 8 0
BBX 6 11 1 -3
BITMAP
78
C4
80
80
80
80
C4
78
10
10
10
ENDCHAR
STARTCHAR 04AB
ENCODING 1195
SWIDTH 540 0
DWIDTH 6 0
BBX 4 9 1 -3
BITMAP
70
80
80
80
80
70
20
20
20
ENDCHAR
STARTCHAR 04AC
ENCODING 1196
SWIDTH 630 0
DWIDTH 7 0
BBX 7 10 0 -2
BITMAP
FE
10
10
10
10
10
10
18
08
08
ENDCHAR
STARTCHAR 04AD
ENCODING 1197
SWIDTH 450 0
DWIDTH 5 0
BBX 5 7 0 -1
BITMAP
F8
20
20
20
20
30
10
ENDCHAR
STARTCHAR 04AE
ENCODING 1198
SWIDTH 630 0
DWIDTH 7 0
BBX 6 8 0 0
BITMAP
C4
44
28
28
10
10
10
10
ENDCHAR
STARTCHAR 04AF
ENCODING 1199
SWIDTH 450 0
DWIDTH 5 0
BBX 5 6 0 0
BITMAP
C8
50
30
20
20
20
ENDCHAR
STARTCHAR 04B0
ENCODING 1200
SWIDTH 630 0
DWIDTH 7 0
BBX 6 8 0 0
BITMAP
C4
44
28
28
10
7C
10
10
ENDCHAR
STARTCHAR 04B1
ENCODING 1201
SWIDTH 450 0
DWIDTH 5 0
BBX 5 6 0 0
BITMAP
C8
50
30
20
78
20
ENDCHAR
STARTCHAR 04B2
ENCODING 1202
SWIDTH 630 0
DWIDTH 7 0
BBX 7 10 0 -2
BITMAP
44
4C
28
30
30
28
4C
86
02
02
ENDCHAR
STARTCHAR 04B3
ENCODING 1203
SWIDTH 630 0
DWIDTH 7 0
BBX 6 7 1 -1
BITMAP
88
50
60
60
50
8C
04
ENDCHAR
STARTCHAR 04B4
ENCODING 1204
SWIDTH 900 0
DWIDTH 10 0
BBX 9 10 0 -2
BITMAP
F900
2100
2100
2100
2100
2100
2100
3F80
0080
0080
ENDCHAR
STARTCHAR 04B5
ENCODING 1205
SWIDTH 720 0
DWIDTH 8 0
BBX 7 7 0 -1
BITMAP
F4
44
44
44
44
7E
02
ENDCHAR
STARTCHAR 04B6
ENCODING 1206
SWIDTH 630 0
DWIDTH 7 0
BBX 7 10 0 -2
BITMAP
C4
C4
C4
4C
74
04
04
06
02
02
ENDCHAR
STARTCHAR 04B7
ENCODING 1207
SWIDTH 540 0
DWIDTH 6 0
BBX 6 7 0 -1
BITMAP
88
88
48
78
08
0C
04
ENDCHAR
STARTCHAR 04B8
ENCODING 1208
SWIDTH 630 0
DWIDTH 7 0
BBX 6 8 0 0
BITMAP
C4
C4
C4
6C
74
24
04
04
ENDCHAR
STARTCHAR 04B9
ENCODING 1209
SWIDTH 540 0
DWIDTH 6 0
BBX 5 6 0 0
BITMAP
88
88
E8
78
28
08
ENDCHAR
STARTCHAR 04BA
ENCODING 1210
SWIDTH 630 0
DWIDTH 7 0
BBX 6 8 1 0
BITMAP
80
80
80
F8
88
8C
8C
8C
ENDCHAR
STARTCHAR 04BB
ENCODING 1211
SWIDTH 540 0
DWIDTH 6 0
BBX 4 6 1 0
BITMAP
80
80
F0
90
90
90
ENDCHAR
STARTCHAR 04BC
ENCODING 1212
SWIDTH 810 0
DWIDTH 9 0
BBX 9 8 0 0
BITMAP
0F00
1100
9180
7F80
3000
1000
1880
0F00
ENDCHAR
STARTCHAR 04BD
ENCODING 1213
SWIDTH 720 0
DWIDTH 8 0
BBX 7 6 0 0
BITMAP
1C
92
FE
30
10
0E
ENDCHAR
STARTCHAR 04BE
ENCODING 1214
SWIDTH 810 0
DWIDTH 9 0
BBX 9 11 0 -3
BITMAP
0F00
1100
9180
7F80
3000
1000
1880
0F00
0400
0400
0600
ENDCHAR
STARTCHAR 04BF
ENCODING 1215
SWIDTH 720 0
DWIDTH 8 0
BBX 7 9 0 -3
BITMAP
1C
92
FE
30
10
0E
08
08
0C
ENDCHAR
STARTCHAR 04C0
ENCODING 1216
SWIDTH 270 0
DWIDTH 3 0
BBX 1 8 1 0
BITMAP
80
80
80
80
80
80
80
80
ENDCHAR
STARTCHAR 04C1
ENCODING 1217
SWIDTH 810 0
DWIDTH 9 0
BBX 7 11 1 0
BITMAP
28
38
00
92
D6
54
38
54
92
92
92
ENDCHAR
STARTCHAR 04C2
ENCODING 1218
SWIDTH 720 0
DWIDTH 8 0
BBX 6 9 1 0
BITMAP
48
30
00
B4
B4
78
78
B4
B4
ENDCHAR
STARTCHAR 04C3
ENCODING 1219
SWIDTH 630 0
DWIDTH 7 0
BBX 5 10 1 -2
BITMAP
88
90
A0
E0
90
88
88
88
18
30
ENDCHAR
STARTCHAR 04C4
ENCODING 1220
SWIDTH 540 0
DWIDTH 6 0
BBX 4 8 1 -2
BITMAP
90
A0
A0
E0
90
90
10
20
ENDCHAR
STARTCHAR 04C7
ENCODING 1223
SWIDTH 720 0
DWIDTH 8 0
BBX 6 10 1 -2
BITMAP
84
84
84
FC
84
84
84
84
04
1C
ENDCHAR
STARTCHAR 04C8
ENCODING 1224
SWIDTH 630 0
DWIDTH 7 0
BBX 5 8 1 -2
BITMAP
88
88
F8
88
88
88
08
30
ENDCHAR
STARTCHAR 04CB
ENCODING 1227
SWIDTH 630 0
DWIDTH 7 0
BBX 6 10 0 -2
BITMAP
C4
C4
C4
4C
74
04
04
0C
08
08
ENDCHAR
STARTCHAR 04CC
ENCODING 1228
SWIDTH 540 0
DWIDTH 6 0
BBX 5 7 0 -1
BITMAP
88
88
48
78
08
18
10
ENDCHAR
STARTCHAR 05B0
ENCODING 1456
SWIDTH 0 0
DWIDTH 0 0
BBX 2 3 3 -4
BITMAP
C0
00
C0
ENDCHAR
STARTCHAR 05B1
ENCODING 1457
SWIDTH 0 0
DWIDTH 0 0
BBX 5 3 1 -4
BITMAP
F8
00
68
ENDCHAR
STARTCHAR 05B2
ENCODING 1458
SWIDTH 0 0
DWIDTH 0 0
BBX 4 3 2 -4
BITMAP
D0
00
10
ENDCHAR
STARTCHAR 05B3
ENCODING 1459
SWIDTH 0 0
DWIDTH 0 0
BBX 4 3 2 -4
BITMAP
D0
80
10
ENDCHAR
STARTCHAR 05B4
ENCODING 1460
SWIDTH 0 0
DWIDTH 0 0
BBX 2 1 3 -2
BITMAP
C0
ENDCHAR
STARTCHAR 05B5
ENCODING 1461
SWIDTH 0 0
DWIDTH 0 0
BBX 3 1 2 -2
BITMAP
E0
ENDCHAR
STARTCHAR 05B6
ENCODING 1462
SWIDTH 0 0
DWIDTH 0 0
BBX 3 3 2 -4
BITMAP
E0
00
60
ENDCHAR
STARTCHAR 05B7
ENCODING 1463
SWIDTH 0 0
DWIDTH 0 0
BBX 2 1 3 -2
BITMAP
C0
ENDCHAR
STARTCHAR 05B8
ENCODING 1464
SWIDTH 0 0
DWIDTH 0 0
BBX 2 2 3 -3
BITMAP
C0
80
ENDCHAR
STARTCHAR 05B9
ENCODING 1465
SWIDTH 0 0
DWIDTH 0 0
BBX 2 1 -1 7
BITMAP
C0
ENDCHAR
STARTCHAR 05BB
ENCODING 1467
SWIDTH 0 0
DWIDTH 0 0
BBX 5 3 1 -4
BITMAP
C0
30
08
ENDCHAR
STARTCHAR 05BC
ENCODING 1468
SWIDTH 0 0
DWIDTH 0 0
BBX 2 1 2 3
BITMAP
C0
ENDCHAR
STARTCHAR 05BD
ENCODING 1469
SWIDTH 0 0
DWIDTH 0 0
BBX 1 2 3 -3
BITMAP
80
80
ENDCHAR
STARTCHAR 05BE
ENCODING 1470
SWIDTH 450 0
DWIDTH 5 0
BBX 3 1 1 5
BITMAP
E0
ENDCHAR
STARTCHAR 05BF
ENCODING 1471
SWIDTH 0 0
DWIDTH 0 0
BBX 2 1 3 7
BITMAP
C0
ENDCHAR
STARTCHAR 05C0
ENCODING 1472
SWIDTH 270 0
DWIDTH 3 0
BBX 1 6 1 0
BITMAP
80
80
80
80
80
80
ENDCHAR
STARTCHAR 05C1
ENCODING 1473
SWIDTH 0 0
DWIDTH 0 0
BBX 2 1 6 7
BITMAP
C0
ENDCHAR
STARTCHAR 05C2
ENCODING 1474
SWIDTH 0 0
DWIDTH 0 0
BBX 2 1 0 7
BITMAP
C0
ENDCHAR
STARTCHAR 05C3
ENCODING 1475
SWIDTH 270 0
DWIDTH 3 0
BBX 1 7 1 0
BITMAP
80
00
00
00
00
00
80
ENDCHAR
STARTCHAR 05D0
ENCODING 1488
SWIDTH 630 0
DWIDTH 7 0
BBX 5 6 1 0
BITMAP
88
48
A8
90
88
88
ENDCHAR
STARTCHAR 05D1
ENCODING 1489
SWIDTH 540 0
DWIDTH 6 0
BBX 6 6 0 0
BITMAP
78
08
08
08
08
FC
ENDCHAR
STARTCHAR 05D2
ENCODING 1490
SWIDTH 450 0
DWIDTH 5 0
BBX 4 7 0 0
BITMAP
60
20
20
10
30
70
90
ENDCHAR
STARTCHAR 05D3
ENCODING 1491
SWIDTH 540 0
DWIDTH 6 0
BBX 5 6 0 0
BITMAP
F8
10
10
10
10
10
ENDCHAR
STARTCHAR 05D4
ENCODING 1492
SWIDTH 720 0
DWIDTH 8 0
BBX 6 6 1 0
BITMAP
F8
04
84
84
84
84
ENDCHAR
STARTCHAR 05D5
ENCODING 1493
SWIDTH 360 0
DWIDTH 4 0
BBX 3 7 0 0
BITMAP
C0
40
20
20
20
20
20
ENDCHAR
STARTCHAR 05D6
ENCODING 1494
SWIDTH 270 0
DWIDTH 3 0
BBX 3 7 0 0
BITMAP
80
60
40
40
40
40
40
ENDCHAR
STARTCHAR 05D7
ENCODING 1495
SWIDTH 720 0
DWIDTH 8 0
BBX 6 6 1 0
BITMAP
F8
84
84
84
84
84
ENDCHAR
STARTCHAR 05D8
ENCODING 1496
SWIDTH 630 0
DWIDTH 7 0
BBX 5 6 1 0
BITMAP
98
88
88
88
90
E0
ENDCHAR
STARTCHAR 05D9
ENCODING 1497
SWIDTH 270 0
DWIDTH 3 0
BBX 3 4 0 3
BITMAP
C0
60
20
40
ENDCHAR
STARTCHAR 05DA
ENCODING 1498
SWIDTH 540 0
DWIDTH 6 0
BBX 5 8 0 -2
BITMAP
F8
08
08
08
08
08
08
08
ENDCHAR
STARTCHAR 05DB
ENCODING 1499
SWIDTH 540 0
DWIDTH 6 0
BBX 5 6 0 0
BITMAP
78
08
08
08
08
F8
ENDCHAR
STARTCHAR 05DC
ENCODING 1500
SWIDTH 540 0
DWIDTH 6 0
BBX 4 10 1 -2
BITMAP
80
80
F0
10
10
10
10
20
40
80
ENDCHAR
STARTCHAR 05DD
ENCODING 1501
SWIDTH 720 0
DWIDTH 8 0
BBX 6 6 1 0
BITMAP
F8
84
84
84
84
FC
ENDCHAR
STARTCHAR 05DE
ENCODING 1502
SWIDTH 630 0
DWIDTH 7 0
BBX 5 7 1 0
BITMAP
B0
C8
88
88
88
88
B8
ENDCHAR
STARTCHAR 05DF
ENCODING 1503
SWIDTH 270 0
DWIDTH 3 0
BBX 2 9 0 -2
BITMAP
80
40
40
40
40
40
40
40
40
ENDCHAR
STARTCHAR 05E0
ENCODING 1504
SWIDTH 450 0
DWIDTH 5 0
BBX 4 7 0 0
BITMAP
60
20
10
10
10
10
E0
ENDCHAR
STARTCHAR 05E1
ENCODING 1505
SWIDTH 630 0
DWIDTH 7 0
BBX 7 6 0 0
BITMAP
FC
42
44
44
48
70
ENDCHAR
STARTCHAR 05E2
ENCODING 1506
SWIDTH 630 0
DWIDTH 7 0
BBX 6 7 0 -1
BITMAP
44
44
44
28
28
30
C0
ENDCHAR
STARTCHAR 05E3
ENCODING 1507
SWIDTH 540 0
DWIDTH 6 0
BBX 5 9 0 -2
BITMAP
60
B8
88
48
08
08
08
08
08
ENDCHAR
STARTCHAR 05E4
ENCODING 1508
SWIDTH 540 0
DWIDTH 6 0
BBX 5 7 0 0
BITMAP
60
58
48
68
08
08
F8
ENDCHAR
STARTCHAR 05E5
ENCODING 1509
SWIDTH 450 0
DWIDTH 5 0
BBX 5 8 0 -2
BITMAP
88
C8
50
60
20
20
20
20
ENDCHAR
STARTCHAR 05E6
ENCODING 1510
SWIDTH 540 0
DWIDTH 6 0
BBX 6 6 0 0
BITMAP
44
48
28
30
18
F8
ENDCHAR
STARTCHAR 05E7
ENCODING 1511
SWIDTH 630 0
DWIDTH 7 0
BBX 6 8 1 -2
BITMAP
F8
04
88
88
90
A0
80
80
ENDCHAR
STARTCHAR 05E8
ENCODING 1512
SWIDTH 540 0
DWIDTH 6 0
BBX 5 6 0 0
BITMAP
F0
08
08
08
08
08
ENDCHAR
STARTCHAR 05E9
ENCODING 1513
SWIDTH 720 0
DWIDTH 8 0
BBX 6 6 1 0
BITMAP
A4
A4
A4
C4
88
F0
ENDCHAR
STARTCHAR 05EA
ENCODING 1514
SWIDTH 720 0
DWIDTH 8 0
BBX 7 6 0 0
BITMAP
7C
42
42
42
42
C2
ENDCHAR
STARTCHAR 05F0
ENCODING 1520
SWIDTH 630 0
DWIDTH 7 0
BBX 6 7 0 0
BITMAP
C8
44
24
24
24
24
24
ENDCHAR
STARTCHAR 05F1
ENCODING 1521
SWIDTH 630 0
DWIDTH 7 0
BBX 6 7 0 0
BITMAP
C8
64
24
44
04
04
04
ENDCHAR
STARTCHAR 05F2
ENCODING 1522
SWIDTH 630 0
DWIDTH 7 0
BBX 6 4 0 3
BITMAP
C8
64
24
44
ENDCHAR
STARTCHAR 05F3
ENCODING 1523
SWIDTH 270 0
DWIDTH 3 0
BBX 1 3 1 5
BITMAP
80
80
80
ENDCHAR
STARTCHAR 05F4
ENCODING 1524
SWIDTH 450 0
DWIDTH 5 0
BBX 4 3 1 5
BITMAP
90
A0
A0
ENDCHAR
STARTCHAR 1E80
ENCODING 7808
SWIDTH 810 0
DWIDTH 9 0
BBX 9 11 0 0
BITMAP
1000
0800
0000
8880
8C80
4C80
5500
5500
7700
3300
2200
ENDCHAR
STARTCHAR 1E81
ENCODING 7809
SWIDTH 720 0
DWIDTH 8 0
BBX 8 9 0 0
BITMAP
10
10
00
89
D9
59
56
66
26
ENDCHAR
STARTCHAR 1E82
ENCODING 7810
SWIDTH 810 0
DWIDTH 9 0
BBX 9 11 0 0
BITMAP
0400
0800
0000
8880
8C80
4C80
5500
5500
7700
3300
2200
ENDCHAR
STARTCHAR 1E83
ENCODING 7811
SWIDTH 720 0
DWIDTH 8 0
BBX 8 9 0 0
BITMAP
04
08
00
89
D9
59
56
66
26
ENDCHAR
STARTCHAR 1E84
ENCODING 7812
SWIDTH 810 0
DWIDTH 9 0
BBX 9 10 0 0
BITMAP
1400
0000
8880
8C80
4C80
5500
5500
7700
3300
2200
ENDCHAR
STARTCHAR 1E85
ENCODING 7813
SWIDTH 720 0
DWIDTH 8 0
BBX 8 8 0 0
BITMAP
14
00
89
D9
59
56
66
26
ENDCHAR
STARTCHAR 1EF2
ENCODING 7922
SWIDTH 630 0
DWIDTH 7 0
BBX 6 11 0 0
BITMAP
20
10
00
C4
44
28
28
10
10
10
10
ENDCHAR
STARTCHAR 1EF3
ENCODING 7923
SWIDTH 540 0
DWIDTH 6 0
BBX 5 11 0 -2
BITMAP
20
20
00
88
48
48
70
30
20
20
20
ENDCHAR
STARTCHAR 2000
ENCODING 8192
SWIDTH 540 0
DWIDTH 6 0
BBX 0 0 0 0
BITMAP
ENDCHAR
STARTCHAR 2001
ENCODING 8193
SWIDTH 990 0
DWIDTH 11 0
BBX 0 0 0 0
BITMAP
ENDCHAR
STARTCHAR 2002
ENCODING 8194
SWIDTH 540 0
DWIDTH 6 0
BBX 0 0 0 0
BITMAP
ENDCHAR
STARTCHAR 2003
ENCODING 8195
SWIDTH 990 0
DWIDTH 11 0
BBX 0 0 0 0
BITMAP
ENDCHAR
STARTCHAR 2004
ENCODING 8196
SWIDTH 360 0
DWIDTH 4 0
BBX 0 0 0 0
BITMAP
ENDCHAR
STARTCHAR 2005
ENCODING 8197
SWIDTH 270 0
DWIDTH 3 0
BBX 0 0 0 0
BITMAP
ENDCHAR
STARTCHAR 2006
ENCODING 8198
SWIDTH 180 0
DWIDTH 2 0
BBX 0 0 0 0
BITMAP
ENDCHAR
STARTCHAR 2007
ENCODING 8199
SWIDTH 630 0
DWIDTH 7 0
BBX 0 0 0 0
BITMAP
ENDCHAR
STARTCHAR 2008
ENCODING 8200
SWIDTH 270 0
DWIDTH 3 0
BBX 0 0 0 0
BITMAP
ENDCHAR
STARTCHAR 2009
ENCODING 8201
SWIDTH 90 0
DWIDTH 1 0
BBX 0 0 0 0
BITMAP
ENDCHAR
STARTCHAR 200A
ENCODING 8202
SWIDTH 90 0
DWIDTH 1 0
BBX 0 0 0 0
BITMAP
ENDCHAR
STARTCHAR 200B
ENCODING 8203
SWIDTH 0 0
DWIDTH 0 0
BBX 0 0 0 0
BITMAP
ENDCHAR
STARTCHAR 200C
ENCODING 8204
SWIDTH 0 0
DWIDTH 0 0
BBX 0 0 0 0
BITMAP
ENDCHAR
STARTCHAR 200D
ENCODING 8205
SWIDTH 0 0
DWIDTH 0 0
BBX 0 0 0 0
BITMAP
ENDCHAR
STARTCHAR 200E
ENCODING 8206
SWIDTH 0 0
DWIDTH 0 0
BBX 0 0 0 0
BITMAP
ENDCHAR
STARTCHAR 200F
ENCODING 8207
SWIDTH 0 0
DWIDTH 0 0
BBX 0 0 0 0
BITMAP
ENDCHAR
STARTCHAR 2010
ENCODING 8208
SWIDTH 360 0
DWIDTH 4 0
BBX 2 1 1 3
BITMAP
C0
ENDCHAR
STARTCHAR 2011
ENCODING 8209
SWIDTH 360 0
DWIDTH 4 0
BBX 2 1 1 3
BITMAP
C0
ENDCHAR
STARTCHAR 2012
ENCODING 8210
SWIDTH 630 0
DWIDTH 7 0
BBX 5 1 1 3
BITMAP
F8
ENDCHAR
STARTCHAR 2013
ENCODING 8211
SWIDTH 540 0
DWIDTH 6 0
BBX 4 1 1 3
BITMAP
F0
ENDCHAR
STARTCHAR 2014
ENCODING 8212
SWIDTH 990 0
DWIDTH 11 0
BBX 9 1 1 3
BITMAP
FF80
ENDCHAR
STARTCHAR 2015
ENCODING 8213
SWIDTH 990 0
DWIDTH 11 0
BBX 9 1 1 3
BITMAP
FF80
ENDCHAR
STARTCHAR 2016
ENCODING 8214
SWIDTH 540 0
DWIDTH 6 0
BBX 3 10 2 -2
BITMAP
A0
A0
A0
A0
A0
A0
A0
A0
A0
A0
ENDCHAR
STARTCHAR 2017
ENCODING 8215
SWIDTH 540 0
DWIDTH 6 0
BBX 5 3 0 -3
BITMAP
F8
00
F8
ENDCHAR
STARTCHAR 2018
ENCODING 8216
SWIDTH 270 0
DWIDTH 3 0
BBX 1 3 1 5
BITMAP
80
80
80
ENDCHAR
STARTCHAR 2019
ENCODING 8217
SWIDTH 270 0
DWIDTH 3 0
BBX 1 3 1 5
BITMAP
80
80
80
ENDCHAR
STARTCHAR 201A
ENCODING 8218
SWIDTH 270 0
DWIDTH 3 0
BBX 1 3 1 -2
BITMAP
80
80
80
ENDCHAR
STARTCHAR 201B
ENCODING 8219
SWIDTH 270 0
DWIDTH 3 0
BBX 1 3 1 5
BITMAP
80
80
80
ENDCHAR
STARTCHAR 201C
ENCODING 8220
SWIDTH 360 0
DWIDTH 4 0
BBX 3 3 1 5
BITMAP
A0
C0
E0
ENDCHAR
STARTCHAR 201D
ENCODING 8221
SWIDTH 360 0
DWIDTH 4 0
BBX 3 3 1 5
BITMAP
E0
C0
C0
ENDCHAR
STARTCHAR 201E
ENCODING 8222
SWIDTH 360 0
DWIDTH 4 0
BBX 3 3 1 -2
BITMAP
E0
C0
C0
ENDCHAR
STARTCHAR 201F
ENCODING 8223
SWIDTH 360 0
DWIDTH 4 0
BBX 3 3 1 5
BITMAP
E0
C0
A0
ENDCHAR
STARTCHAR 2020
ENCODING 8224
SWIDTH 630 0
DWIDTH 7 0
BBX 5 10 1 -2
BITMAP
20
20
20
F8
20
20
20
20
20
20
ENDCHAR
STARTCHAR 2021
ENCODING 8225
SWIDTH 630 0
DWIDTH 7 0
BBX 5 10 1 -2
BITMAP
20
20
20
F8
20
20
F8
20
20
20
ENDCHAR
STARTCHAR 2022
ENCODING 8226
SWIDTH 630 0
DWIDTH 7 0
BBX 1 2 3 2
BITMAP
80
80
ENDCHAR
STARTCHAR 2023
ENCODING 8227
SWIDTH 360 0
DWIDTH 4 0
BBX 2 3 1 2
BITMAP
80
C0
80
ENDCHAR
STARTCHAR 2024
ENCODING 8228
SWIDTH 360 0
DWIDTH 4 0
BBX 1 1 1 0
BITMAP
80
ENDCHAR
STARTCHAR 2025
ENCODING 8229
SWIDTH 630 0
DWIDTH 7 0
BBX 5 1 1 0
BITMAP
88
ENDCHAR
STARTCHAR 2026
ENCODING 8230
SWIDTH 990 0
DWIDTH 11 0
BBX 9 1 1 0
BITMAP
8880
ENDCHAR
STARTCHAR 2027
ENCODING 8231
SWIDTH 360 0
DWIDTH 4 0
BBX 1 1 1 3
BITMAP
80
ENDCHAR
STARTCHAR 2028
ENCODING 8232
SWIDTH 0 0
DWIDTH 0 0
BBX 0 0 0 0
BITMAP
ENDCHAR
STARTCHAR 2029
ENCODING 8233
SWIDTH 0 0
DWIDTH 0 0
BBX 0 0 0 0
BITMAP
ENDCHAR
STARTCHAR 202A
ENCODING 8234
SWIDTH 0 0
DWIDTH 0 0
BBX 0 0 0 0
BITMAP
ENDCHAR
STARTCHAR 202B
ENCODING 8235
SWIDTH 0 0
DWIDTH 0 0
BBX 0 0 0 0
BITMAP
ENDCHAR
STARTCHAR 202C
ENCODING 8236
SWIDTH 0 0
DWIDTH 0 0
BBX 0 0 0 0
BITMAP
ENDCHAR
STARTCHAR 202D
ENCODING 8237
SWIDTH 0 0
DWIDTH 0 0
BBX 0 0 0 0
BITMAP
ENDCHAR
STARTCHAR 202E
ENCODING 8238
SWIDTH 0 0
DWIDTH 0 0
BBX 0 0 0 0
BITMAP
ENDCHAR
STARTCHAR 2030
ENCODING 8240
SWIDTH 990 0
DWIDTH 11 0
BBX 11 8 0 0
BITMAP
6200
A400
A800
7000
1EC0
2AA0
4AA0
8EC0
ENDCHAR
STARTCHAR 2031
ENCODING 8241
SWIDTH 1350 0
DWIDTH 15 0
BBX 15 8 0 0
BITMAP
6200
A400
A800
7000
1EEC
2AB2
4AB2
8EEC
ENDCHAR
STARTCHAR 2032
ENCODING 8242
SWIDTH 360 0
DWIDTH 4 0
BBX 2 3 1 5
BITMAP
40
80
80
ENDCHAR
STARTCHAR 2033
ENCODING 8243
SWIDTH 540 0
DWIDTH 6 0
BBX 4 3 1 5
BITMAP
50
90
A0
ENDCHAR
STARTCHAR 2034
ENCODING 8244
SWIDTH 720 0
DWIDTH 8 0
BBX 7 3 1 5
BITMAP
56
94
A8
ENDCHAR
STARTCHAR 2035
ENCODING 8245
SWIDTH 360 0
DWIDTH 4 0
BBX 2 3 1 5
BITMAP
80
80
40
ENDCHAR
STARTCHAR 2036
ENCODING 8246
SWIDTH 540 0
DWIDTH 6 0
BBX 4 3 1 5
BITMAP
A0
90
50
ENDCHAR
STARTCHAR 2037
ENCODING 8247
SWIDTH 720 0
DWIDTH 8 0
BBX 6 3 1 5
BITMAP
A4
94
54
ENDCHAR
STARTCHAR 2038
ENCODING 8248
SWIDTH 360 0
DWIDTH 4 0
BBX 4 3 0 -1
BITMAP
60
60
90
ENDCHAR
STARTCHAR 2039
ENCODING 8249
SWIDTH 360 0
DWIDTH 4 0
BBX 2 5 1 0
BITMAP
40
80
80
80
40
ENDCHAR
STARTCHAR 203A
ENCODING 8250
SWIDTH 360 0
DWIDTH 4 0
BBX 3 5 0 0
BITMAP
80
40
20
40
80
ENDCHAR
STARTCHAR 203B
ENCODING 8251
SWIDTH 720 0
DWIDTH 8 0
BBX 6 6 1 1
BITMAP
B4
48
30
B4
48
B4
ENDCHAR
STARTCHAR 203C
ENCODING 8252
SWIDTH 540 0
DWIDTH 6 0
BBX 4 8 1 0
BITMAP
B0
B0
A0
A0
A0
A0
00
B0
ENDCHAR
STARTCHAR 203D
ENCODING 8253
SWIDTH 450 0
DWIDTH 5 0
BBX 4 8 0 0
BITMAP
70
90
50
60
60
40
00
40
ENDCHAR
STARTCHAR 203E
ENCODING 8254
SWIDTH 540 0
DWIDTH 6 0
BBX 5 1 0 8
BITMAP
F8
ENDCHAR
STARTCHAR 2040
ENCODING 8256
SWIDTH 630 0
DWIDTH 7 0
BBX 6 2 0 9
BITMAP
78
84
ENDCHAR
STARTCHAR 2041
ENCODING 8257
SWIDTH 450 0
DWIDTH 5 0
BBX 5 8 0 -2
BITMAP
08
10
10
20
20
60
60
90
ENDCHAR
STARTCHAR 2042
ENCODING 8258
SWIDTH 900 0
DWIDTH 10 0
BBX 8 6 1 1
BITMAP
3C
38
04
00
A5
E7
ENDCHAR
STARTCHAR 2043
ENCODING 8259
SWIDTH 360 0
DWIDTH 4 0
BBX 2 1 1 3
BITMAP
C0
ENDCHAR
STARTCHAR 2044
ENCODING 8260
SWIDTH 0 0
DWIDTH 0 0
BBX 6 8 -3 0
BITMAP
04
08
10
10
20
40
40
80
ENDCHAR
STARTCHAR 2070
ENCODING 8304
SWIDTH 450 0
DWIDTH 5 0
BBX 3 5 1 3
BITMAP
C0
A0
A0
A0
C0
ENDCHAR
STARTCHAR 2074
ENCODING 8308
SWIDTH 450 0
DWIDTH 5 0
BBX 3 5 1 3
BITMAP
40
C0
C0
E0
40
ENDCHAR
STARTCHAR 2075
ENCODING 8309
SWIDTH 450 0
DWIDTH 5 0
BBX 3 5 1 3
BITMAP
E0
80
C0
20
C0
ENDCHAR
STARTCHAR 2076
ENCODING 8310
SWIDTH 450 0
DWIDTH 5 0
BBX 3 5 1 3
BITMAP
E0
80
E0
A0
E0
ENDCHAR
STARTCHAR 2077
ENCODING 8311
SWIDTH 450 0
DWIDTH 5 0
BBX 3 5 1 3
BITMAP
E0
20
40
80
80
ENDCHAR
STARTCHAR 2078
ENCODING 8312
SWIDTH 450 0
DWIDTH 5 0
BBX 3 5 1 3
BITMAP
E0
A0
C0
A0
E0
ENDCHAR
STARTCHAR 2079
ENCODING 8313
SWIDTH 450 0
DWIDTH 5 0
BBX 3 5 1 3
BITMAP
C0
A0
E0
20
C0
ENDCHAR
STARTCHAR 207A
ENCODING 8314
SWIDTH 450 0
DWIDTH 5 0
BBX 3 3 1 4
BITMAP
40
E0
40
ENDCHAR
STARTCHAR 207B
ENCODING 8315
SWIDTH 450 0
DWIDTH 5 0
BBX 3 1 1 5
BITMAP
E0
ENDCHAR
STARTCHAR 207C
ENCODING 8316
SWIDTH 450 0
DWIDTH 5 0
BBX 3 3 1 5
BITMAP
E0
00
E0
ENDCHAR
STARTCHAR 207D
ENCODING 8317
SWIDTH 180 0
DWIDTH 2 0
BBX 1 6 1 2
BITMAP
80
80
80
80
80
80
ENDCHAR
STARTCHAR 207E
ENCODING 8318
SWIDTH 180 0
DWIDTH 2 0
BBX 2 6 0 2
BITMAP
80
40
40
40
40
80
ENDCHAR
STARTCHAR 207F
ENCODING 8319
SWIDTH 360 0
DWIDTH 4 0
BBX 3 4 1 3
BITMAP
C0
A0
A0
A0
ENDCHAR
STARTCHAR 2080
ENCODING 8320
SWIDTH 450 0
DWIDTH 5 0
BBX 3 5 1 0
BITMAP
C0
A0
A0
A0
C0
ENDCHAR
STARTCHAR 2081
ENCODING 8321
SWIDTH 450 0
DWIDTH 5 0
BBX 2 5 1 0
BITMAP
C0
40
40
40
40
ENDCHAR
STARTCHAR 2082
ENCODING 8322
SWIDTH 450 0
DWIDTH 5 0
BBX 3 5 1 0
BITMAP
E0
20
40
80
E0
ENDCHAR
STARTCHAR 2083
ENCODING 8323
SWIDTH 450 0
DWIDTH 5 0
BBX 3 5 1 0
BITMAP
C0
20
C0
20
C0
ENDCHAR
STARTCHAR 2084
ENCODING 8324
SWIDTH 450 0
DWIDTH 5 0
BBX 3 5 1 0
BITMAP
40
C0
C0
E0
40
ENDCHAR
STARTCHAR 2085
ENCODING 8325
SWIDTH 450 0
DWIDTH 5 0
BBX 3 5 1 0
BITMAP
E0
80
C0
20
C0
ENDCHAR
STARTCHAR 2086
ENCODING 8326
SWIDTH 450 0
DWIDTH 5 0
BBX 3 5 1 0
BITMAP
E0
80
E0
A0
E0
ENDCHAR
STARTCHAR 2087
ENCODING 8327
SWIDTH 450 0
DWIDTH 5 0
BBX 3 5 1 0
BITMAP
E0
20
40
80
80
ENDCHAR
STARTCHAR 2088
ENCODING 8328
SWIDTH 450 0
DWIDTH 5 0
BBX 3 5 1 0
BITMAP
E0
A0
C0
A0
E0
ENDCHAR
STARTCHAR 2089
ENCODING 8329
SWIDTH 450 0
DWIDTH 5 0
BBX 3 5 1 0
BITMAP
C0
A0
E0
20
C0
ENDCHAR
STARTCHAR 208A
ENCODING 8330
SWIDTH 450 0
DWIDTH 5 0
BBX 3 3 1 1
BITMAP
40
E0
40
ENDCHAR
STARTCHAR 208B
ENCODING 8331
SWIDTH 450 0
DWIDTH 5 0
BBX 3 1 1 2
BITMAP
E0
ENDCHAR
STARTCHAR 208C
ENCODING 8332
SWIDTH 450 0
DWIDTH 5 0
BBX 3 3 1 1
BITMAP
E0
00
E0
ENDCHAR
STARTCHAR 208D
ENCODING 8333
SWIDTH 180 0
DWIDTH 2 0
BBX 1 6 1 -1
BITMAP
80
80
80
80
80
80
ENDCHAR
STARTCHAR 208E
ENCODING 8334
SWIDTH 180 0
DWIDTH 2 0
BBX 2 6 0 -1
BITMAP
80
40
40
40
40
80
ENDCHAR
STARTCHAR 20A0
ENCODING 8352
SWIDTH 720 0
DWIDTH 8 0
BBX 6 8 1 0
BITMAP
70
80
80
9C
90
7C
10
1C
ENDCHAR
STARTCHAR 20A1
ENCODING 8353
SWIDTH 720 0
DWIDTH 8 0
BBX 7 10 0 -1
BITMAP
06
3E
6C
54
58
68
50
72
BC
A0
ENDCHAR
STARTCHAR 20A2
ENCODING 8354
SWIDTH 720 0
DWIDTH 8 0
BBX 6 8 1 0
BITMAP
7C
C0
80
9C
90
90
D0
7C
ENDCHAR
STARTCHAR 20A3
ENCODING 8355
SWIDTH 630 0
DWIDTH 7 0
BBX 6 8 0 0
BITMAP
3C
20
20
20
38
20
F0
20
ENDCHAR
STARTCHAR 20A4
ENCODING 8356
SWIDTH 630 0
DWIDTH 7 0
BBX 5 8 1 0
BITMAP
38
60
F0
60
F0
40
40
F8
ENDCHAR
STARTCHAR 20A5
ENCODING 8357
SWIDTH 900 0
DWIDTH 10 0
BBX 8 9 1 -1
BITMAP
02
04
B7
C9
89
99
99
A9
20
ENDCHAR
STARTCHAR 20A6
ENCODING 8358
SWIDTH 810 0
DWIDTH 9 0
BBX 9 8 0 0
BITMAP
6100
6100
5100
FF80
4900
FF80
4700
4300
ENDCHAR
STARTCHAR 20A7
ENCODING 8359
SWIDTH 1350 0
DWIDTH 15 0
BBX 13 8 1 0
BITMAP
F000
9A00
8F70
9A40
F260
8218
8208
8370
ENDCHAR
STARTCHAR 20A8
ENCODING 8360
SWIDTH 990 0
DWIDTH 11 0
BBX 9 8 1 0
BITMAP
F000
9800
8B80
9400
E300
9180
9080
8F80
ENDCHAR
STARTCHAR 20A9
ENCODING 8361
SWIDTH 1080 0
DWIDTH 12 0
BBX 11 8 0 0
BITMAP
4640
FFE0
2A40
FFE0
2A80
3980
1980
1100
ENDCHAR
STARTCHAR 20AA
ENCODING 8362
SWIDTH 1080 0
DWIDTH 12 0
BBX 9 8 1 0
BITMAP
FC80
8280
8280
9280
9280
9080
9080
9F80
ENDCHAR
STARTCHAR 20AC
ENCODING 8364
SWIDTH 630 0
DWIDTH 7 0
BBX 6 8 0 0
BITMAP
3C
44
F8
40
F8
40
64
3C
ENDCHAR
STARTCHAR 2100
ENCODING 8448
SWIDTH 720 0
DWIDTH 8 0
BBX 8 8 0 0
BITMAP
71
52
B4
E8
16
24
48
86
ENDCHAR
STARTCHAR 2101
ENCODING 8449
SWIDTH 720 0
DWIDTH 8 0
BBX 8 8 0 0
BITMAP
71
52
B4
E8
16
24
42
8E
ENDCHAR
STARTCHAR 2102
ENCODING 8450
SWIDTH 720 0
DWIDTH 8 0
BBX 6 8 1 0
BITMAP
3C
60
C0
C0
C0
C0
64
3C
ENDCHAR
STARTCHAR 2103
ENCODING 8451
SWIDTH 900 0
DWIDTH 10 0
BBX 9 8 1 0
BITMAP
CF00
D080
F000
2000
2000
3000
1080
0F00
ENDCHAR
STARTCHAR 2104
ENCODING 8452
SWIDTH 630 0
DWIDTH 7 0
BBX 6 8 1 0
BITMAP
20
70
A0
A0
A0
F0
20
3C
ENDCHAR
STARTCHAR 2105
ENCODING 8453
SWIDTH 720 0
DWIDTH 8 0
BBX 8 8 0 0
BITMAP
31
42
44
68
16
29
4A
8E
ENDCHAR
STARTCHAR 2106
ENCODING 8454
SWIDTH 720 0
DWIDTH 8 0
BBX 8 8 0 0
BITMAP
31
42
44
68
19
2A
4A
8E
ENDCHAR
STARTCHAR 2107
ENCODING 8455
SWIDTH 630 0
DWIDTH 7 0
BBX 5 8 1 0
BITMAP
70
48
40
30
C0
80
88
70
ENDCHAR
STARTCHAR 2108
ENCODING 8456
SWIDTH 630 0
DWIDTH 7 0
BBX 6 8 0 0
BITMAP
78
08
04
3C
04
04
08
F0
ENDCHAR
STARTCHAR 2109
ENCODING 8457
SWIDTH 810 0
DWIDTH 9 0
BBX 7 8 1 0
BITMAP
DE
D0
D0
10
1E
10
10
10
ENDCHAR
STARTCHAR 210A
ENCODING 8458
SWIDTH 810 0
DWIDTH 9 0
BBX 8 10 0 -4
BITMAP
3C
24
44
4C
37
1C
68
88
98
70
ENDCHAR
STARTCHAR 210B
ENCODING 8459
SWIDTH 1080 0
DWIDTH 12 0
BBX 12 8 0 0
BITMAP
1C70
2450
3490
0CA0
0FC0
6900
9100
61C0
ENDCHAR
STARTCHAR 210C
ENCODING 8460
SWIDTH 630 0
DWIDTH 7 0
BBX 7 10 0 -2
BITMAP
1C
24
48
34
24
22
42
E4
04
08
ENDCHAR
STARTCHAR 210D
ENCODING 8461
SWIDTH 900 0
DWIDTH 10 0
BBX 7 8 1 0
BITMAP
C6
C6
C6
C6
BE
C6
C6
C6
ENDCHAR
STARTCHAR 210E
ENCODING 8462
SWIDTH 720 0
DWIDTH 8 0
BBX 7 8 1 0
BITMAP
C0
40
58
68
C8
C8
8A
8C
ENDCHAR
STARTCHAR 210F
ENCODING 8463
SWIDTH 720 0
DWIDTH 8 0
BBX 7 8 1 0
BITMAP
C0
70
D8
68
48
C8
8A
8C
ENDCHAR
STARTCHAR 2110
ENCODING 8464
SWIDTH 630 0
DWIDTH 7 0
BBX 7 10 0 -2
BITMAP
04
1C
28
48
6A
3C
08
10
90
E0
ENDCHAR
STARTCHAR 2111
ENCODING 8465
SWIDTH 720 0
DWIDTH 8 0
BBX 5 8 1 0
BITMAP
60
B8
48
48
08
08
88
70
ENDCHAR
STARTCHAR 2112
ENCODING 8466
SWIDTH 810 0
DWIDTH 9 0
BBX 8 8 0 0
BITMAP
07
0D
3E
08
08
10
F8
FF
ENDCHAR
STARTCHAR 2113
ENCODING 8467
SWIDTH 630 0
DWIDTH 7 0
BBX 6 8 0 0
BITMAP
0C
14
14
28
30
E0
28
30
ENDCHAR
STARTCHAR 2114
ENCODING 8468
SWIDTH 990 0
DWIDTH 11 0
BBX 10 8 0 0
BITMAP
FE00
4400
4580
4640
4440
4440
4440
4780
ENDCHAR
STARTCHAR 2115
ENCODING 8469
SWIDTH 810 0
DWIDTH 9 0
BBX 7 8 1 0
BITMAP
C2
E2
B2
DA
B6
9A
8E
86
ENDCHAR
STARTCHAR 2116
ENCODING 8470
SWIDTH 990 0
DWIDTH 11 0
BBX 9 8 1 0
BITMAP
8800
CB80
CA80
AA80
AB80
9800
9B80
8800
ENDCHAR
STARTCHAR 2117
ENCODING 8471
SWIDTH 810 0
DWIDTH 9 0
BBX 8 8 1 0
BITMAP
3C
C2
99
A5
99
A1
C2
3C
ENDCHAR
STARTCHAR 2118
ENCODING 8472
SWIDTH 720 0
DWIDTH 8 0
BBX 7 9 0 -2
BITMAP
20
66
5A
62
22
E2
AC
A0
C0
ENDCHAR
STARTCHAR 2119
ENCODING 8473
SWIDTH 720 0
DWIDTH 8 0
BBX 6 8 1 0
BITMAP
FC
D4
CC
D4
B8
C0
C0
C0
ENDCHAR
STARTCHAR 211A
ENCODING 8474
SWIDTH 900 0
DWIDTH 10 0
BBX 8 10 1 -2
BITMAP
3C
E6
C5
C3
C3
C5
66
3C
06
01
ENDCHAR
STARTCHAR 211B
ENCODING 8475
SWIDTH 900 0
DWIDTH 10 0
BBX 10 8 0 0
BITMAP
1F00
2480
3480
0D00
0E00
6B00
9940
6180
ENDCHAR
STARTCHAR 211C
ENCODING 8476
SWIDTH 900 0
DWIDTH 10 0
BBX 8 8 1 0
BITMAP
64
BE
B4
98
1C
26
42
63
ENDCHAR
STARTCHAR 211D
ENCODING 8477
SWIDTH 810 0
DWIDTH 9 0
BBX 7 8 1 0
BITMAP
F8
D4
CC
D4
B8
A8
D4
CE
ENDCHAR
STARTCHAR 211E
ENCODING 8478
SWIDTH 630 0
DWIDTH 7 0
BBX 5 8 1 0
BITMAP
F0
98
88
90
E0
98
98
A8
ENDCHAR
STARTCHAR 211F
ENCODING 8479
SWIDTH 630 0
DWIDTH 7 0
BBX 6 12 1 -2
BITMAP
10
0C
F8
98
88
90
F0
B0
B8
C8
40
80
ENDCHAR
STARTCHAR 2120
ENCODING 8480
SWIDTH 810 0
DWIDTH 9 0
BBX 7 4 1 4
BITMAP
DA
9A
5E
D6
ENDCHAR
STARTCHAR 2121
ENCODING 8481
SWIDTH 1440 0
DWIDTH 16 0
BBX 14 6 1 0
BITMAP
FB90
2210
2210
2390
2210
239C
ENDCHAR
STARTCHAR 2122
ENCODING 8482
SWIDTH 810 0
DWIDTH 9 0
BBX 9 4 0 4
BITMAP
F580
2580
2A80
2A80
ENDCHAR
STARTCHAR 2123
ENCODING 8483
SWIDTH 630 0
DWIDTH 7 0
BBX 7 12 0 -2
BITMAP
18
0C
C6
4A
4C
74
34
28
38
50
40
80
ENDCHAR
STARTCHAR 2124
ENCODING 8484
SWIDTH 630 0
DWIDTH 7 0
BBX 6 8 1 0
BITMAP
FC
28
28
50
60
A0
C0
FC
ENDCHAR
STARTCHAR 2125
ENCODING 8485
SWIDTH 540 0
DWIDTH 6 0
BBX 5 10 0 -2
BITMAP
78
10
60
78
10
20
70
08
08
F0
ENDCHAR
STARTCHAR 2126
ENCODING 8486
SWIDTH 900 0
DWIDTH 10 0
BBX 8 8 1 0
BITMAP
3C
46
83
83
82
42
A5
E7
ENDCHAR
STARTCHAR 2127
ENCODING 8487
SWIDTH 900 0
DWIDTH 10 0
BBX 8 8 1 0
BITMAP
E7
A5
42
82
83
83
46
3C
ENDCHAR
STARTCHAR 2128
ENCODING 8488
SWIDTH 540 0
DWIDTH 6 0
BBX 6 8 0 0
BITMAP
64
98
20
78
0C
04
48
70
ENDCHAR
STARTCHAR 2129
ENCODING 8489
SWIDTH 360 0
DWIDTH 4 0
BBX 2 6 1 0
BITMAP
C0
40
40
40
40
40
ENDCHAR
STARTCHAR 212A
ENCODING 8490
SWIDTH 630 0
DWIDTH 7 0
BBX 6 8 1 0
BITMAP
88
90
A0
E0
A0
B0
98
8C
ENDCHAR
STARTCHAR 212B
ENCODING 8491
SWIDTH 720 0
DWIDTH 8 0
BBX 7 11 0 0
BITMAP
10
28
18
18
18
28
2C
64
7C
42
82
ENDCHAR
STARTCHAR 212C
ENCODING 8492
SWIDTH 810 0
DWIDTH 9 0
BBX 8 8 0 0
BITMAP
3E
49
69
0A
0E
11
F1
FE
ENDCHAR
STARTCHAR 212D
ENCODING 8493
SWIDTH 630 0
DWIDTH 7 0
BBX 7 8 0 0
BITMAP
3E
60
90
90
C8
50
62
3C
ENDCHAR
STARTCHAR 212E
ENCODING 8494
SWIDTH 810 0
DWIDTH 9 0
BBX 8 8 1 0
BITMAP
3C
C2
81
FF
80
80
C2
3C
ENDCHAR
STARTCHAR 212F
ENCODING 8495
SWIDTH 450 0
DWIDTH 5 0
BBX 4 6 1 0
BITMAP
70
D0
B0
E0
A0
E0
ENDCHAR
STARTCHAR 2130
ENCODING 8496
SWIDTH 540 0
DWIDTH 6 0
BBX 6 9 0 0
BITMAP
20
5C
3C
60
30
40
C0
C4
78
ENDCHAR
STARTCHAR 2131
ENCODING 8497
SWIDTH 810 0
DWIDTH 9 0
BBX 10 8 0 1
BITMAP
1FC0
6400
2C00
0F00
0800
6800
9000
E000
ENDCHAR
STARTCHAR 2132
ENCODING 8498
SWIDTH 630 0
DWIDTH 7 0
BBX 5 8 1 0
BITMAP
08
08
08
08
F8
08
08
F8
ENDCHAR
STARTCHAR 2133
ENCODING 8499
SWIDTH 990 0
DWIDTH 11 0
BBX 10 8 1 0
BITMAP
4D80
F680
4480
4880
4980
4900
8940
9980
ENDCHAR
STARTCHAR 2134
ENCODING 8500
SWIDTH 540 0
DWIDTH 6 0
BBX 5 6 1 0
BITMAP
70
C8
88
98
90
E0
ENDCHAR
STARTCHAR 2135
ENCODING 8501
SWIDTH 630 0
DWIDTH 7 0
BBX 6 6 1 0
BITMAP
9C
C8
E8
90
88
C8
ENDCHAR
STARTCHAR 2136
ENCODING 8502
SWIDTH 630 0
DWIDTH 7 0
BBX 5 6 1 0
BITMAP
F0
08
08
08
08
F8
ENDCHAR
STARTCHAR 2137
ENCODING 8503
SWIDTH 450 0
DWIDTH 5 0
BBX 3 6 1 0
BITMAP
C0
40
40
20
60
A0
ENDCHAR
STARTCHAR 2138
ENCODING 8504
SWIDTH 630 0
DWIDTH 7 0
BBX 6 6 0 1
BITMAP
FC
08
08
08
08
08
ENDCHAR
STARTCHAR 215B
ENCODING 8539
SWIDTH 810 0
DWIDTH 9 0
BBX 7 8 1 0
BITMAP
84
88
90
9E
AA
4C
92
8E
ENDCHAR
STARTCHAR 215C
ENCODING 8540
SWIDTH 810 0
DWIDTH 9 0
BBX 7 8 1 0
BITMAP
C4
48
C8
5E
EA
26
4A
8E
ENDCHAR
STARTCHAR 215D
ENCODING 8541
SWIDTH 810 0
DWIDTH 9 0
BBX 7 8 1 0
BITMAP
C4
88
C8
5E
EA
46
4A
8E
ENDCHAR
STARTCHAR 215E
ENCODING 8542
SWIDTH 810 0
DWIDTH 9 0
BBX 7 8 1 0
BITMAP
E4
48
50
9E
AA
46
8A
8E
ENDCHAR
STARTCHAR 2190
ENCODING 8592
SWIDTH 900 0
DWIDTH 10 0
BBX 8 3 1 1
BITMAP
40
FF
40
ENDCHAR
STARTCHAR 2191
ENCODING 8593
SWIDTH 540 0
DWIDTH 6 0
BBX 2 8 2 0
BITMAP
80
C0
80
80
80
80
80
80
ENDCHAR
STARTCHAR 2192
ENCODING 8594
SWIDTH 900 0
DWIDTH 10 0
BBX 8 3 1 2
BITMAP
02
FF
02
ENDCHAR
STARTCHAR 2193
ENCODING 8595
SWIDTH 540 0
DWIDTH 6 0
BBX 2 8 2 0
BITMAP
80
80
80
80
80
80
C0
80
ENDCHAR
STARTCHAR 2194
ENCODING 8596
SWIDTH 1170 0
DWIDTH 13 0
BBX 11 3 1 1
BITMAP
4040
FFE0
4040
ENDCHAR
STARTCHAR 2195
ENCODING 8597
SWIDTH 540 0
DWIDTH 6 0
BBX 2 11 2 -2
BITMAP
80
C0
80
80
80
80
80
80
80
C0
80
ENDCHAR
STARTCHAR 2196
ENCODING 8598
SWIDTH 720 0
DWIDTH 8 0
BBX 6 6 1 1
BITMAP
E0
40
20
10
08
04
ENDCHAR
STARTCHAR 2197
ENCODING 8599
SWIDTH 720 0
DWIDTH 8 0
BBX 6 6 1 1
BITMAP
1C
0C
10
20
40
80
ENDCHAR
STARTCHAR 2198
ENCODING 8600
SWIDTH 720 0
DWIDTH 8 0
BBX 6 6 1 1
BITMAP
80
40
20
10
0C
1C
ENDCHAR
STARTCHAR 2199
ENCODING 8601
SWIDTH 720 0
DWIDTH 8 0
BBX 6 6 1 1
BITMAP
04
08
10
20
40
E0
ENDCHAR
STARTCHAR 219A
ENCODING 8602
SWIDTH 900 0
DWIDTH 10 0
BBX 8 5 1 1
BITMAP
04
48
FF
48
08
ENDCHAR
STARTCHAR 219B
ENCODING 8603
SWIDTH 900 0
DWIDTH 10 0
BBX 8 5 1 1
BITMAP
10
12
FF
22
20
ENDCHAR
STARTCHAR 219C
ENCODING 8604
SWIDTH 810 0
DWIDTH 9 0
BBX 6 3 1 2
BITMAP
E0
CC
B0
ENDCHAR
STARTCHAR 219D
ENCODING 8605
SWIDTH 810 0
DWIDTH 9 0
BBX 5 3 2 2
BITMAP
18
C8
30
ENDCHAR
STARTCHAR 219E
ENCODING 8606
SWIDTH 900 0
DWIDTH 10 0
BBX 8 3 1 1
BITMAP
50
FF
50
ENDCHAR
STARTCHAR 219F
ENCODING 8607
SWIDTH 540 0
DWIDTH 6 0
BBX 2 8 2 0
BITMAP
80
C0
80
80
C0
80
80
80
ENDCHAR
STARTCHAR 21A0
ENCODING 8608
SWIDTH 900 0
DWIDTH 10 0
BBX 8 3 1 1
BITMAP
0A
FF
0A
ENDCHAR
STARTCHAR 21A1
ENCODING 8609
SWIDTH 540 0
DWIDTH 6 0
BBX 2 8 2 0
BITMAP
80
80
80
80
C0
80
C0
80
ENDCHAR
STARTCHAR 21A2
ENCODING 8610
SWIDTH 900 0
DWIDTH 10 0
BBX 8 3 1 1
BITMAP
41
FE
41
ENDCHAR
STARTCHAR 21A3
ENCODING 8611
SWIDTH 900 0
DWIDTH 10 0
BBX 8 3 1 1
BITMAP
82
7F
C2
ENDCHAR
STARTCHAR 21A4
ENCODING 8612
SWIDTH 900 0
DWIDTH 10 0
BBX 8 3 1 1
BITMAP
41
FF
41
ENDCHAR
STARTCHAR 21A5
ENCODING 8613
SWIDTH 540 0
DWIDTH 6 0
BBX 2 8 2 0
BITMAP
80
C0
80
80
80
80
80
C0
ENDCHAR
STARTCHAR 21A6
ENCODING 8614
SWIDTH 900 0
DWIDTH 10 0
BBX 8 3 1 1
BITMAP
82
FF
82
ENDCHAR
STARTCHAR 21A7
ENCODING 8615
SWIDTH 540 0
DWIDTH 6 0
BBX 2 8 2 0
BITMAP
C0
80
80
80
80
80
C0
80
ENDCHAR
STARTCHAR 21A8
ENCODING 8616
SWIDTH 540 0
DWIDTH 6 0
BBX 4 8 1 0
BITMAP
40
60
40
40
60
40
00
F0
ENDCHAR
STARTCHAR 21A9
ENCODING 8617
SWIDTH 900 0
DWIDTH 10 0
BBX 8 4 1 1
BITMAP
01
41
FF
40
ENDCHAR
STARTCHAR 21AA
ENCODING 8618
SWIDTH 900 0
DWIDTH 10 0
BBX 8 4 1 1
BITMAP
80
82
FF
02
ENDCHAR
STARTCHAR 21AB
ENCODING 8619
SWIDTH 900 0
DWIDTH 10 0
BBX 8 4 1 1
BITMAP
03
45
FF
44
ENDCHAR
STARTCHAR 21AC
ENCODING 8620
SWIDTH 900 0
DWIDTH 10 0
BBX 8 4 1 1
BITMAP
C0
C2
FF
42
ENDCHAR
STARTCHAR 21AD
ENCODING 8621
SWIDTH 1170 0
DWIDTH 13 0
BBX 11 3 1 1
BITMAP
4440
FAE0
5940
ENDCHAR
STARTCHAR 21AE
ENCODING 8622
SWIDTH 1170 0
DWIDTH 13 0
BBX 11 5 1 0
BITMAP
0400
4440
FFE0
4440
0800
ENDCHAR
STARTCHAR 21AF
ENCODING 8623
SWIDTH 630 0
DWIDTH 7 0
BBX 5 8 1 0
BITMAP
10
20
40
78
10
20
40
C0
ENDCHAR
STARTCHAR 21B0
ENCODING 8624
SWIDTH 720 0
DWIDTH 8 0
BBX 5 8 1 0
BITMAP
40
F8
48
08
08
08
08
08
ENDCHAR
STARTCHAR 21B1
ENCODING 8625
SWIDTH 720 0
DWIDTH 8 0
BBX 4 8 2 0
BITMAP
20
F0
A0
80
80
80
80
80
ENDCHAR
STARTCHAR 21B2
ENCODING 8626
SWIDTH 720 0
DWIDTH 8 0
BBX 5 8 1 0
BITMAP
08
08
08
08
08
48
F8
40
ENDCHAR
STARTCHAR 21B3
ENCODING 8627
SWIDTH 720 0
DWIDTH 8 0
BBX 4 8 2 0
BITMAP
80
80
80
80
80
A0
F0
20
ENDCHAR
STARTCHAR 21B4
ENCODING 8628
SWIDTH 720 0
DWIDTH 8 0
BBX 5 8 1 0
BITMAP
F0
10
10
10
10
10
18
10
ENDCHAR
STARTCHAR 21B5
ENCODING 8629
SWIDTH 900 0
DWIDTH 10 0
BBX 8 8 1 0
BITMAP
01
01
01
01
01
41
FF
40
ENDCHAR
STARTCHAR 21B6
ENCODING 8630
SWIDTH 990 0
DWIDTH 11 0
BBX 9 5 1 1
BITMAP
1E00
2100
C100
C080
8000
ENDCHAR
STARTCHAR 21B7
ENCODING 8631
SWIDTH 990 0
DWIDTH 11 0
BBX 9 5 1 1
BITMAP
3C00
4200
8180
8100
0100
ENDCHAR
STARTCHAR 21B8
ENCODING 8632
SWIDTH 900 0
DWIDTH 10 0
BBX 8 8 1 0
BITMAP
FF
00
70
20
10
08
04
02
ENDCHAR
STARTCHAR 21B9
ENCODING 8633
SWIDTH 900 0
DWIDTH 10 0
BBX 8 6 1 0
BITMAP
A0
FF
20
05
FF
05
ENDCHAR
STARTCHAR 21BA
ENCODING 8634
SWIDTH 900 0
DWIDTH 10 0
BBX 8 8 1 0
BITMAP
02
42
81
81
81
81
42
3C
ENDCHAR
STARTCHAR 21BB
ENCODING 8635
SWIDTH 900 0
DWIDTH 10 0
BBX 8 8 1 0
BITMAP
20
42
81
81
81
81
42
3C
ENDCHAR
STARTCHAR 21BC
ENCODING 8636
SWIDTH 900 0
DWIDTH 10 0
BBX 7 2 2 2
BITMAP
40
FE
ENDCHAR
STARTCHAR 21BD
ENCODING 8637
SWIDTH 900 0
DWIDTH 10 0
BBX 7 2 2 1
BITMAP
FE
40
ENDCHAR
STARTCHAR 21BE
ENCODING 8638
SWIDTH 450 0
DWIDTH 5 0
BBX 1 7 2 1
BITMAP
80
80
80
80
80
80
80
ENDCHAR
STARTCHAR 21BF
ENCODING 8639
SWIDTH 450 0
DWIDTH 5 0
BBX 1 7 2 1
BITMAP
80
80
80
80
80
80
80
ENDCHAR
STARTCHAR 21C0
ENCODING 8640
SWIDTH 900 0
DWIDTH 10 0
BBX 7 1 1 3
BITMAP
FE
ENDCHAR
STARTCHAR 21C1
ENCODING 8641
SWIDTH 900 0
DWIDTH 10 0
BBX 7 1 1 1
BITMAP
FE
ENDCHAR
STARTCHAR 21C2
ENCODING 8642
SWIDTH 450 0
DWIDTH 5 0
BBX 1 7 2 0
BITMAP
80
80
80
80
80
80
80
ENDCHAR
STARTCHAR 21C3
ENCODING 8643
SWIDTH 450 0
DWIDTH 5 0
BBX 1 7 2 0
BITMAP
80
80
80
80
80
80
80
ENDCHAR
STARTCHAR 21C4
ENCODING 8644
SWIDTH 900 0
DWIDTH 10 0
BBX 8 6 1 0
BITMAP
02
FF
02
40
FF
40
ENDCHAR
STARTCHAR 21C5
ENCODING 8645
SWIDTH 720 0
DWIDTH 8 0
BBX 5 8 2 0
BITMAP
90
D0
90
90
90
90
98
90
ENDCHAR
STARTCHAR 21C6
ENCODING 8646
SWIDTH 900 0
DWIDTH 10 0
BBX 8 6 1 0
BITMAP
40
FF
40
02
FF
02
ENDCHAR
STARTCHAR 21C7
ENCODING 8647
SWIDTH 900 0
DWIDTH 10 0
BBX 8 6 1 0
BITMAP
40
FF
40
40
FF
40
ENDCHAR
STARTCHAR 21C8
ENCODING 8648
SWIDTH 720 0
DWIDTH 8 0
BBX 5 8 2 0
BITMAP
90
D8
90
90
90
90
90
90
ENDCHAR
STARTCHAR 21C9
ENCODING 8649
SWIDTH 900 0
DWIDTH 10 0
BBX 8 6 1 0
BITMAP
02
FF
02
02
FF
02
ENDCHAR
STARTCHAR 21CA
ENCODING 8650
SWIDTH 720 0
DWIDTH 8 0
BBX 5 8 2 0
BITMAP
90
90
90
90
90
90
D8
90
ENDCHAR
STARTCHAR 21CB
ENCODING 8651
SWIDTH 900 0
DWIDTH 10 0
BBX 8 4 1 1
BITMAP
20
7F
00
FE
ENDCHAR
STARTCHAR 21CC
ENCODING 8652
SWIDTH 900 0
DWIDTH 10 0
BBX 8 5 1 1
BITMAP
FE
00
00
7F
20
ENDCHAR
STARTCHAR 21CD
ENCODING 8653
SWIDTH 900 0
DWIDTH 10 0
BBX 8 5 1 1
BITMAP
12
3F
C4
7F
14
ENDCHAR
STARTCHAR 21CE
ENCODING 8654
SWIDTH 1170 0
DWIDTH 13 0
BBX 10 7 2 0
BITMAP
0400
2600
7F80
8840
FF80
3100
1000
ENDCHAR
STARTCHAR 21CF
ENCODING 8655
SWIDTH 900 0
DWIDTH 10 0
BBX 8 7 1 0
BITMAP
10
28
FE
21
FE
48
40
ENDCHAR
STARTCHAR 21D0
ENCODING 8656
SWIDTH 900 0
DWIDTH 10 0
BBX 8 5 1 1
BITMAP
10
3F
C0
7F
10
ENDCHAR
STARTCHAR 21D1
ENCODING 8657
SWIDTH 720 0
DWIDTH 8 0
BBX 5 8 2 0
BITMAP
20
60
90
98
90
90
90
90
ENDCHAR
STARTCHAR 21D2
ENCODING 8658
SWIDTH 900 0
DWIDTH 10 0
BBX 8 5 1 1
BITMAP
08
FE
01
FE
08
ENDCHAR
STARTCHAR 21D3
ENCODING 8659
SWIDTH 720 0
DWIDTH 8 0
BBX 5 8 2 0
BITMAP
90
90
90
90
98
90
60
20
ENDCHAR
STARTCHAR 21D4
ENCODING 8660
SWIDTH 1170 0
DWIDTH 13 0
BBX 11 5 1 1
BITMAP
1100
3FC0
C020
7FC0
1100
ENDCHAR
STARTCHAR 21D5
ENCODING 8661
SWIDTH 720 0
DWIDTH 8 0
BBX 5 11 2 -2
BITMAP
20
60
90
98
90
90
90
98
90
60
20
ENDCHAR
STARTCHAR 21D6
ENCODING 8662
SWIDTH 810 0
DWIDTH 9 0
BBX 7 7 1 0
BITMAP
F0
A0
90
C8
24
12
08
ENDCHAR
STARTCHAR 21D7
ENCODING 8663
SWIDTH 810 0
DWIDTH 9 0
BBX 7 7 1 0
BITMAP
1E
12
14
2C
50
A0
20
ENDCHAR
STARTCHAR 21D8
ENCODING 8664
SWIDTH 810 0
DWIDTH 9 0
BBX 7 7 1 0
BITMAP
20
A0
50
2C
14
12
1E
ENDCHAR
STARTCHAR 21D9
ENCODING 8665
SWIDTH 810 0
DWIDTH 9 0
BBX 7 7 1 0
BITMAP
08
12
24
C8
90
A0
F0
ENDCHAR
STARTCHAR 21DA
ENCODING 8666
SWIDTH 900 0
DWIDTH 10 0
BBX 8 7 1 -1
BITMAP
10
3F
40
FF
40
3F
10
ENDCHAR
STARTCHAR 21DB
ENCODING 8667
SWIDTH 900 0
DWIDTH 10 0
BBX 8 8 1 -2
BITMAP
08
08
FC
02
FF
02
FC
08
ENDCHAR
STARTCHAR 21DC
ENCODING 8668
SWIDTH 1170 0
DWIDTH 13 0
BBX 11 3 1 1
BITMAP
4480
EB60
5900
ENDCHAR
STARTCHAR 21DD
ENCODING 8669
SWIDTH 1170 0
DWIDTH 13 0
BBX 11 3 1 1
BITMAP
2440
DAE0
0940
ENDCHAR
STARTCHAR 21DE
ENCODING 8670
SWIDTH 540 0
DWIDTH 6 0
BBX 2 8 2 0
BITMAP
80
C0
80
80
C0
80
C0
80
ENDCHAR
STARTCHAR 21DF
ENCODING 8671
SWIDTH 540 0
DWIDTH 6 0
BBX 2 8 2 0
BITMAP
80
C0
80
C0
80
80
C0
80
ENDCHAR
STARTCHAR 21E0
ENCODING 8672
SWIDTH 900 0
DWIDTH 10 0
BBX 8 3 1 1
BITMAP
40
F7
40
ENDCHAR
STARTCHAR 21E1
ENCODING 8673
SWIDTH 540 0
DWIDTH 6 0
BBX 2 2 2 0
BITMAP
80
C0
ENDCHAR
STARTCHAR 21E2
ENCODING 8674
SWIDTH 900 0
DWIDTH 10 0
BBX 8 3 1 1
BITMAP
02
DF
02
ENDCHAR
STARTCHAR 21E3
ENCODING 8675
SWIDTH 540 0
DWIDTH 6 0
BBX 2 2 2 6
BITMAP
C0
80
ENDCHAR
STARTCHAR 21E4
ENCODING 8676
SWIDTH 900 0
DWIDTH 10 0
BBX 8 4 1 1
BITMAP
80
A0
FF
20
ENDCHAR
STARTCHAR 21E5
ENCODING 8677
SWIDTH 900 0
DWIDTH 10 0
BBX 8 4 1 1
BITMAP
01
05
FF
04
ENDCHAR
STARTCHAR 21E6
ENCODING 8678
SWIDTH 900 0
DWIDTH 10 0
BBX 8 5 1 1
BITMAP
10
3F
C1
7F
10
ENDCHAR
STARTCHAR 21E7
ENCODING 8679
SWIDTH 720 0
DWIDTH 8 0
BBX 4 8 2 0
BITMAP
20
D0
90
90
90
90
90
70
ENDCHAR
STARTCHAR 21E8
ENCODING 8680
SWIDTH 900 0
DWIDTH 10 0
BBX 8 5 1 1
BITMAP
08
FE
81
FE
08
ENDCHAR
STARTCHAR 21E9
ENCODING 8681
SWIDTH 720 0
DWIDTH 8 0
BBX 4 8 2 0
BITMAP
70
90
90
90
90
90
90
60
ENDCHAR
STARTCHAR 21EA
ENCODING 8682
SWIDTH 720 0
DWIDTH 8 0
BBX 4 10 2 -2
BITMAP
20
D0
90
90
90
90
70
70
90
70
ENDCHAR
STARTCHAR 2200
ENCODING 8704
SWIDTH 900 0
DWIDTH 10 0
BBX 7 8 1 0
BITMAP
82
42
7E
24
3C
38
18
18
ENDCHAR
STARTCHAR 2201
ENCODING 8705
SWIDTH 720 0
DWIDTH 8 0
BBX 6 11 1 -2
BITMAP
78
C8
84
80
80
80
80
80
84
C8
78
ENDCHAR
STARTCHAR 2202
ENCODING 8706
SWIDTH 630 0
DWIDTH 7 0
BBX 5 8 1 0
BITMAP
70
08
08
38
48
88
90
60
ENDCHAR
STARTCHAR 2203
ENCODING 8707
SWIDTH 630 0
DWIDTH 7 0
BBX 5 8 1 0
BITMAP
F8
08
08
F8
08
08
08
F8
ENDCHAR
STARTCHAR 2204
ENCODING 8708
SWIDTH 630 0
DWIDTH 7 0
BBX 5 10 1 -1
BITMAP
10
F8
18
28
28
F8
48
48
F8
80
ENDCHAR
STARTCHAR 2205
ENCODING 8709
SWIDTH 990 0
DWIDTH 11 0
BBX 9 8 1 0
BITMAP
3D00
4300
8700
8880
9080
A100
4300
BC00
ENDCHAR
STARTCHAR 2206
ENCODING 8710
SWIDTH 900 0
DWIDTH 10 0
BBX 8 8 1 0
BITMAP
10
18
28
44
44
82
82
FF
ENDCHAR
STARTCHAR 2207
ENCODING 8711
SWIDTH 900 0
DWIDTH 10 0
BBX 8 8 1 0
BITMAP
FF
82
42
44
24
28
18
10
ENDCHAR
STARTCHAR 2208
ENCODING 8712
SWIDTH 810 0
DWIDTH 9 0
BBX 7 6 1 0
BITMAP
3E
40
80
FE
80
7E
ENDCHAR
STARTCHAR 2209
ENCODING 8713
SWIDTH 810 0
DWIDTH 9 0
BBX 7 9 1 -1
BITMAP
04
04
3E
48
88
FE
90
7E
20
ENDCHAR
STARTCHAR 220A
ENCODING 8714
SWIDTH 630 0
DWIDTH 7 0
BBX 5 6 1 0
BITMAP
38
40
C0
F0
80
70
ENDCHAR
STARTCHAR 220B
ENCODING 8715
SWIDTH 810 0
DWIDTH 9 0
BBX 7 6 1 0
BITMAP
F8
04
02
FE
04
F8
ENDCHAR
STARTCHAR 220C
ENCODING 8716
SWIDTH 810 0
DWIDTH 9 0
BBX 7 9 1 -1
BITMAP
10
10
F8
14
22
FE
44
F8
40
ENDCHAR
STARTCHAR 220D
ENCODING 8717
SWIDTH 630 0
DWIDTH 7 0
BBX 5 6 1 0
BITMAP
70
08
08
78
10
E0
ENDCHAR
STARTCHAR 220E
ENCODING 8718
SWIDTH 810 0
DWIDTH 9 0
BBX 7 6 1 0
BITMAP
FE
FE
FE
FE
FE
FE
ENDCHAR
STARTCHAR 220F
ENCODING 8719
SWIDTH 900 0
DWIDTH 10 0
BBX 8 8 1 0
BITMAP
FF
42
42
42
42
42
42
E7
ENDCHAR
STARTCHAR 2210
ENCODING 8720
SWIDTH 900 0
DWIDTH 10 0
BBX 8 8 1 0
BITMAP
E7
42
42
42
42
42
42
FF
ENDCHAR
STARTCHAR 2211
ENCODING 8721
SWIDTH 810 0
DWIDTH 9 0
BBX 7 8 1 0
BITMAP
FC
44
20
10
10
20
C2
FE
ENDCHAR
STARTCHAR 2212
ENCODING 8722
SWIDTH 810 0
DWIDTH 9 0
BBX 7 1 1 3
BITMAP
FE
ENDCHAR
STARTCHAR 2213
ENCODING 8723
SWIDTH 810 0
DWIDTH 9 0
BBX 7 7 1 0
BITMAP
FE
00
10
10
FE
10
10
ENDCHAR
STARTCHAR 2214
ENCODING 8724
SWIDTH 810 0
DWIDTH 9 0
BBX 7 7 1 0
BITMAP
10
00
10
10
FE
10
10
ENDCHAR
STARTCHAR 2215
ENCODING 8725
SWIDTH 540 0
DWIDTH 6 0
BBX 3 10 1 -2
BITMAP
20
20
20
20
40
40
40
80
80
80
ENDCHAR
STARTCHAR 2216
ENCODING 8726
SWIDTH 540 0
DWIDTH 6 0
BBX 3 10 1 -2
BITMAP
80
80
80
40
40
40
20
20
20
20
ENDCHAR
STARTCHAR 2217
ENCODING 8727
SWIDTH 810 0
DWIDTH 9 0
BBX 5 6 2 0
BITMAP
20
A8
70
70
A8
20
ENDCHAR
STARTCHAR 2218
ENCODING 8728
SWIDTH 540 0
DWIDTH 6 0
BBX 4 4 1 1
BITMAP
60
90
90
60
ENDCHAR
STARTCHAR 2219
ENCODING 8729
SWIDTH 540 0
DWIDTH 6 0
BBX 4 4 1 1
BITMAP
60
F0
F0
60
ENDCHAR
STARTCHAR 221A
ENCODING 8730
SWIDTH 810 0
DWIDTH 9 0
BBX 8 11 1 -1
BITMAP
01
02
02
02
04
04
C8
48
28
30
10
ENDCHAR
STARTCHAR 221B
ENCODING 8731
SWIDTH 810 0
DWIDTH 9 0
BBX 8 11 1 -1
BITMAP
39
0A
32
0A
3C
04
C8
48
28
30
10
ENDCHAR
STARTCHAR 221C
ENCODING 8732
SWIDTH 810 0
DWIDTH 9 0
BBX 8 11 1 -1
BITMAP
11
32
52
7A
14
04
C8
48
28
30
10
ENDCHAR
STARTCHAR 221D
ENCODING 8733
SWIDTH 900 0
DWIDTH 10 0
BBX 8 5 1 0
BITMAP
67
98
88
98
67
ENDCHAR
STARTCHAR 221E
ENCODING 8734
SWIDTH 900 0
DWIDTH 10 0
BBX 8 5 1 0
BITMAP
66
99
89
99
66
ENDCHAR
STARTCHAR 221F
ENCODING 8735
SWIDTH 810 0
DWIDTH 9 0
BBX 7 6 1 0
BITMAP
80
80
80
80
80
FE
ENDCHAR
STARTCHAR 2220
ENCODING 8736
SWIDTH 810 0
DWIDTH 9 0
BBX 6 6 2 0
BITMAP
04
08
10
60
80
FC
ENDCHAR
STARTCHAR 2221
ENCODING 8737
SWIDTH 810 0
DWIDTH 9 0
BBX 6 8 2 -2
BITMAP
04
08
50
20
D0
FC
10
10
ENDCHAR
STARTCHAR 2222
ENCODING 8738
SWIDTH 810 0
DWIDTH 9 0
BBX 6 7 1 0
BITMAP
10
0C
18
E8
38
0C
10
ENDCHAR
STARTCHAR 2223
ENCODING 8739
SWIDTH 360 0
DWIDTH 4 0
BBX 1 10 2 -2
BITMAP
80
80
80
80
80
80
80
80
80
80
ENDCHAR
STARTCHAR 2224
ENCODING 8740
SWIDTH 540 0
DWIDTH 6 0
BBX 3 10 1 -2
BITMAP
40
40
40
40
20
C0
C0
40
40
40
ENDCHAR
STARTCHAR 2225
ENCODING 8741
SWIDTH 540 0
DWIDTH 6 0
BBX 3 10 2 -2
BITMAP
A0
A0
A0
A0
A0
A0
A0
A0
A0
A0
ENDCHAR
STARTCHAR 2226
ENCODING 8742
SWIDTH 720 0
DWIDTH 8 0
BBX 6 10 1 -2
BITMAP
50
50
54
48
50
30
D0
D0
50
50
ENDCHAR
STARTCHAR 2227
ENCODING 8743
SWIDTH 810 0
DWIDTH 9 0
BBX 6 6 1 0
BITMAP
10
30
28
48
44
84
ENDCHAR
STARTCHAR 2228
ENCODING 8744
SWIDTH 810 0
DWIDTH 9 0
BBX 6 6 1 0
BITMAP
84
44
48
28
30
10
ENDCHAR
STARTCHAR 2229
ENCODING 8745
SWIDTH 810 0
DWIDTH 9 0
BBX 7 6 1 0
BITMAP
38
44
82
82
82
82
ENDCHAR
STARTCHAR 222A
ENCODING 8746
SWIDTH 810 0
DWIDTH 9 0
BBX 7 6 1 0
BITMAP
82
82
82
82
44
38
ENDCHAR
STARTCHAR 222B
ENCODING 8747
SWIDTH 540 0
DWIDTH 6 0
BBX 4 10 1 -2
BITMAP
30
20
20
20
20
20
20
20
40
C0
ENDCHAR
STARTCHAR 222C
ENCODING 8748
SWIDTH 810 0
DWIDTH 9 0
BBX 7 10 1 -2
BITMAP
36
24
24
24
24
24
24
24
48
D8
ENDCHAR
STARTCHAR 222D
ENCODING 8749
SWIDTH 1080 0
DWIDTH 12 0
BBX 10 10 1 -2
BITMAP
36C0
2480
2480
2480
2480
2480
2480
2480
4880
DB00
ENDCHAR
STARTCHAR 222E
ENCODING 8750
SWIDTH 630 0
DWIDTH 7 0
BBX 5 10 1 -2
BITMAP
10
20
20
70
B0
A8
70
20
20
C0
ENDCHAR
STARTCHAR 222F
ENCODING 8751
SWIDTH 900 0
DWIDTH 10 0
BBX 8 10 1 -2
BITMAP
32
24
7C
A7
A5
7E
24
24
44
D8
ENDCHAR
STARTCHAR 2230
ENCODING 8752
SWIDTH 1170 0
DWIDTH 13 0
BBX 11 10 1 -2
BITMAP
1240
2480
2480
3F80
E4E0
A4A0
7FC0
2480
2480
DB00
ENDCHAR
STARTCHAR 2231
ENCODING 8753
SWIDTH 630 0
DWIDTH 7 0
BBX 5 10 1 -2
BITMAP
10
20
20
70
A8
28
20
20
20
C0
ENDCHAR
STARTCHAR 2232
ENCODING 8754
SWIDTH 630 0
DWIDTH 7 0
BBX 5 10 1 -2
BITMAP
10
20
20
70
A8
B0
70
20
20
C0
ENDCHAR
STARTCHAR 2233
ENCODING 8755
SWIDTH 630 0
DWIDTH 7 0
BBX 5 10 1 -2
BITMAP
10
20
20
70
A8
B0
70
20
20
C0
ENDCHAR
STARTCHAR 2234
ENCODING 8756
SWIDTH 810 0
DWIDTH 9 0
BBX 7 6 1 0
BITMAP
10
00
00
00
00
86
ENDCHAR
STARTCHAR 2235
ENCODING 8757
SWIDTH 810 0
DWIDTH 9 0
BBX 7 6 1 0
BITMAP
86
00
00
00
00
10
ENDCHAR
STARTCHAR 2236
ENCODING 8758
SWIDTH 450 0
DWIDTH 5 0
BBX 1 6 2 0
BITMAP
80
00
80
00
00
80
ENDCHAR
STARTCHAR 2237
ENCODING 8759
SWIDTH 810 0
DWIDTH 9 0
BBX 7 6 1 0
BITMAP
86
00
00
00
00
86
ENDCHAR
STARTCHAR 2238
ENCODING 8760
SWIDTH 810 0
DWIDTH 9 0
BBX 7 4 1 2
BITMAP
10
00
00
FE
ENDCHAR
STARTCHAR 2239
ENCODING 8761
SWIDTH 810 0
DWIDTH 9 0
BBX 7 7 1 -1
BITMAP
06
00
00
F8
00
00
06
ENDCHAR
STARTCHAR 223A
ENCODING 8762
SWIDTH 810 0
DWIDTH 9 0
BBX 7 7 1 -1
BITMAP
86
00
00
FE
00
00
86
ENDCHAR
STARTCHAR 223B
ENCODING 8763
SWIDTH 810 0
DWIDTH 9 0
BBX 7 6 1 0
BITMAP
10
00
72
9C
00
10
ENDCHAR
STARTCHAR 223C
ENCODING 8764
SWIDTH 810 0
DWIDTH 9 0
BBX 7 2 1 2
BITMAP
72
9C
ENDCHAR
STARTCHAR 223D
ENCODING 8765
SWIDTH 810 0
DWIDTH 9 0
BBX 7 2 1 2
BITMAP
9C
62
ENDCHAR
STARTCHAR 223E
ENCODING 8766
SWIDTH 810 0
DWIDTH 9 0
BBX 7 3 1 2
BITMAP
64
92
4C
ENDCHAR
STARTCHAR 223F
ENCODING 8767
SWIDTH 810 0
DWIDTH 9 0
BBX 7 6 1 0
BITMAP
60
A0
90
12
14
0C
ENDCHAR
STARTCHAR 2240
ENCODING 8768
SWIDTH 450 0
DWIDTH 5 0
BBX 2 9 2 -1
BITMAP
80
40
40
80
80
80
80
80
C0
ENDCHAR
STARTCHAR 2241
ENCODING 8769
SWIDTH 810 0
DWIDTH 9 0
BBX 7 4 1 1
BITMAP
10
72
9C
20
ENDCHAR
STARTCHAR 2242
ENCODING 8770
SWIDTH 810 0
DWIDTH 9 0
BBX 7 4 1 1
BITMAP
FE
00
72
9C
ENDCHAR
STARTCHAR 2243
ENCODING 8771
SWIDTH 810 0
DWIDTH 9 0
BBX 7 4 1 1
BITMAP
72
9C
00
FE
ENDCHAR
STARTCHAR 2244
ENCODING 8772
SWIDTH 810 0
DWIDTH 9 0
BBX 7 6 1 0
BITMAP
10
72
9C
20
FE
20
ENDCHAR
STARTCHAR 2245
ENCODING 8773
SWIDTH 810 0
DWIDTH 9 0
BBX 7 6 1 0
BITMAP
72
9C
00
FE
00
FE
ENDCHAR
STARTCHAR 2246
ENCODING 8774
SWIDTH 810 0
DWIDTH 9 0
BBX 7 7 1 -1
BITMAP
72
9C
10
FE
10
FE
20
ENDCHAR
STARTCHAR 2247
ENCODING 8775
SWIDTH 810 0
DWIDTH 9 0
BBX 7 8 1 -1
BITMAP
08
6A
9C
10
FE
20
FE
20
ENDCHAR
STARTCHAR 2248
ENCODING 8776
SWIDTH 810 0
DWIDTH 9 0
BBX 7 5 1 1
BITMAP
72
9C
00
72
9C
ENDCHAR
STARTCHAR 2249
ENCODING 8777
SWIDTH 810 0
DWIDTH 9 0
BBX 7 6 1 0
BITMAP
10
72
9C
62
BC
20
ENDCHAR
STARTCHAR 224A
ENCODING 8778
SWIDTH 810 0
DWIDTH 9 0
BBX 7 6 1 0
BITMAP
72
9C
72
9C
00
FE
ENDCHAR
STARTCHAR 224B
ENCODING 8779
SWIDTH 810 0
DWIDTH 9 0
BBX 7 6 1 0
BITMAP
72
9C
72
9C
72
9C
ENDCHAR
STARTCHAR 224C
ENCODING 8780
SWIDTH 810 0
DWIDTH 9 0
BBX 7 7 1 0
BITMAP
4C
92
64
00
FE
00
FE
ENDCHAR
STARTCHAR 224D
ENCODING 8781
SWIDTH 810 0
DWIDTH 9 0
BBX 6 5 1 1
BITMAP
84
78
00
38
C4
ENDCHAR
STARTCHAR 224E
ENCODING 8782
SWIDTH 810 0
DWIDTH 9 0
BBX 7 6 1 0
BITMAP
38
CE
00
00
CE
38
ENDCHAR
STARTCHAR 224F
ENCODING 8783
SWIDTH 810 0
DWIDTH 9 0
BBX 7 4 1 2
BITMAP
38
CE
00
FE
ENDCHAR
STARTCHAR 2250
ENCODING 8784
SWIDTH 810 0
DWIDTH 9 0
BBX 7 5 1 2
BITMAP
10
00
FE
00
FE
ENDCHAR
STARTCHAR 2251
ENCODING 8785
SWIDTH 810 0
DWIDTH 9 0
BBX 7 7 1 0
BITMAP
10
00
FE
00
FE
00
10
ENDCHAR
STARTCHAR 2252
ENCODING 8786
SWIDTH 810 0
DWIDTH 9 0
BBX 7 7 1 0
BITMAP
80
00
FE
00
FE
00
06
ENDCHAR
STARTCHAR 2253
ENCODING 8787
SWIDTH 810 0
DWIDTH 9 0
BBX 7 7 1 0
BITMAP
06
00
FE
00
FE
00
80
ENDCHAR
STARTCHAR 2254
ENCODING 8788
SWIDTH 810 0
DWIDTH 9 0
BBX 7 3 1 2
BITMAP
BE
00
BE
ENDCHAR
STARTCHAR 2255
ENCODING 8789
SWIDTH 810 0
DWIDTH 9 0
BBX 7 3 1 2
BITMAP
F6
00
F6
ENDCHAR
STARTCHAR 2256
ENCODING 8790
SWIDTH 810 0
DWIDTH 9 0
BBX 7 3 1 2
BITMAP
FE
28
FE
ENDCHAR
STARTCHAR 2257
ENCODING 8791
SWIDTH 810 0
DWIDTH 9 0
BBX 7 7 1 0
BITMAP
30
28
30
00
FE
00
FE
ENDCHAR
STARTCHAR 2258
ENCODING 8792
SWIDTH 810 0
DWIDTH 9 0
BBX 7 6 1 0
BITMAP
38
C4
00
FE
00
FE
ENDCHAR
STARTCHAR 2259
ENCODING 8793
SWIDTH 810 0
DWIDTH 9 0
BBX 7 8 1 0
BITMAP
10
30
28
48
00
FE
00
FE
ENDCHAR
STARTCHAR 225A
ENCODING 8794
SWIDTH 810 0
DWIDTH 9 0
BBX 7 8 1 0
BITMAP
44
48
28
30
10
FE
00
FE
ENDCHAR
STARTCHAR 225B
ENCODING 8795
SWIDTH 810 0
DWIDTH 9 0
BBX 7 8 1 0
BITMAP
10
10
38
28
00
FE
00
FE
ENDCHAR
STARTCHAR 225C
ENCODING 8796
SWIDTH 810 0
DWIDTH 9 0
BBX 7 8 1 0
BITMAP
10
30
48
78
00
FE
00
FE
ENDCHAR
STARTCHAR 225D
ENCODING 8797
SWIDTH 810 0
DWIDTH 9 0
BBX 7 7 1 0
BITMAP
06
DC
DC
00
FE
00
FE
ENDCHAR
STARTCHAR 225E
ENCODING 8798
SWIDTH 810 0
DWIDTH 9 0
BBX 7 7 1 0
BITMAP
78
58
58
00
FE
00
FE
ENDCHAR
STARTCHAR 225F
ENCODING 8799
SWIDTH 810 0
DWIDTH 9 0
BBX 7 7 1 0
BITMAP
18
10
10
10
FE
00
FE
ENDCHAR
STARTCHAR 2260
ENCODING 8800
SWIDTH 810 0
DWIDTH 9 0
BBX 7 6 1 0
BITMAP
10
FE
10
FE
20
20
ENDCHAR
STARTCHAR 2261
ENCODING 8801
SWIDTH 810 0
DWIDTH 9 0
BBX 7 5 1 1
BITMAP
FE
00
FE
00
FE
ENDCHAR
STARTCHAR 2262
ENCODING 8802
SWIDTH 810 0
DWIDTH 9 0
BBX 7 7 1 0
BITMAP
08
FE
10
FE
20
FE
20
ENDCHAR
STARTCHAR 2263
ENCODING 8803
SWIDTH 810 0
DWIDTH 9 0
BBX 7 7 1 0
BITMAP
FE
00
FE
00
FE
00
FE
ENDCHAR
STARTCHAR 2264
ENCODING 8804
SWIDTH 810 0
DWIDTH 9 0
BBX 7 7 1 0
BITMAP
04
38
C0
30
0E
00
FE
ENDCHAR
STARTCHAR 2265
ENCODING 8805
SWIDTH 810 0
DWIDTH 9 0
BBX 7 7 1 0
BITMAP
40
30
0E
18
E0
00
FE
ENDCHAR
STARTCHAR 2266
ENCODING 8806
SWIDTH 810 0
DWIDTH 9 0
BBX 7 8 1 0
BITMAP
06
18
E0
30
0E
FE
00
FE
ENDCHAR
STARTCHAR 2267
ENCODING 8807
SWIDTH 810 0
DWIDTH 9 0
BBX 7 8 1 0
BITMAP
80
70
0E
18
E0
FE
00
FE
ENDCHAR
STARTCHAR 2268
ENCODING 8808
SWIDTH 810 0
DWIDTH 9 0
BBX 7 9 1 -1
BITMAP
06
18
E0
30
1E
FE
20
FE
20
ENDCHAR
STARTCHAR 2269
ENCODING 8809
SWIDTH 810 0
DWIDTH 9 0
BBX 7 9 1 -1
BITMAP
80
70
0E
18
F0
FE
10
FE
20
ENDCHAR
STARTCHAR 226A
ENCODING 8810
SWIDTH 1080 0
DWIDTH 12 0
BBX 10 7 1 0
BITMAP
0240
0D80
3200
CC00
6600
1980
0640
ENDCHAR
STARTCHAR 226B
ENCODING 8811
SWIDTH 1080 0
DWIDTH 12 0
BBX 10 7 1 0
BITMAP
8800
6400
1B00
06C0
0980
3600
C800
ENDCHAR
STARTCHAR 226C
ENCODING 8812
SWIDTH 540 0
DWIDTH 6 0
BBX 4 10 1 -2
BITMAP
60
60
A0
90
90
90
90
A0
60
60
ENDCHAR
STARTCHAR 226D
ENCODING 8813
SWIDTH 810 0
DWIDTH 9 0
BBX 6 8 1 -1
BITMAP
10
94
78
10
38
D4
10
10
ENDCHAR
STARTCHAR 226E
ENCODING 8814
SWIDTH 810 0
DWIDTH 9 0
BBX 7 8 1 0
BITMAP
08
0A
0C
30
D0
60
38
26
ENDCHAR
STARTCHAR 226F
ENCODING 8815
SWIDTH 810 0
DWIDTH 9 0
BBX 7 8 1 0
BITMAP
08
90
70
18
16
28
30
E0
ENDCHAR
STARTCHAR 2270
ENCODING 8816
SWIDTH 810 0
DWIDTH 9 0
BBX 7 9 1 -1
BITMAP
08
0E
10
F0
30
9E
70
2E
20
ENDCHAR
STARTCHAR 2271
ENCODING 8817
SWIDTH 810 0
DWIDTH 9 0
BBX 7 9 1 -1
BITMAP
10
90
70
1E
18
E6
38
C0
40
ENDCHAR
STARTCHAR 2272
ENCODING 8818
SWIDTH 810 0
DWIDTH 9 0
BBX 7 7 1 0
BITMAP
06
18
E0
30
0E
72
9C
ENDCHAR
STARTCHAR 2273
ENCODING 8819
SWIDTH 810 0
DWIDTH 9 0
BBX 7 7 1 0
BITMAP
80
70
0E
18
E0
72
9C
ENDCHAR
STARTCHAR 2274
ENCODING 8820
SWIDTH 810 0
DWIDTH 9 0
BBX 7 9 1 -1
BITMAP
08
0C
70
70
28
24
62
BC
40
ENDCHAR
STARTCHAR 2275
ENCODING 8821
SWIDTH 810 0
DWIDTH 9 0
BBX 7 9 1 -1
BITMAP
10
90
70
1E
18
E0
62
DC
40
ENDCHAR
STARTCHAR 2276
ENCODING 8822
SWIDTH 810 0
DWIDTH 9 0
BBX 7 9 1 -1
BITMAP
06
18
E0
30
8E
70
0E
18
E0
ENDCHAR
STARTCHAR 2277
ENCODING 8823
SWIDTH 810 0
DWIDTH 9 0
BBX 7 9 1 -1
BITMAP
80
70
0E
18
E6
18
E0
30
0E
ENDCHAR
STARTCHAR 2278
ENCODING 8824
SWIDTH 810 0
DWIDTH 9 0
BBX 7 9 1 -1
BITMAP
16
18
F0
30
9E
70
1E
18
F0
ENDCHAR
STARTCHAR 2279
ENCODING 8825
SWIDTH 810 0
DWIDTH 9 0
BBX 7 9 1 -1
BITMAP
90
70
1E
18
F6
18
F0
30
1E
ENDCHAR
STARTCHAR 227A
ENCODING 8826
SWIDTH 810 0
DWIDTH 9 0
BBX 6 7 1 0
BITMAP
04
04
18
E0
38
04
04
ENDCHAR
STARTCHAR 227B
ENCODING 8827
SWIDTH 810 0
DWIDTH 9 0
BBX 7 7 1 0
BITMAP
80
40
30
0E
30
40
80
ENDCHAR
STARTCHAR 227C
ENCODING 8828
SWIDTH 810 0
DWIDTH 9 0
BBX 6 8 1 -1
BITMAP
04
04
18
E0
38
E4
1C
08
ENDCHAR
STARTCHAR 227D
ENCODING 8829
SWIDTH 810 0
DWIDTH 9 0
BBX 7 8 1 -1
BITMAP
80
40
30
0E
30
4E
B0
40
ENDCHAR
STARTCHAR 227E
ENCODING 8830
SWIDTH 810 0
DWIDTH 9 0
BBX 7 9 1 0
BITMAP
04
04
18
E0
38
04
04
72
9C
ENDCHAR
STARTCHAR 227F
ENCODING 8831
SWIDTH 810 0
DWIDTH 9 0
BBX 7 9 1 0
BITMAP
80
40
30
0E
30
40
80
72
9C
ENDCHAR
STARTCHAR 2280
ENCODING 8832
SWIDTH 810 0
DWIDTH 9 0
BBX 6 8 1 -1
BITMAP
0C
0C
18
E8
38
0C
0C
08
ENDCHAR
STARTCHAR 2281
ENCODING 8833
SWIDTH 810 0
DWIDTH 9 0
BBX 7 8 1 -1
BITMAP
A0
60
20
3E
30
60
A0
20
ENDCHAR
STARTCHAR 2282
ENCODING 8834
SWIDTH 810 0
DWIDTH 9 0
BBX 7 6 1 0
BITMAP
3E
40
80
80
40
3E
ENDCHAR
STARTCHAR 2283
ENCODING 8835
SWIDTH 810 0
DWIDTH 9 0
BBX 7 6 1 0
BITMAP
F8
04
02
02
04
F8
ENDCHAR
STARTCHAR 2284
ENCODING 8836
SWIDTH 810 0
DWIDTH 9 0
BBX 7 8 1 -1
BITMAP
04
3E
48
88
90
50
3E
20
ENDCHAR
STARTCHAR 2285
ENCODING 8837
SWIDTH 810 0
DWIDTH 9 0
BBX 7 8 1 -1
BITMAP
10
F8
14
22
22
44
F8
40
ENDCHAR
STARTCHAR 2286
ENCODING 8838
SWIDTH 810 0
DWIDTH 9 0
BBX 7 6 1 0
BITMAP
7E
80
80
7E
00
FE
ENDCHAR
STARTCHAR 2287
ENCODING 8839
SWIDTH 810 0
DWIDTH 9 0
BBX 7 6 1 0
BITMAP
FC
04
04
FC
00
FE
ENDCHAR
STARTCHAR 2288
ENCODING 8840
SWIDTH 810 0
DWIDTH 9 0
BBX 7 8 1 -1
BITMAP
08
7E
90
90
7E
20
FE
40
ENDCHAR
STARTCHAR 2289
ENCODING 8841
SWIDTH 810 0
DWIDTH 9 0
BBX 7 8 1 -1
BITMAP
10
FC
14
24
FC
40
FE
40
ENDCHAR
STARTCHAR 228A
ENCODING 8842
SWIDTH 810 0
DWIDTH 9 0
BBX 7 7 1 -1
BITMAP
7E
80
80
7E
10
FE
20
ENDCHAR
STARTCHAR 228B
ENCODING 8843
SWIDTH 810 0
DWIDTH 9 0
BBX 7 7 1 -1
BITMAP
FC
04
04
FC
10
FE
20
ENDCHAR
STARTCHAR 228C
ENCODING 8844
SWIDTH 810 0
DWIDTH 9 0
BBX 7 6 1 0
BITMAP
82
82
9E
82
44
38
ENDCHAR
STARTCHAR 228D
ENCODING 8845
SWIDTH 810 0
DWIDTH 9 0
BBX 7 6 1 0
BITMAP
82
82
92
82
44
38
ENDCHAR
STARTCHAR 228E
ENCODING 8846
SWIDTH 810 0
DWIDTH 9 0
BBX 7 6 1 0
BITMAP
82
92
BA
92
44
38
ENDCHAR
STARTCHAR 228F
ENCODING 8847
SWIDTH 810 0
DWIDTH 9 0
BBX 7 6 1 0
BITMAP
FE
80
80
80
80
FE
ENDCHAR
STARTCHAR 2290
ENCODING 8848
SWIDTH 810 0
DWIDTH 9 0
BBX 7 6 1 0
BITMAP
FE
02
02
02
02
FE
ENDCHAR
STARTCHAR 2291
ENCODING 8849
SWIDTH 810 0
DWIDTH 9 0
BBX 7 6 1 0
BITMAP
FE
80
80
FE
00
FE
ENDCHAR
STARTCHAR 2292
ENCODING 8850
SWIDTH 810 0
DWIDTH 9 0
BBX 7 6 1 0
BITMAP
FE
02
02
FE
00
FE
ENDCHAR
STARTCHAR 2293
ENCODING 8851
SWIDTH 810 0
DWIDTH 9 0
BBX 7 6 1 0
BITMAP
FE
82
82
82
82
82
ENDCHAR
STARTCHAR 2294
ENCODING 8852
SWIDTH 810 0
DWIDTH 9 0
BBX 7 7 1 0
BITMAP
82
82
82
82
82
82
FE
ENDCHAR
STARTCHAR 2295
ENCODING 8853
SWIDTH 810 0
DWIDTH 9 0
BBX 7 7 1 0
BITMAP
38
54
92
FE
92
54
38
ENDCHAR
STARTCHAR 2296
ENCODING 8854
SWIDTH 810 0
DWIDTH 9 0
BBX 7 7 1 0
BITMAP
38
44
82
FE
82
44
38
ENDCHAR
STARTCHAR 2297
ENCODING 8855
SWIDTH 810 0
DWIDTH 9 0
BBX 7 7 1 0
BITMAP
38
44
AA
92
AA
44
38
ENDCHAR
STARTCHAR 2298
ENCODING 8856
SWIDTH 810 0
DWIDTH 9 0
BBX 7 7 1 0
BITMAP
38
44
8A
92
A2
44
38
ENDCHAR
STARTCHAR 2299
ENCODING 8857
SWIDTH 810 0
DWIDTH 9 0
BBX 7 7 1 0
BITMAP
38
44
82
92
82
44
38
ENDCHAR
STARTCHAR 229A
ENCODING 8858
SWIDTH 810 0
DWIDTH 9 0
BBX 7 7 1 0
BITMAP
38
44
B2
AA
B2
44
38
ENDCHAR
STARTCHAR 229B
ENCODING 8859
SWIDTH 810 0
DWIDTH 9 0
BBX 7 7 1 0
BITMAP
38
44
9A
B2
BA
44
38
ENDCHAR
STARTCHAR 229C
ENCODING 8860
SWIDTH 810 0
DWIDTH 9 0
BBX 7 7 1 0
BITMAP
38
C4
FE
82
FE
84
78
ENDCHAR
STARTCHAR 229D
ENCODING 8861
SWIDTH 810 0
DWIDTH 9 0
BBX 7 6 1 0
BITMAP
38
44
82
BA
44
38
ENDCHAR
STARTCHAR 229E
ENCODING 8862
SWIDTH 810 0
DWIDTH 9 0
BBX 7 6 1 0
BITMAP
FE
92
92
FE
92
FE
ENDCHAR
STARTCHAR 229F
ENCODING 8863
SWIDTH 810 0
DWIDTH 9 0
BBX 7 6 1 0
BITMAP
FE
82
82
FE
82
FE
ENDCHAR
STARTCHAR 22A0
ENCODING 8864
SWIDTH 810 0
DWIDTH 9 0
BBX 7 6 1 0
BITMAP
FE
CA
B2
B2
CA
FE
ENDCHAR
STARTCHAR 22A1
ENCODING 8865
SWIDTH 810 0
DWIDTH 9 0
BBX 7 6 1 0
BITMAP
FE
82
92
82
82
FE
ENDCHAR
STARTCHAR 22A2
ENCODING 8866
SWIDTH 810 0
DWIDTH 9 0
BBX 7 6 1 0
BITMAP
80
80
80
FE
80
80
ENDCHAR
STARTCHAR 22A3
ENCODING 8867
SWIDTH 810 0
DWIDTH 9 0
BBX 7 6 1 0
BITMAP
02
02
02
FE
02
02
ENDCHAR
STARTCHAR 22A4
ENCODING 8868
SWIDTH 810 0
DWIDTH 9 0
BBX 7 6 1 0
BITMAP
FE
10
10
10
10
10
ENDCHAR
STARTCHAR 22A5
ENCODING 8869
SWIDTH 810 0
DWIDTH 9 0
BBX 7 6 1 0
BITMAP
10
10
10
10
10
FE
ENDCHAR
STARTCHAR 22A6
ENCODING 8870
SWIDTH 540 0
DWIDTH 6 0
BBX 3 6 2 0
BITMAP
80
80
80
E0
80
80
ENDCHAR
STARTCHAR 22A7
ENCODING 8871
SWIDTH 540 0
DWIDTH 6 0
BBX 3 6 2 0
BITMAP
80
80
E0
80
E0
80
ENDCHAR
STARTCHAR 22A8
ENCODING 8872
SWIDTH 810 0
DWIDTH 9 0
BBX 7 6 1 0
BITMAP
80
80
FE
80
FE
80
ENDCHAR
STARTCHAR 22A9
ENCODING 8873
SWIDTH 810 0
DWIDTH 9 0
BBX 7 6 1 0
BITMAP
C0
C0
C0
BE
C0
C0
ENDCHAR
STARTCHAR 22AA
ENCODING 8874
SWIDTH 810 0
DWIDTH 9 0
BBX 7 6 1 0
BITMAP
D0
D0
D0
DE
D0
D0
ENDCHAR
STARTCHAR 22AB
ENCODING 8875
SWIDTH 810 0
DWIDTH 9 0
BBX 7 6 1 0
BITMAP
C0
C0
BE
C0
BE
C0
ENDCHAR
STARTCHAR 22AC
ENCODING 8876
SWIDTH 810 0
DWIDTH 9 0
BBX 7 6 1 0
BITMAP
88
90
90
FE
A0
A0
ENDCHAR
STARTCHAR 22AD
ENCODING 8877
SWIDTH 810 0
DWIDTH 9 0
BBX 7 6 1 0
BITMAP
88
90
FE
90
FE
A0
ENDCHAR
STARTCHAR 22AE
ENCODING 8878
SWIDTH 810 0
DWIDTH 9 0
BBX 7 6 1 0
BITMAP
C8
C8
C8
BE
D0
E0
ENDCHAR
STARTCHAR 22AF
ENCODING 8879
SWIDTH 810 0
DWIDTH 9 0
BBX 7 6 1 0
BITMAP
C8
C8
BE
D0
BE
D0
ENDCHAR
STARTCHAR 22B0
ENCODING 8880
SWIDTH 810 0
DWIDTH 9 0
BBX 7 9 1 0
BITMAP
04
02
04
18
E0
30
0C
02
04
ENDCHAR
STARTCHAR 22B1
ENCODING 8881
SWIDTH 810 0
DWIDTH 9 0
BBX 7 9 1 0
BITMAP
C0
80
40
30
0E
38
40
80
C0
ENDCHAR
STARTCHAR 22B2
ENCODING 8882
SWIDTH 810 0
DWIDTH 9 0
BBX 6 6 1 0
BITMAP
80
E0
98
8C
B0
C0
ENDCHAR
STARTCHAR 22B3
ENCODING 8883
SWIDTH 810 0
DWIDTH 9 0
BBX 6 6 2 0
BITMAP
0C
34
C4
84
74
0C
ENDCHAR
STARTCHAR 22B4
ENCODING 8884
SWIDTH 810 0
DWIDTH 9 0
BBX 7 6 1 0
BITMAP
06
1A
E2
32
0E
FE
ENDCHAR
STARTCHAR 22B5
ENCODING 8885
SWIDTH 810 0
DWIDTH 9 0
BBX 7 6 1 0
BITMAP
80
F0
8E
98
E0
FE
ENDCHAR
STARTCHAR 22B6
ENCODING 8886
SWIDTH 900 0
DWIDTH 10 0
BBX 8 3 1 2
BITMAP
63
BF
63
ENDCHAR
STARTCHAR 22B7
ENCODING 8887
SWIDTH 900 0
DWIDTH 10 0
BBX 8 3 1 2
BITMAP
63
FD
63
ENDCHAR
STARTCHAR 22B8
ENCODING 8888
SWIDTH 810 0
DWIDTH 9 0
BBX 7 3 1 2
BITMAP
0C
F2
0C
ENDCHAR
STARTCHAR 22B9
ENCODING 8889
SWIDTH 810 0
DWIDTH 9 0
BBX 7 7 1 -1
BITMAP
10
10
00
CE
00
10
10
ENDCHAR
STARTCHAR 22BA
ENCODING 8890
SWIDTH 630 0
DWIDTH 7 0
BBX 5 6 1 -2
BITMAP
F8
20
20
20
20
20
ENDCHAR
STARTCHAR 22BB
ENCODING 8891
SWIDTH 810 0
DWIDTH 9 0
BBX 6 7 1 0
BITMAP
48
48
50
30
00
00
FC
ENDCHAR
STARTCHAR 22BC
ENCODING 8892
SWIDTH 810 0
DWIDTH 9 0
BBX 7 7 1 0
BITMAP
FE
00
10
30
28
48
44
ENDCHAR
STARTCHAR 22BD
ENCODING 8893
SWIDTH 810 0
DWIDTH 9 0
BBX 7 7 1 0
BITMAP
FE
00
44
48
28
30
10
ENDCHAR
STARTCHAR 22BE
ENCODING 8894
SWIDTH 810 0
DWIDTH 9 0
BBX 7 6 1 0
BITMAP
80
80
E0
90
88
FE
ENDCHAR
STARTCHAR 22BF
ENCODING 8895
SWIDTH 810 0
DWIDTH 9 0
BBX 6 6 2 0
BITMAP
04
0C
34
44
84
FC
ENDCHAR
STARTCHAR 22C0
ENCODING 8896
SWIDTH 810 0
DWIDTH 9 0
BBX 6 6 1 0
BITMAP
10
10
28
28
44
C4
ENDCHAR
STARTCHAR 22C1
ENCODING 8897
SWIDTH 810 0
DWIDTH 9 0
BBX 6 6 1 0
BITMAP
C4
44
28
28
10
10
ENDCHAR
STARTCHAR 22C2
ENCODING 8898
SWIDTH 810 0
DWIDTH 9 0
BBX 7 6 1 0
BITMAP
38
44
86
86
86
86
ENDCHAR
STARTCHAR 22C3
ENCODING 8899
SWIDTH 810 0
DWIDTH 9 0
BBX 7 6 1 0
BITMAP
86
86
86
86
44
38
ENDCHAR
STARTCHAR 22C4
ENCODING 8900
SWIDTH 810 0
DWIDTH 9 0
BBX 7 7 1 0
BITMAP
10
28
44
82
44
28
10
ENDCHAR
STARTCHAR 22C5
ENCODING 8901
SWIDTH 450 0
DWIDTH 5 0
BBX 1 1 2 3
BITMAP
80
ENDCHAR
STARTCHAR 22C6
ENCODING 8902
SWIDTH 810 0
DWIDTH 9 0
BBX 5 4 2 1
BITMAP
20
F8
20
50
ENDCHAR
STARTCHAR 22C7
ENCODING 8903
SWIDTH 810 0
DWIDTH 9 0
BBX 7 7 1 -1
BITMAP
84
58
30
FE
28
58
84
ENDCHAR
STARTCHAR 22C8
ENCODING 8904
SWIDTH 990 0
DWIDTH 11 0
BBX 9 6 1 0
BITMAP
8080
E380
9480
9C80
A280
C180
ENDCHAR
STARTCHAR 22C9
ENCODING 8905
SWIDTH 810 0
DWIDTH 9 0
BBX 6 6 1 0
BITMAP
84
C8
B0
B0
C8
84
ENDCHAR
STARTCHAR 22CA
ENCODING 8906
SWIDTH 810 0
DWIDTH 9 0
BBX 7 6 1 0
BITMAP
86
4A
32
32
4A
86
ENDCHAR
STARTCHAR 22CB
ENCODING 8907
SWIDTH 810 0
DWIDTH 9 0
BBX 6 6 1 0
BITMAP
80
40
20
30
48
84
ENDCHAR
STARTCHAR 22CC
ENCODING 8908
SWIDTH 810 0
DWIDTH 9 0
BBX 6 6 1 0
BITMAP
04
08
10
30
48
84
ENDCHAR
STARTCHAR 22CD
ENCODING 8909
SWIDTH 810 0
DWIDTH 9 0
BBX 7 4 1 1
BITMAP
9C
62
00
FE
ENDCHAR
STARTCHAR 22CE
ENCODING 8910
SWIDTH 810 0
DWIDTH 9 0
BBX 7 6 1 0
BITMAP
82
4C
28
10
10
10
ENDCHAR
STARTCHAR 22CF
ENCODING 8911
SWIDTH 810 0
DWIDTH 9 0
BBX 7 6 1 0
BITMAP
10
10
10
28
4C
82
ENDCHAR
STARTCHAR 22D0
ENCODING 8912
SWIDTH 810 0
DWIDTH 9 0
BBX 7 6 1 0
BITMAP
3E
40
BE
BE
40
3E
ENDCHAR
STARTCHAR 22D1
ENCODING 8913
SWIDTH 810 0
DWIDTH 9 0
BBX 7 6 1 0
BITMAP
F8
04
FA
FA
04
F8
ENDCHAR
STARTCHAR 22D2
ENCODING 8914
SWIDTH 810 0
DWIDTH 9 0
BBX 7 6 1 0
BITMAP
CA
CA
CA
BA
44
38
ENDCHAR
STARTCHAR 22D3
ENCODING 8915
SWIDTH 810 0
DWIDTH 9 0
BBX 7 6 1 0
BITMAP
38
7C
CA
CA
CA
CA
ENDCHAR
STARTCHAR 22D4
ENCODING 8916
SWIDTH 810 0
DWIDTH 9 0
BBX 7 8 1 0
BITMAP
10
10
38
54
92
92
92
92
ENDCHAR
STARTCHAR 22D5
ENCODING 8917
SWIDTH 810 0
DWIDTH 9 0
BBX 7 6 1 0
BITMAP
28
28
FE
28
FE
28
ENDCHAR
STARTCHAR 22D6
ENCODING 8918
SWIDTH 810 0
DWIDTH 9 0
BBX 7 7 1 0
BITMAP
02
0C
30
C4
60
18
06
ENDCHAR
STARTCHAR 22D7
ENCODING 8919
SWIDTH 810 0
DWIDTH 9 0
BBX 7 7 1 0
BITMAP
80
60
18
46
08
30
C0
ENDCHAR
STARTCHAR 22D8
ENCODING 8920
SWIDTH 1440 0
DWIDTH 16 0
BBX 14 7 1 0
BITMAP
0244
0D98
3260
CD80
6640
19B0
064C
ENDCHAR
STARTCHAR 22D9
ENCODING 8921
SWIDTH 1440 0
DWIDTH 16 0
BBX 14 7 1 0
BITMAP
8900
64C0
1B30
06CC
0990
3660
C980
ENDCHAR
STARTCHAR 22DA
ENCODING 8922
SWIDTH 810 0
DWIDTH 9 0
BBX 7 13 1 -2
BITMAP
06
18
E0
30
0E
00
FE
00
80
70
0E
18
E0
ENDCHAR
STARTCHAR 22DB
ENCODING 8923
SWIDTH 810 0
DWIDTH 9 0
BBX 7 13 1 -2
BITMAP
80
70
0E
18
E0
00
FE
00
06
18
E0
30
0E
ENDCHAR
STARTCHAR 22DC
ENCODING 8924
SWIDTH 810 0
DWIDTH 9 0
BBX 7 7 1 0
BITMAP
06
18
E6
18
E0
30
0E
ENDCHAR
STARTCHAR 22DD
ENCODING 8925
SWIDTH 810 0
DWIDTH 9 0
BBX 7 7 1 0
BITMAP
80
70
8E
70
0E
18
E0
ENDCHAR
STARTCHAR 22DE
ENCODING 8926
SWIDTH 810 0
DWIDTH 9 0
BBX 6 7 1 0
BITMAP
0C
F4
18
E0
38
04
04
ENDCHAR
STARTCHAR 22DF
ENCODING 8927
SWIDTH 810 0
DWIDTH 9 0
BBX 7 7 1 0
BITMAP
A0
5E
30
0E
30
40
80
ENDCHAR
STARTCHAR 22E0
ENCODING 8928
SWIDTH 810 0
DWIDTH 9 0
BBX 7 10 1 -2
BITMAP
0C
0C
18
E8
38
0C
0C
FE
08
08
ENDCHAR
STARTCHAR 22E1
ENCODING 8929
SWIDTH 810 0
DWIDTH 9 0
BBX 7 10 1 -2
BITMAP
A0
60
20
3E
30
60
A0
FE
20
20
ENDCHAR
STARTCHAR 22E2
ENCODING 8930
SWIDTH 810 0
DWIDTH 9 0
BBX 7 9 1 -1
BITMAP
08
08
FE
90
90
FE
20
FE
20
ENDCHAR
STARTCHAR 22E3
ENCODING 8931
SWIDTH 810 0
DWIDTH 9 0
BBX 7 9 1 -1
BITMAP
08
08
FE
12
12
FE
20
FE
20
ENDCHAR
STARTCHAR 22E4
ENCODING 8932
SWIDTH 810 0
DWIDTH 9 0
BBX 7 7 1 -1
BITMAP
FE
80
80
FE
00
FE
20
ENDCHAR
STARTCHAR 22E5
ENCODING 8933
SWIDTH 810 0
DWIDTH 9 0
BBX 7 7 1 -1
BITMAP
FE
02
02
FE
00
FE
20
ENDCHAR
STARTCHAR 22E6
ENCODING 8934
SWIDTH 810 0
DWIDTH 9 0
BBX 7 8 1 -1
BITMAP
06
18
E0
30
1E
72
AC
20
ENDCHAR
STARTCHAR 22E7
ENCODING 8935
SWIDTH 810 0
DWIDTH 9 0
BBX 7 8 1 -1
BITMAP
80
70
0E
18
F0
72
AC
20
ENDCHAR
STARTCHAR 22E8
ENCODING 8936
SWIDTH 810 0
DWIDTH 9 0
BBX 7 10 1 -1
BITMAP
04
04
18
E0
38
04
14
72
AC
20
ENDCHAR
STARTCHAR 22E9
ENCODING 8937
SWIDTH 810 0
DWIDTH 9 0
BBX 7 10 1 -1
BITMAP
80
40
30
0E
30
40
90
72
AC
20
ENDCHAR
STARTCHAR 22EA
ENCODING 8938
SWIDTH 810 0
DWIDTH 9 0
BBX 6 8 2 -1
BITMAP
10
1C
34
E4
A4
74
4C
40
ENDCHAR
STARTCHAR 22EB
ENCODING 8939
SWIDTH 810 0
DWIDTH 9 0
BBX 6 8 1 -1
BITMAP
08
90
F0
98
AC
B0
C0
40
ENDCHAR
STARTCHAR 22EC
ENCODING 8940
SWIDTH 810 0
DWIDTH 9 0
BBX 7 8 1 -1
BITMAP
08
0E
12
F2
32
2E
FE
20
ENDCHAR
STARTCHAR 22ED
ENCODING 8941
SWIDTH 810 0
DWIDTH 9 0
BBX 7 8 1 -1
BITMAP
10
90
F0
AE
B8
C0
FE
80
ENDCHAR
STARTCHAR 22EE
ENCODING 8942
SWIDTH 810 0
DWIDTH 9 0
BBX 1 7 4 0
BITMAP
80
00
00
80
00
00
80
ENDCHAR
STARTCHAR 22EF
ENCODING 8943
SWIDTH 810 0
DWIDTH 9 0
BBX 7 1 1 3
BITMAP
96
ENDCHAR
STARTCHAR 22F0
ENCODING 8944
SWIDTH 810 0
DWIDTH 9 0
BBX 7 7 1 0
BITMAP
06
00
00
10
00
00
80
ENDCHAR
STARTCHAR 22F1
ENCODING 8945
SWIDTH 810 0
DWIDTH 9 0
BBX 7 7 1 0
BITMAP
80
00
00
10
00
00
06
ENDCHAR
STARTCHAR 2302
ENCODING 8962
SWIDTH 810 0
DWIDTH 9 0
BBX 8 8 1 0
BITMAP
10
28
44
82
81
81
81
FF
ENDCHAR
STARTCHAR 2306
ENCODING 8966
SWIDTH 810 0
DWIDTH 9 0
BBX 7 8 1 0
BITMAP
FE
00
FE
10
30
28
48
44
ENDCHAR
STARTCHAR 2308
ENCODING 8968
SWIDTH 540 0
DWIDTH 6 0
BBX 3 10 2 -2
BITMAP
E0
80
80
80
80
80
80
80
80
80
ENDCHAR
STARTCHAR 2309
ENCODING 8969
SWIDTH 540 0
DWIDTH 6 0
BBX 3 10 1 -2
BITMAP
E0
20
20
20
20
20
20
20
20
20
ENDCHAR
STARTCHAR 230A
ENCODING 8970
SWIDTH 540 0
DWIDTH 6 0
BBX 3 10 2 -2
BITMAP
80
80
80
80
80
80
80
80
80
E0
ENDCHAR
STARTCHAR 230B
ENCODING 8971
SWIDTH 540 0
DWIDTH 6 0
BBX 3 10 1 -2
BITMAP
20
20
20
20
20
20
20
20
20
E0
ENDCHAR
STARTCHAR 2320
ENCODING 8992
SWIDTH 450 0
DWIDTH 5 0
BBX 3 11 2 -2
BITMAP
E0
80
80
80
80
80
80
80
80
80
80
ENDCHAR
STARTCHAR 2321
ENCODING 8993
SWIDTH 450 0
DWIDTH 5 0
BBX 3 11 0 -2
BITMAP
20
20
20
20
20
20
20
20
20
40
C0
ENDCHAR
STARTCHAR 2322
ENCODING 8994
SWIDTH 810 0
DWIDTH 9 0
BBX 6 2 1 2
BITMAP
38
C4
ENDCHAR
STARTCHAR 2323
ENCODING 8995
SWIDTH 810 0
DWIDTH 9 0
BBX 6 2 1 2
BITMAP
84
78
ENDCHAR
STARTCHAR 2400
ENCODING 9216
SWIDTH 990 0
DWIDTH 11 0
BBX 10 4 1 0
BITMAP
9500
D500
D500
4DC0
ENDCHAR
STARTCHAR 2401
ENCODING 9217
SWIDTH 990 0
DWIDTH 11 0
BBX 9 4 1 0
BITMAP
DE80
9680
5580
DE80
ENDCHAR
STARTCHAR 2402
ENCODING 9218
SWIDTH 990 0
DWIDTH 11 0
BBX 9 4 1 0
BITMAP
DD80
8980
4980
CA80
ENDCHAR
STARTCHAR 2403
ENCODING 9219
SWIDTH 990 0
DWIDTH 11 0
BBX 9 4 1 0
BITMAP
DD80
8980
C980
CA80
ENDCHAR
STARTCHAR 2404
ENCODING 9220
SWIDTH 990 0
DWIDTH 11 0
BBX 10 4 1 0
BITMAP
DDC0
9500
D500
DD00
ENDCHAR
STARTCHAR 2405
ENCODING 9221
SWIDTH 990 0
DWIDTH 11 0
BBX 9 5 1 -1
BITMAP
D580
9E80
DE80
D580
0080
ENDCHAR
STARTCHAR 2406
ENCODING 9222
SWIDTH 990 0
DWIDTH 11 0
BBX 10 4 0 0
BITMAP
46C0
A8C0
68C0
A6C0
ENDCHAR
STARTCHAR 2407
ENCODING 9223
SWIDTH 990 0
DWIDTH 11 0
BBX 10 4 1 0
BITMAP
CD00
D100
CD00
CDC0
ENDCHAR
STARTCHAR 2408
ENCODING 9224
SWIDTH 990 0
DWIDTH 11 0
BBX 7 4 2 0
BITMAP
EC
A8
C6
EC
ENDCHAR
STARTCHAR 2409
ENCODING 9225
SWIDTH 990 0
DWIDTH 11 0
BBX 7 4 2 0
BITMAP
AE
A4
E4
A4
ENDCHAR
STARTCHAR 240A
ENCODING 9226
SWIDTH 990 0
DWIDTH 11 0
BBX 7 4 2 0
BITMAP
8E
88
8E
E8
ENDCHAR
STARTCHAR 240B
ENCODING 9227
SWIDTH 900 0
DWIDTH 10 0
BBX 8 4 1 0
BITMAP
9F
64
64
24
ENDCHAR
STARTCHAR 240C
ENCODING 9228
SWIDTH 990 0
DWIDTH 11 0
BBX 7 4 2 0
BITMAP
EE
88
EE
88
ENDCHAR
STARTCHAR 240D
ENCODING 9229
SWIDTH 990 0
DWIDTH 11 0
BBX 7 4 2 0
BITMAP
EC
8A
8C
EA
ENDCHAR
STARTCHAR 240E
ENCODING 9230
SWIDTH 990 0
DWIDTH 11 0
BBX 7 4 2 0
BITMAP
CC
8A
4A
CC
ENDCHAR
STARTCHAR 240F
ENCODING 9231
SWIDTH 990 0
DWIDTH 11 0
BBX 7 4 2 0
BITMAP
CE
84
64
EE
ENDCHAR
STARTCHAR 2410
ENCODING 9232
SWIDTH 990 0
DWIDTH 11 0
BBX 10 4 1 0
BITMAP
C980
A900
A980
CDC0
ENDCHAR
STARTCHAR 2411
ENCODING 9233
SWIDTH 990 0
DWIDTH 11 0
BBX 10 4 1 0
BITMAP
CD80
B080
B080
CDC0
ENDCHAR
STARTCHAR 2412
ENCODING 9234
SWIDTH 990 0
DWIDTH 11 0
BBX 9 4 1 0
BITMAP
CC80
B180
B100
CD80
ENDCHAR
STARTCHAR 2413
ENCODING 9235
SWIDTH 990 0
DWIDTH 11 0
BBX 9 4 1 0
BITMAP
CD80
B080
B180
CD80
ENDCHAR
STARTCHAR 2414
ENCODING 9236
SWIDTH 990 0
DWIDTH 11 0
BBX 9 4 1 0
BITMAP
CC80
B180
B180
CC80
ENDCHAR
STARTCHAR 2415
ENCODING 9237
SWIDTH 990 0
DWIDTH 11 0
BBX 9 4 1 0
BITMAP
8980
D980
CD80
5580
ENDCHAR
STARTCHAR 2416
ENCODING 9238
SWIDTH 990 0
DWIDTH 11 0
BBX 9 4 1 0
BITMAP
D500
9980
4A80
C880
ENDCHAR
STARTCHAR 2417
ENCODING 9239
SWIDTH 990 0
DWIDTH 11 0
BBX 9 4 1 0
BITMAP
DD80
8A80
C980
C980
ENDCHAR
STARTCHAR 2418
ENCODING 9240
SWIDTH 990 0
DWIDTH 11 0
BBX 9 4 1 0
BITMAP
E900
9980
9E80
F480
ENDCHAR
STARTCHAR 2419
ENCODING 9241
SWIDTH 990 0
DWIDTH 11 0
BBX 7 4 2 0
BITMAP
CA
8A
CE
EA
ENDCHAR
STARTCHAR 241A
ENCODING 9242
SWIDTH 990 0
DWIDTH 11 0
BBX 9 4 1 0
BITMAP
D580
9680
5580
DD80
ENDCHAR
STARTCHAR 241B
ENCODING 9243
SWIDTH 990 0
DWIDTH 11 0
BBX 10 4 1 0
BITMAP
DDC0
9100
CD00
DDC0
ENDCHAR
STARTCHAR 241C
ENCODING 9244
SWIDTH 990 0
DWIDTH 11 0
BBX 7 4 2 0
BITMAP
EC
88
E6
8E
ENDCHAR
STARTCHAR 241D
ENCODING 9245
SWIDTH 990 0
DWIDTH 11 0
BBX 7 4 2 0
BITMAP
EE
88
A6
EE
ENDCHAR
STARTCHAR 241E
ENCODING 9246
SWIDTH 990 0
DWIDTH 11 0
BBX 7 4 2 0
BITMAP
CE
A8
C6
CE
ENDCHAR
STARTCHAR 241F
ENCODING 9247
SWIDTH 990 0
DWIDTH 11 0
BBX 7 4 2 0
BITMAP
AE
AC
A2
EE
ENDCHAR
STARTCHAR 2420
ENCODING 9248
SWIDTH 990 0
DWIDTH 11 0
BBX 7 4 2 0
BITMAP
CE
8E
68
C8
ENDCHAR
STARTCHAR 2421
ENCODING 9249
SWIDTH 990 0
DWIDTH 11 0
BBX 10 4 1 0
BITMAP
CD00
B100
AD00
CDC0
ENDCHAR
STARTCHAR 2422
ENCODING 9250
SWIDTH 990 0
DWIDTH 11 0
BBX 7 8 2 0
BITMAP
24
28
3C
22
22
62
A2
BC
ENDCHAR
STARTCHAR 2423
ENCODING 9251
SWIDTH 270 0
DWIDTH 3 0
BBX 3 2 0 -2
BITMAP
A0
E0
ENDCHAR
STARTCHAR 2424
ENCODING 9252
SWIDTH 990 0
DWIDTH 11 0
BBX 7 4 2 0
BITMAP
A8
E8
E8
A6
ENDCHAR
STARTCHAR 2500
ENCODING 9472
SWIDTH 990 0
DWIDTH 11 0
BBX 11 1 0 3
BITMAP
FFE0
ENDCHAR
STARTCHAR 2501
ENCODING 9473
SWIDTH 990 0
DWIDTH 11 0
BBX 11 1 0 3
BITMAP
FFE0
ENDCHAR
STARTCHAR 2502
ENCODING 9474
SWIDTH 990 0
DWIDTH 11 0
BBX 1 11 5 -2
BITMAP
80
80
80
80
80
80
80
80
80
80
80
ENDCHAR
STARTCHAR 2503
ENCODING 9475
SWIDTH 990 0
DWIDTH 11 0
BBX 1 11 5 -2
BITMAP
80
80
80
80
80
80
80
80
80
80
80
ENDCHAR
STARTCHAR 2504
ENCODING 9476
SWIDTH 990 0
DWIDTH 11 0
BBX 11 1 0 3
BITMAP
EEE0
ENDCHAR
STARTCHAR 2505
ENCODING 9477
SWIDTH 990 0
DWIDTH 11 0
BBX 11 1 0 3
BITMAP
EEE0
ENDCHAR
STARTCHAR 2506
ENCODING 9478
SWIDTH 990 0
DWIDTH 11 0
BBX 1 11 5 -3
BITMAP
80
80
80
00
80
80
80
00
80
80
80
ENDCHAR
STARTCHAR 2507
ENCODING 9479
SWIDTH 990 0
DWIDTH 11 0
BBX 1 11 5 -3
BITMAP
80
80
80
00
80
80
80
00
80
80
80
ENDCHAR
STARTCHAR 2508
ENCODING 9480
SWIDTH 990 0
DWIDTH 11 0
BBX 11 1 0 3
BITMAP
DB60
ENDCHAR
STARTCHAR 2509
ENCODING 9481
SWIDTH 990 0
DWIDTH 11 0
BBX 11 1 0 3
BITMAP
DB60
ENDCHAR
STARTCHAR 250A
ENCODING 9482
SWIDTH 990 0
DWIDTH 11 0
BBX 1 11 5 -3
BITMAP
80
80
00
80
80
00
80
80
00
80
80
ENDCHAR
STARTCHAR 250B
ENCODING 9483
SWIDTH 990 0
DWIDTH 11 0
BBX 1 11 5 -3
BITMAP
80
80
00
80
80
00
80
80
00
80
80
ENDCHAR
STARTCHAR 250C
ENCODING 9484
SWIDTH 990 0
DWIDTH 11 0
BBX 6 6 5 -2
BITMAP
FC
80
80
80
80
80
ENDCHAR
STARTCHAR 250D
ENCODING 9485
SWIDTH 990 0
DWIDTH 11 0
BBX 6 6 5 -2
BITMAP
FC
80
80
80
80
80
ENDCHAR
STARTCHAR 250E
ENCODING 9486
SWIDTH 990 0
DWIDTH 11 0
BBX 6 6 5 -2
BITMAP
FC
80
80
80
80
80
ENDCHAR
STARTCHAR 250F
ENCODING 9487
SWIDTH 990 0
DWIDTH 11 0
BBX 6 6 5 -2
BITMAP
FC
80
80
80
80
80
ENDCHAR
STARTCHAR 2510
ENCODING 9488
SWIDTH 990 0
DWIDTH 11 0
BBX 6 6 0 -2
BITMAP
FC
04
04
04
04
04
ENDCHAR
STARTCHAR 2511
ENCODING 9489
SWIDTH 990 0
DWIDTH 11 0
BBX 6 6 0 -2
BITMAP
FC
04
04
04
04
04
ENDCHAR
STARTCHAR 2512
ENCODING 9490
SWIDTH 990 0
DWIDTH 11 0
BBX 6 6 0 -2
BITMAP
FC
04
04
04
04
04
ENDCHAR
STARTCHAR 2513
ENCODING 9491
SWIDTH 990 0
DWIDTH 11 0
BBX 6 6 0 -2
BITMAP
FC
04
04
04
04
04
ENDCHAR
STARTCHAR 2514
ENCODING 9492
SWIDTH 990 0
DWIDTH 11 0
BBX 6 6 5 3
BITMAP
80
80
80
80
80
FC
ENDCHAR
STARTCHAR 2515
ENCODING 9493
SWIDTH 990 0
DWIDTH 11 0
BBX 6 6 5 3
BITMAP
80
80
80
80
80
FC
ENDCHAR
STARTCHAR 2516
ENCODING 9494
SWIDTH 990 0
DWIDTH 11 0
BBX 6 6 5 3
BITMAP
80
80
80
80
80
FC
ENDCHAR
STARTCHAR 2517
ENCODING 9495
SWIDTH 990 0
DWIDTH 11 0
BBX 6 6 5 3
BITMAP
80
80
80
80
80
FC
ENDCHAR
STARTCHAR 2518
ENCODING 9496
SWIDTH 990 0
DWIDTH 11 0
BBX 6 6 0 3
BITMAP
04
04
04
04
04
FC
ENDCHAR
STARTCHAR 2519
ENCODING 9497
SWIDTH 990 0
DWIDTH 11 0
BBX 6 6 0 3
BITMAP
04
04
04
04
04
FC
ENDCHAR
STARTCHAR 251A
ENCODING 9498
SWIDTH 990 0
DWIDTH 11 0
BBX 6 6 0 3
BITMAP
04
04
04
04
04
FC
ENDCHAR
STARTCHAR 251B
ENCODING 9499
SWIDTH 990 0
DWIDTH 11 0
BBX 6 6 0 3
BITMAP
04
04
04
04
04
FC
ENDCHAR
STARTCHAR 251C
ENCODING 9500
SWIDTH 990 0
DWIDTH 11 0
BBX 6 11 5 -2
BITMAP
80
80
80
80
80
FC
80
80
80
80
80
ENDCHAR
STARTCHAR 251D
ENCODING 9501
SWIDTH 990 0
DWIDTH 11 0
BBX 6 11 5 -2
BITMAP
80
80
80
80
80
FC
80
80
80
80
80
ENDCHAR
STARTCHAR 251E
ENCODING 9502
SWIDTH 990 0
DWIDTH 11 0
BBX 6 11 5 -2
BITMAP
80
80
80
80
80
FC
80
80
80
80
80
ENDCHAR
STARTCHAR 251F
ENCODING 9503
SWIDTH 990 0
DWIDTH 11 0
BBX 6 11 5 -2
BITMAP
80
80
80
80
80
FC
80
80
80
80
80
ENDCHAR
STARTCHAR 2520
ENCODING 9504
SWIDTH 990 0
DWIDTH 11 0
BBX 6 11 5 -2
BITMAP
80
80
80
80
80
FC
80
80
80
80
80
ENDCHAR
STARTCHAR 2521
ENCODING 9505
SWIDTH 990 0
DWIDTH 11 0
BBX 6 11 5 -2
BITMAP
80
80
80
80
80
FC
80
80
80
80
80
ENDCHAR
STARTCHAR 2522
ENCODING 9506
SWIDTH 990 0
DWIDTH 11 0
BBX 6 11 5 -2
BITMAP
80
80
80
80
80
FC
80
80
80
80
80
ENDCHAR
STARTCHAR 2523
ENCODING 9507
SWIDTH 990 0
DWIDTH 11 0
BBX 6 11 5 -2
BITMAP
80
80
80
80
80
FC
80
80
80
80
80
ENDCHAR
STARTCHAR 2524
ENCODING 9508
SWIDTH 990 0
DWIDTH 11 0
BBX 6 11 0 -2
BITMAP
04
04
04
04
04
FC
04
04
04
04
04
ENDCHAR
STARTCHAR 2525
ENCODING 9509
SWIDTH 990 0
DWIDTH 11 0
BBX 6 11 0 -2
BITMAP
04
04
04
04
04
FC
04
04
04
04
04
ENDCHAR
STARTCHAR 2526
ENCODING 9510
SWIDTH 990 0
DWIDTH 11 0
BBX 6 11 0 -2
BITMAP
04
04
04
04
04
FC
04
04
04
04
04
ENDCHAR
STARTCHAR 2527
ENCODING 9511
SWIDTH 990 0
DWIDTH 11 0
BBX 6 11 0 -2
BITMAP
04
04
04
04
04
FC
04
04
04
04
04
ENDCHAR
STARTCHAR 2528
ENCODING 9512
SWIDTH 990 0
DWIDTH 11 0
BBX 6 11 0 -2
BITMAP
04
04
04
04
04
FC
04
04
04
04
04
ENDCHAR
STARTCHAR 2529
ENCODING 9513
SWIDTH 990 0
DWIDTH 11 0
BBX 6 11 0 -2
BITMAP
04
04
04
04
04
FC
04
04
04
04
04
ENDCHAR
STARTCHAR 252A
ENCODING 9514
SWIDTH 990 0
DWIDTH 11 0
BBX 6 11 0 -2
BITMAP
04
04
04
04
04
FC
04
04
04
04
04
ENDCHAR
STARTCHAR 252B
ENCODING 9515
SWIDTH 990 0
DWIDTH 11 0
BBX 6 11 0 -2
BITMAP
04
04
04
04
04
FC
04
04
04
04
04
ENDCHAR
STARTCHAR 252C
ENCODING 9516
SWIDTH 990 0
DWIDTH 11 0
BBX 11 6 0 -2
BITMAP
FFE0
0400
0400
0400
0400
0400
ENDCHAR
STARTCHAR 252D
ENCODING 9517
SWIDTH 990 0
DWIDTH 11 0
BBX 11 6 0 -2
BITMAP
FFE0
0400
0400
0400
0400
0400
ENDCHAR
STARTCHAR 252E
ENCODING 9518
SWIDTH 990 0
DWIDTH 11 0
BBX 11 6 0 -2
BITMAP
FFE0
0400
0400
0400
0400
0400
ENDCHAR
STARTCHAR 252F
ENCODING 9519
SWIDTH 990 0
DWIDTH 11 0
BBX 11 6 0 -2
BITMAP
FFE0
0400
0400
0400
0400
0400
ENDCHAR
STARTCHAR 2530
ENCODING 9520
SWIDTH 990 0
DWIDTH 11 0
BBX 11 6 0 -2
BITMAP
FFE0
0400
0400
0400
0400
0400
ENDCHAR
STARTCHAR 2531
ENCODING 9521
SWIDTH 990 0
DWIDTH 11 0
BBX 11 6 0 -2
BITMAP
FFE0
0400
0400
0400
0400
0400
ENDCHAR
STARTCHAR 2532
ENCODING 9522
SWIDTH 990 0
DWIDTH 11 0
BBX 11 6 0 -2
BITMAP
FFE0
0400
0400
0400
0400
0400
ENDCHAR
STARTCHAR 2533
ENCODING 9523
SWIDTH 990 0
DWIDTH 11 0
BBX 11 6 0 -2
BITMAP
FFE0
0400
0400
0400
0400
0400
ENDCHAR
STARTCHAR 2534
ENCODING 9524
SWIDTH 990 0
DWIDTH 11 0
BBX 11 6 0 3
BITMAP
0400
0400
0400
0400
0400
FFE0
ENDCHAR
STARTCHAR 2535
ENCODING 9525
SWIDTH 990 0
DWIDTH 11 0
BBX 11 6 0 3
BITMAP
0400
0400
0400
0400
0400
FFE0
ENDCHAR
STARTCHAR 2536
ENCODING 9526
SWIDTH 990 0
DWIDTH 11 0
BBX 11 6 0 3
BITMAP
0400
0400
0400
0400
0400
FFE0
ENDCHAR
STARTCHAR 2537
ENCODING 9527
SWIDTH 990 0
DWIDTH 11 0
BBX 11 6 0 3
BITMAP
0400
0400
0400
0400
0400
FFE0
ENDCHAR
STARTCHAR 2538
ENCODING 9528
SWIDTH 990 0
DWIDTH 11 0
BBX 11 6 0 3
BITMAP
0400
0400
0400
0400
0400
FFE0
ENDCHAR
STARTCHAR 2539
ENCODING 9529
SWIDTH 990 0
DWIDTH 11 0
BBX 11 6 0 3
BITMAP
0400
0400
0400
0400
0400
FFE0
ENDCHAR
STARTCHAR 253A
ENCODING 9530
SWIDTH 990 0
DWIDTH 11 0
BBX 11 6 0 3
BITMAP
0400
0400
0400
0400
0400
FFE0
ENDCHAR
STARTCHAR 253B
ENCODING 9531
SWIDTH 990 0
DWIDTH 11 0
BBX 11 6 0 3
BITMAP
0400
0400
0400
0400
0400
FFE0
ENDCHAR
STARTCHAR 253C
ENCODING 9532
SWIDTH 990 0
DWIDTH 11 0
BBX 11 11 0 -2
BITMAP
0400
0400
0400
0400
0400
FFE0
0400
0400
0400
0400
0400
ENDCHAR
STARTCHAR 253D
ENCODING 9533
SWIDTH 990 0
DWIDTH 11 0
BBX 11 11 0 -2
BITMAP
0400
0400
0400
0400
0400
FFE0
0400
0400
0400
0400
0400
ENDCHAR
STARTCHAR 253E
ENCODING 9534
SWIDTH 990 0
DWIDTH 11 0
BBX 11 11 0 -2
BITMAP
0400
0400
0400
0400
0400
FFE0
0400
0400
0400
0400
0400
ENDCHAR
STARTCHAR 253F
ENCODING 9535
SWIDTH 990 0
DWIDTH 11 0
BBX 11 11 0 -2
BITMAP
0400
0400
0400
0400
0400
FFE0
0400
0400
0400
0400
0400
ENDCHAR
STARTCHAR 2540
ENCODING 9536
SWIDTH 990 0
DWIDTH 11 0
BBX 11 11 0 -2
BITMAP
0400
0400
0400
0400
0400
FFE0
0400
0400
0400
0400
0400
ENDCHAR
STARTCHAR 2541
ENCODING 9537
SWIDTH 990 0
DWIDTH 11 0
BBX 11 11 0 -2
BITMAP
0400
0400
0400
0400
0400
FFE0
0400
0400
0400
0400
0400
ENDCHAR
STARTCHAR 2542
ENCODING 9538
SWIDTH 990 0
DWIDTH 11 0
BBX 11 11 0 -2
BITMAP
0400
0400
0400
0400
0400
FFE0
0400
0400
0400
0400
0400
ENDCHAR
STARTCHAR 2543
ENCODING 9539
SWIDTH 990 0
DWIDTH 11 0
BBX 11 11 0 -2
BITMAP
0400
0400
0400
0400
0400
FFE0
0400
0400
0400
0400
0400
ENDCHAR
STARTCHAR 2544
ENCODING 9540
SWIDTH 990 0
DWIDTH 11 0
BBX 11 11 0 -2
BITMAP
0400
0400
0400
0400
0400
FFE0
0400
0400
0400
0400
0400
ENDCHAR
STARTCHAR 2545
ENCODING 9541
SWIDTH 990 0
DWIDTH 11 0
BBX 11 11 0 -2
BITMAP
0400
0400
0400
0400
0400
FFE0
0400
0400
0400
0400
0400
ENDCHAR
STARTCHAR 2546
ENCODING 9542
SWIDTH 990 0
DWIDTH 11 0
BBX 11 11 0 -2
BITMAP
0400
0400
0400
0400
0400
FFE0
0400
0400
0400
0400
0400
ENDCHAR
STARTCHAR 2547
ENCODING 9543
SWIDTH 990 0
DWIDTH 11 0
BBX 11 11 0 -2
BITMAP
0400
0400
0400
0400
0400
FFE0
0400
0400
0400
0400
0400
ENDCHAR
STARTCHAR 2548
ENCODING 9544
SWIDTH 990 0
DWIDTH 11 0
BBX 11 11 0 -2
BITMAP
0400
0400
0400
0400
0400
FFE0
0400
0400
0400
0400
0400
ENDCHAR
STARTCHAR 2549
ENCODING 9545
SWIDTH 990 0
DWIDTH 11 0
BBX 11 11 0 -2
BITMAP
0400
0400
0400
0400
0400
FFE0
0400
0400
0400
0400
0400
ENDCHAR
STARTCHAR 254A
ENCODING 9546
SWIDTH 990 0
DWIDTH 11 0
BBX 11 11 0 -2
BITMAP
0400
0400
0400
0400
0400
FFE0
0400
0400
0400
0400
0400
ENDCHAR
STARTCHAR 254B
ENCODING 9547
SWIDTH 990 0
DWIDTH 11 0
BBX 11 11 0 -2
BITMAP
0400
0400
0400
0400
0400
FFE0
0400
0400
0400
0400
0400
ENDCHAR
STARTCHAR 254C
ENCODING 9548
SWIDTH 990 0
DWIDTH 11 0
BBX 11 1 0 3
BITMAP
FBE0
ENDCHAR
STARTCHAR 254D
ENCODING 9549
SWIDTH 990 0
DWIDTH 11 0
BBX 11 1 0 3
BITMAP
FBE0
ENDCHAR
STARTCHAR 254E
ENCODING 9550
SWIDTH 990 0
DWIDTH 11 0
BBX 1 10 5 -2
BITMAP
80
80
80
80
00
80
80
80
80
80
ENDCHAR
STARTCHAR 254F
ENCODING 9551
SWIDTH 990 0
DWIDTH 11 0
BBX 1 10 5 -2
BITMAP
80
80
80
80
00
80
80
80
80
80
ENDCHAR
STARTCHAR 2550
ENCODING 9552
SWIDTH 990 0
DWIDTH 11 0
BBX 11 3 0 2
BITMAP
FFE0
0000
FFE0
ENDCHAR
STARTCHAR 2551
ENCODING 9553
SWIDTH 990 0
DWIDTH 11 0
BBX 3 11 4 -2
BITMAP
A0
A0
A0
A0
A0
A0
A0
A0
A0
A0
A0
ENDCHAR
STARTCHAR 2552
ENCODING 9554
SWIDTH 990 0
DWIDTH 11 0
BBX 6 7 5 -2
BITMAP
FC
80
FC
80
80
80
80
ENDCHAR
STARTCHAR 2553
ENCODING 9555
SWIDTH 990 0
DWIDTH 11 0
BBX 7 6 4 -2
BITMAP
FE
A0
A0
A0
A0
A0
ENDCHAR
STARTCHAR 2554
ENCODING 9556
SWIDTH 990 0
DWIDTH 11 0
BBX 7 7 4 -2
BITMAP
FE
80
BE
A0
A0
A0
A0
ENDCHAR
STARTCHAR 2555
ENCODING 9557
SWIDTH 990 0
DWIDTH 11 0
BBX 6 7 0 -2
BITMAP
FC
04
FC
04
04
04
04
ENDCHAR
STARTCHAR 2556
ENCODING 9558
SWIDTH 990 0
DWIDTH 11 0
BBX 7 6 0 -2
BITMAP
FE
0A
0A
0A
0A
0A
ENDCHAR
STARTCHAR 2557
ENCODING 9559
SWIDTH 990 0
DWIDTH 11 0
BBX 7 7 0 -2
BITMAP
FE
02
FA
0A
0A
0A
0A
ENDCHAR
STARTCHAR 2558
ENCODING 9560
SWIDTH 990 0
DWIDTH 11 0
BBX 7 7 4 2
BITMAP
80
80
80
80
FE
80
FE
ENDCHAR
STARTCHAR 2559
ENCODING 9561
SWIDTH 990 0
DWIDTH 11 0
BBX 7 6 4 3
BITMAP
A0
A0
A0
A0
A0
FE
ENDCHAR
STARTCHAR 255A
ENCODING 9562
SWIDTH 990 0
DWIDTH 11 0
BBX 7 7 4 2
BITMAP
A0
A0
A0
A0
BE
80
FE
ENDCHAR
STARTCHAR 255B
ENCODING 9563
SWIDTH 990 0
DWIDTH 11 0
BBX 6 7 0 2
BITMAP
04
04
04
04
FC
04
FC
ENDCHAR
STARTCHAR 255C
ENCODING 9564
SWIDTH 990 0
DWIDTH 11 0
BBX 7 6 0 3
BITMAP
0A
0A
0A
0A
0A
FE
ENDCHAR
STARTCHAR 255D
ENCODING 9565
SWIDTH 990 0
DWIDTH 11 0
BBX 7 7 0 2
BITMAP
0A
0A
0A
0A
FA
02
FE
ENDCHAR
STARTCHAR 255E
ENCODING 9566
SWIDTH 990 0
DWIDTH 11 0
BBX 6 11 5 -2
BITMAP
80
80
80
80
FC
80
FC
80
80
80
80
ENDCHAR
STARTCHAR 255F
ENCODING 9567
SWIDTH 990 0
DWIDTH 11 0
BBX 7 11 4 -2
BITMAP
A0
A0
A0
A0
A0
BE
A0
A0
A0
A0
A0
ENDCHAR
STARTCHAR 2560
ENCODING 9568
SWIDTH 990 0
DWIDTH 11 0
BBX 7 11 4 -2
BITMAP
A0
A0
A0
A0
BE
80
BE
A0
A0
A0
A0
ENDCHAR
STARTCHAR 2561
ENCODING 9569
SWIDTH 990 0
DWIDTH 11 0
BBX 6 11 0 -2
BITMAP
04
04
04
04
FC
04
FC
04
04
04
04
ENDCHAR
STARTCHAR 2562
ENCODING 9570
SWIDTH 990 0
DWIDTH 11 0
BBX 7 11 0 -2
BITMAP
0A
0A
0A
0A
0A
FA
0A
0A
0A
0A
0A
ENDCHAR
STARTCHAR 2563
ENCODING 9571
SWIDTH 990 0
DWIDTH 11 0
BBX 7 11 0 -2
BITMAP
0A
0A
0A
0A
FA
02
FA
0A
0A
0A
0A
ENDCHAR
STARTCHAR 2564
ENCODING 9572
SWIDTH 990 0
DWIDTH 11 0
BBX 11 7 0 -2
BITMAP
FFE0
0000
FFE0
0400
0400
0400
0400
ENDCHAR
STARTCHAR 2565
ENCODING 9573
SWIDTH 990 0
DWIDTH 11 0
BBX 11 6 0 -2
BITMAP
FFE0
0A00
0A00
0A00
0A00
0A00
ENDCHAR
STARTCHAR 2566
ENCODING 9574
SWIDTH 990 0
DWIDTH 11 0
BBX 11 7 0 -2
BITMAP
FFE0
0000
FBE0
0A00
0A00
0A00
0A00
ENDCHAR
STARTCHAR 2567
ENCODING 9575
SWIDTH 990 0
DWIDTH 11 0
BBX 11 7 0 2
BITMAP
0400
0400
0400
0400
FFE0
0000
FFE0
ENDCHAR
STARTCHAR 2568
ENCODING 9576
SWIDTH 990 0
DWIDTH 11 0
BBX 11 6 0 3
BITMAP
0A00
0A00
0A00
0A00
0A00
FFE0
ENDCHAR
STARTCHAR 2569
ENCODING 9577
SWIDTH 990 0
DWIDTH 11 0
BBX 11 7 0 2
BITMAP
0A00
0A00
0A00
0A00
FBE0
0000
FFE0
ENDCHAR
STARTCHAR 256A
ENCODING 9578
SWIDTH 990 0
DWIDTH 11 0
BBX 11 11 0 -2
BITMAP
0400
0400
0400
0400
FFE0
0400
FFE0
0400
0400
0400
0400
ENDCHAR
STARTCHAR 256B
ENCODING 9579
SWIDTH 990 0
DWIDTH 11 0
BBX 11 11 0 -2
BITMAP
0A00
0A00
0A00
0A00
0A00
FFE0
0A00
0A00
0A00
0A00
0A00
ENDCHAR
STARTCHAR 256C
ENCODING 9580
SWIDTH 990 0
DWIDTH 11 0
BBX 11 11 0 -2
BITMAP
0A00
0A00
0A00
0A00
FBE0
0000
FBE0
0A00
0A00
0A00
0A00
ENDCHAR
STARTCHAR 256D
ENCODING 9581
SWIDTH 990 0
DWIDTH 11 0
BBX 6 6 5 -2
BITMAP
0C
30
40
40
80
80
ENDCHAR
STARTCHAR 256E
ENCODING 9582
SWIDTH 990 0
DWIDTH 11 0
BBX 6 6 0 -2
BITMAP
C0
30
08
08
04
04
ENDCHAR
STARTCHAR 256F
ENCODING 9583
SWIDTH 990 0
DWIDTH 11 0
BBX 6 6 0 3
BITMAP
04
04
08
08
30
C0
ENDCHAR
STARTCHAR 2570
ENCODING 9584
SWIDTH 990 0
DWIDTH 11 0
BBX 6 6 5 3
BITMAP
80
80
40
40
30
0C
ENDCHAR
STARTCHAR 2571
ENCODING 9585
SWIDTH 990 0
DWIDTH 11 0
BBX 11 12 0 -3
BITMAP
0020
0040
0080
0100
0300
0600
0C00
1800
1000
2000
4000
8000
ENDCHAR
STARTCHAR 2572
ENCODING 9586
SWIDTH 990 0
DWIDTH 11 0
BBX 11 12 0 -3
BITMAP
8000
4000
2000
1000
1800
0C00
0600
0300
0100
0080
0040
0020
ENDCHAR
STARTCHAR 2573
ENCODING 9587
SWIDTH 990 0
DWIDTH 11 0
BBX 11 11 0 -2
BITMAP
8020
4040
2080
1100
0A00
0400
0A00
1100
2080
4040
8020
ENDCHAR
STARTCHAR 2574
ENCODING 9588
SWIDTH 990 0
DWIDTH 11 0
BBX 6 1 0 3
BITMAP
FC
ENDCHAR
STARTCHAR 2575
ENCODING 9589
SWIDTH 990 0
DWIDTH 11 0
BBX 1 6 5 3
BITMAP
80
80
80
80
80
80
ENDCHAR
STARTCHAR 2576
ENCODING 9590
SWIDTH 990 0
DWIDTH 11 0
BBX 6 1 5 3
BITMAP
FC
ENDCHAR
STARTCHAR 2577
ENCODING 9591
SWIDTH 990 0
DWIDTH 11 0
BBX 1 6 5 -3
BITMAP
80
80
80
80
80
80
ENDCHAR
STARTCHAR 2578
ENCODING 9592
SWIDTH 990 0
DWIDTH 11 0
BBX 6 1 0 3
BITMAP
FC
ENDCHAR
STARTCHAR 2579
ENCODING 9593
SWIDTH 990 0
DWIDTH 11 0
BBX 1 6 5 3
BITMAP
80
80
80
80
80
80
ENDCHAR
STARTCHAR 257A
ENCODING 9594
SWIDTH 990 0
DWIDTH 11 0
BBX 6 1 5 3
BITMAP
FC
ENDCHAR
STARTCHAR 257B
ENCODING 9595
SWIDTH 990 0
DWIDTH 11 0
BBX 1 6 5 -2
BITMAP
80
80
80
80
80
80
ENDCHAR
STARTCHAR 257C
ENCODING 9596
SWIDTH 990 0
DWIDTH 11 0
BBX 11 1 0 3
BITMAP
FFE0
ENDCHAR
STARTCHAR 257D
ENCODING 9597
SWIDTH 990 0
DWIDTH 11 0
BBX 1 11 5 -2
BITMAP
80
80
80
80
80
80
80
80
80
80
80
ENDCHAR
STARTCHAR 257E
ENCODING 9598
SWIDTH 990 0
DWIDTH 11 0
BBX 11 1 0 3
BITMAP
FFE0
ENDCHAR
STARTCHAR 257F
ENCODING 9599
SWIDTH 990 0
DWIDTH 11 0
BBX 1 11 5 -2
BITMAP
80
80
80
80
80
80
80
80
80
80
80
ENDCHAR
STARTCHAR 2580
ENCODING 9600
SWIDTH 990 0
DWIDTH 11 0
BBX 11 6 0 3
BITMAP
FFE0
FFE0
FFE0
FFE0
FFE0
FFE0
ENDCHAR
STARTCHAR 2582
ENCODING 9602
SWIDTH 990 0
DWIDTH 11 0
BBX 11 2 0 -2
BITMAP
FFE0
FFE0
ENDCHAR
STARTCHAR 2583
ENCODING 9603
SWIDTH 990 0
DWIDTH 11 0
BBX 11 4 0 -2
BITMAP
FFE0
FFE0
FFE0
FFE0
ENDCHAR
STARTCHAR 2584
ENCODING 9604
SWIDTH 990 0
DWIDTH 11 0
BBX 11 6 0 -2
BITMAP
FFE0
FFE0
FFE0
FFE0
FFE0
FFE0
ENDCHAR
STARTCHAR 2585
ENCODING 9605
SWIDTH 990 0
DWIDTH 11 0
BBX 11 7 0 -2
BITMAP
FFE0
FFE0
FFE0
FFE0
FFE0
FFE0
FFE0
ENDCHAR
STARTCHAR 2586
ENCODING 9606
SWIDTH 990 0
DWIDTH 11 0
BBX 11 8 0 -2
BITMAP
FFE0
FFE0
FFE0
FFE0
FFE0
FFE0
FFE0
FFE0
ENDCHAR
STARTCHAR 2587
ENCODING 9607
SWIDTH 990 0
DWIDTH 11 0
BBX 11 10 0 -2
BITMAP
FFE0
FFE0
FFE0
FFE0
FFE0
FFE0
FFE0
FFE0
FFE0
FFE0
ENDCHAR
STARTCHAR 2588
ENCODING 9608
SWIDTH 990 0
DWIDTH 11 0
BBX 11 11 0 -2
BITMAP
FFE0
FFE0
FFE0
FFE0
FFE0
FFE0
FFE0
FFE0
FFE0
FFE0
FFE0
ENDCHAR
STARTCHAR 2589
ENCODING 9609
SWIDTH 990 0
DWIDTH 11 0
BBX 10 11 0 -2
BITMAP
FFC0
FFC0
FFC0
FFC0
FFC0
FFC0
FFC0
FFC0
FFC0
FFC0
FFC0
ENDCHAR
STARTCHAR 258A
ENCODING 9610
SWIDTH 990 0
DWIDTH 11 0
BBX 8 11 0 -2
BITMAP
FF
FF
FF
FF
FF
FF
FF
FF
FF
FF
FF
ENDCHAR
STARTCHAR 258B
ENCODING 9611
SWIDTH 990 0
DWIDTH 11 0
BBX 7 11 0 -2
BITMAP
FE
FE
FE
FE
FE
FE
FE
FE
FE
FE
FE
ENDCHAR
STARTCHAR 258C
ENCODING 9612
SWIDTH 990 0
DWIDTH 11 0
BBX 6 11 0 -2
BITMAP
FC
FC
FC
FC
FC
FC
FC
FC
FC
FC
FC
ENDCHAR
STARTCHAR 258D
ENCODING 9613
SWIDTH 990 0
DWIDTH 11 0
BBX 4 11 0 -2
BITMAP
F0
F0
F0
F0
F0
F0
F0
F0
F0
F0
F0
ENDCHAR
STARTCHAR 258E
ENCODING 9614
SWIDTH 990 0
DWIDTH 11 0
BBX 3 11 0 -2
BITMAP
E0
E0
E0
E0
E0
E0
E0
E0
E0
E0
E0
ENDCHAR
STARTCHAR 258F
ENCODING 9615
SWIDTH 990 0
DWIDTH 11 0
BBX 1 11 0 -2
BITMAP
80
80
80
80
80
80
80
80
80
80
80
ENDCHAR
STARTCHAR 2590
ENCODING 9616
SWIDTH 990 0
DWIDTH 11 0
BBX 6 11 5 -2
BITMAP
FC
FC
FC
FC
FC
FC
FC
FC
FC
FC
FC
ENDCHAR
STARTCHAR 2591
ENCODING 9617
SWIDTH 990 0
DWIDTH 11 0
BBX 6 10 0 -2
BITMAP
FC
FC
FC
FC
FC
FC
FC
FC
FC
FC
ENDCHAR
STARTCHAR 2592
ENCODING 9618
SWIDTH 990 0
DWIDTH 11 0
BBX 11 11 0 -2
BITMAP
FC00
FC00
07E0
07E0
07E0
07E0
07E0
07E0
FC00
FC00
FC00
ENDCHAR
STARTCHAR 2593
ENCODING 9619
SWIDTH 990 0
DWIDTH 11 0
BBX 11 10 0 -2
BITMAP
FFE0
FFE0
FFE0
FFE0
FFE0
FFE0
FFE0
FFE0
FFE0
FFE0
ENDCHAR
STARTCHAR 2594
ENCODING 9620
SWIDTH 990 0
DWIDTH 11 0
BBX 11 1 0 8
BITMAP
FFE0
ENDCHAR
STARTCHAR 2595
ENCODING 9621
SWIDTH 990 0
DWIDTH 11 0
BBX 1 11 10 -2
BITMAP
80
80
80
80
80
80
80
80
80
80
80
ENDCHAR
STARTCHAR 25A0
ENCODING 9632
SWIDTH 810 0
DWIDTH 9 0
BBX 7 6 1 0
BITMAP
FE
FE
FE
FE
FE
FE
ENDCHAR
STARTCHAR 25A1
ENCODING 9633
SWIDTH 810 0
DWIDTH 9 0
BBX 7 6 1 0
BITMAP
FE
82
82
82
82
FE
ENDCHAR
STARTCHAR 25A2
ENCODING 9634
SWIDTH 810 0
DWIDTH 9 0
BBX 7 6 1 0
BITMAP
7C
82
82
82
82
7C
ENDCHAR
STARTCHAR 25A3
ENCODING 9635
SWIDTH 810 0
DWIDTH 9 0
BBX 7 6 1 0
BITMAP
FE
82
BA
BA
82
FE
ENDCHAR
STARTCHAR 25A4
ENCODING 9636
SWIDTH 810 0
DWIDTH 9 0
BBX 7 6 1 0
BITMAP
FE
FE
82
FE
FE
FE
ENDCHAR
STARTCHAR 25A5
ENCODING 9637
SWIDTH 810 0
DWIDTH 9 0
BBX 7 6 1 0
BITMAP
FE
DA
DA
DA
DA
FE
ENDCHAR
STARTCHAR 25A6
ENCODING 9638
SWIDTH 810 0
DWIDTH 9 0
BBX 7 6 1 0
BITMAP
FE
FE
DA
FE
FE
FE
ENDCHAR
STARTCHAR 25A7
ENCODING 9639
SWIDTH 810 0
DWIDTH 9 0
BBX 7 6 1 0
BITMAP
FE
D6
AA
D6
FE
FE
ENDCHAR
STARTCHAR 25A8
ENCODING 9640
SWIDTH 810 0
DWIDTH 9 0
BBX 7 6 1 0
BITMAP
FE
D6
FA
AE
D6
FE
ENDCHAR
STARTCHAR 25A9
ENCODING 9641
SWIDTH 810 0
DWIDTH 9 0
BBX 7 7 1 0
BITMAP
FE
D6
AA
D6
AA
D6
FE
ENDCHAR
STARTCHAR 25AA
ENCODING 9642
SWIDTH 540 0
DWIDTH 6 0
BBX 3 3 1 2
BITMAP
E0
E0
E0
ENDCHAR
STARTCHAR 25AB
ENCODING 9643
SWIDTH 540 0
DWIDTH 6 0
BBX 3 3 1 2
BITMAP
E0
A0
E0
ENDCHAR
STARTCHAR 25AC
ENCODING 9644
SWIDTH 810 0
DWIDTH 9 0
BBX 7 3 1 2
BITMAP
FE
FE
FE
ENDCHAR
STARTCHAR 25AD
ENCODING 9645
SWIDTH 810 0
DWIDTH 9 0
BBX 7 3 1 2
BITMAP
FE
82
FE
ENDCHAR
STARTCHAR 25AE
ENCODING 9646
SWIDTH 540 0
DWIDTH 6 0
BBX 3 6 1 0
BITMAP
E0
E0
E0
E0
E0
E0
ENDCHAR
STARTCHAR 25AF
ENCODING 9647
SWIDTH 540 0
DWIDTH 6 0
BBX 3 7 1 0
BITMAP
E0
A0
A0
A0
A0
A0
E0
ENDCHAR
STARTCHAR 25B0
ENCODING 9648
SWIDTH 810 0
DWIDTH 9 0
BBX 6 3 1 2
BITMAP
3C
7C
F8
ENDCHAR
STARTCHAR 25B1
ENCODING 9649
SWIDTH 810 0
DWIDTH 9 0
BBX 6 4 1 1
BITMAP
3C
44
84
F8
ENDCHAR
STARTCHAR 25B2
ENCODING 9650
SWIDTH 810 0
DWIDTH 9 0
BBX 6 6 1 0
BITMAP
10
10
38
38
7C
FC
ENDCHAR
STARTCHAR 25B3
ENCODING 9651
SWIDTH 810 0
DWIDTH 9 0
BBX 6 6 1 0
BITMAP
10
30
28
48
84
FC
ENDCHAR
STARTCHAR 25B4
ENCODING 9652
SWIDTH 540 0
DWIDTH 6 0
BBX 4 3 1 2
BITMAP
40
60
F0
ENDCHAR
STARTCHAR 25B5
ENCODING 9653
SWIDTH 540 0
DWIDTH 6 0
BBX 4 3 1 2
BITMAP
40
60
F0
ENDCHAR
STARTCHAR 25B6
ENCODING 9654
SWIDTH 810 0
DWIDTH 9 0
BBX 6 6 1 0
BITMAP
80
E0
F8
FC
E0
80
ENDCHAR
STARTCHAR 25B7
ENCODING 9655
SWIDTH 810 0
DWIDTH 9 0
BBX 6 6 1 0
BITMAP
80
E0
98
8C
B0
C0
ENDCHAR
STARTCHAR 25B8
ENCODING 9656
SWIDTH 540 0
DWIDTH 6 0
BBX 3 4 1 1
BITMAP
80
E0
E0
80
ENDCHAR
STARTCHAR 25B9
ENCODING 9657
SWIDTH 540 0
DWIDTH 6 0
BBX 3 4 1 1
BITMAP
80
E0
A0
C0
ENDCHAR
STARTCHAR 25BA
ENCODING 9658
SWIDTH 900 0
DWIDTH 10 0
BBX 7 4 1 1
BITMAP
C0
FC
FE
C0
ENDCHAR
STARTCHAR 25BB
ENCODING 9659
SWIDTH 900 0
DWIDTH 10 0
BBX 7 4 1 1
BITMAP
C0
BC
9E
E0
ENDCHAR
STARTCHAR 25BC
ENCODING 9660
SWIDTH 810 0
DWIDTH 9 0
BBX 6 6 1 0
BITMAP
FC
7C
38
38
10
10
ENDCHAR
STARTCHAR 25BD
ENCODING 9661
SWIDTH 810 0
DWIDTH 9 0
BBX 6 6 1 0
BITMAP
FC
84
48
28
30
10
ENDCHAR
STARTCHAR 25BE
ENCODING 9662
SWIDTH 540 0
DWIDTH 6 0
BBX 4 3 1 2
BITMAP
F0
60
40
ENDCHAR
STARTCHAR 25BF
ENCODING 9663
SWIDTH 540 0
DWIDTH 6 0
BBX 4 3 1 2
BITMAP
F0
60
40
ENDCHAR
STARTCHAR 25C0
ENCODING 9664
SWIDTH 810 0
DWIDTH 9 0
BBX 6 6 2 0
BITMAP
0C
3C
FC
FC
3C
0C
ENDCHAR
STARTCHAR 25C1
ENCODING 9665
SWIDTH 810 0
DWIDTH 9 0
BBX 6 6 2 0
BITMAP
0C
34
C4
84
74
0C
ENDCHAR
STARTCHAR 25C2
ENCODING 9666
SWIDTH 540 0
DWIDTH 6 0
BBX 3 4 2 1
BITMAP
20
E0
E0
20
ENDCHAR
STARTCHAR 25C3
ENCODING 9667
SWIDTH 540 0
DWIDTH 6 0
BBX 3 4 2 1
BITMAP
20
E0
A0
60
ENDCHAR
STARTCHAR 25C4
ENCODING 9668
SWIDTH 900 0
DWIDTH 10 0
BBX 7 4 2 1
BITMAP
06
7E
FE
06
ENDCHAR
STARTCHAR 25C5
ENCODING 9669
SWIDTH 900 0
DWIDTH 10 0
BBX 7 4 2 1
BITMAP
06
7A
E2
1E
ENDCHAR
STARTCHAR 25C6
ENCODING 9670
SWIDTH 810 0
DWIDTH 9 0
BBX 5 6 2 0
BITMAP
20
70
F8
F8
70
20
ENDCHAR
STARTCHAR 25C7
ENCODING 9671
SWIDTH 810 0
DWIDTH 9 0
BBX 7 7 1 0
BITMAP
10
28
44
82
44
28
10
ENDCHAR
STARTCHAR 25C8
ENCODING 9672
SWIDTH 810 0
DWIDTH 9 0
BBX 7 7 1 0
BITMAP
10
28
44
BA
44
28
10
ENDCHAR
STARTCHAR 25C9
ENCODING 9673
SWIDTH 810 0
DWIDTH 9 0
BBX 7 6 1 0
BITMAP
38
44
BA
BA
44
38
ENDCHAR
STARTCHAR 25CA
ENCODING 9674
SWIDTH 720 0
DWIDTH 8 0
BBX 6 9 1 0
BITMAP
20
30
48
48
84
48
48
30
20
ENDCHAR
STARTCHAR 25CB
ENCODING 9675
SWIDTH 810 0
DWIDTH 9 0
BBX 7 6 1 0
BITMAP
38
44
82
82
44
38
ENDCHAR
STARTCHAR 25CC
ENCODING 9676
SWIDTH 810 0
DWIDTH 9 0
BBX 7 6 1 0
BITMAP
38
44
80
82
80
28
ENDCHAR
STARTCHAR 25CD
ENCODING 9677
SWIDTH 810 0
DWIDTH 9 0
BBX 7 6 1 0
BITMAP
38
54
DA
DA
54
38
ENDCHAR
STARTCHAR 25CE
ENCODING 9678
SWIDTH 810 0
DWIDTH 9 0
BBX 7 6 1 0
BITMAP
38
44
BA
BA
44
38
ENDCHAR
STARTCHAR 25CF
ENCODING 9679
SWIDTH 810 0
DWIDTH 9 0
BBX 7 6 1 0
BITMAP
38
7C
FE
FE
7C
38
ENDCHAR
STARTCHAR 25D0
ENCODING 9680
SWIDTH 810 0
DWIDTH 9 0
BBX 7 6 1 0
BITMAP
38
64
E2
E2
64
38
ENDCHAR
STARTCHAR 25D1
ENCODING 9681
SWIDTH 810 0
DWIDTH 9 0
BBX 7 6 1 0
BITMAP
38
5C
9E
9E
5C
38
ENDCHAR
STARTCHAR 25D2
ENCODING 9682
SWIDTH 810 0
DWIDTH 9 0
BBX 7 6 1 0
BITMAP
38
44
82
FE
7C
38
ENDCHAR
STARTCHAR 25D3
ENCODING 9683
SWIDTH 810 0
DWIDTH 9 0
BBX 7 6 1 0
BITMAP
38
7C
FE
82
44
38
ENDCHAR
STARTCHAR 25D4
ENCODING 9684
SWIDTH 810 0
DWIDTH 9 0
BBX 7 6 1 0
BITMAP
38
5C
9E
82
44
38
ENDCHAR
STARTCHAR 25D5
ENCODING 9685
SWIDTH 810 0
DWIDTH 9 0
BBX 7 6 1 0
BITMAP
38
5C
9E
FE
7C
38
ENDCHAR
STARTCHAR 25D6
ENCODING 9686
SWIDTH 540 0
DWIDTH 6 0
BBX 3 6 1 0
BITMAP
20
60
E0
E0
60
20
ENDCHAR
STARTCHAR 25D7
ENCODING 9687
SWIDTH 540 0
DWIDTH 6 0
BBX 3 6 1 0
BITMAP
C0
E0
E0
E0
E0
C0
ENDCHAR
STARTCHAR 25D8
ENCODING 9688
SWIDTH 990 0
DWIDTH 11 0
BBX 11 11 0 -2
BITMAP
FFE0
FFE0
FFE0
FFE0
F1E0
F1E0
F1E0
FFE0
FFE0
FFE0
FFE0
ENDCHAR
STARTCHAR 25D9
ENCODING 9689
SWIDTH 990 0
DWIDTH 11 0
BBX 11 11 0 -2
BITMAP
FFE0
F1E0
CE60
DF60
BFA0
BFA0
BFA0
DF60
CE60
F1E0
FFE0
ENDCHAR
STARTCHAR 25DA
ENCODING 9690
SWIDTH 990 0
DWIDTH 11 0
BBX 11 6 0 3
BITMAP
FFE0
F1E0
EEE0
DF60
FFE0
BFA0
ENDCHAR
STARTCHAR 25DB
ENCODING 9691
SWIDTH 990 0
DWIDTH 11 0
BBX 11 5 0 -2
BITMAP
BFA0
FFE0
CE60
E0E0
FFE0
ENDCHAR
STARTCHAR 25DC
ENCODING 9692
SWIDTH 630 0
DWIDTH 7 0
BBX 4 4 1 3
BITMAP
30
40
80
80
ENDCHAR
STARTCHAR 25DD
ENCODING 9693
SWIDTH 630 0
DWIDTH 7 0
BBX 4 4 1 3
BITMAP
C0
20
10
10
ENDCHAR
STARTCHAR 25DE
ENCODING 9694
SWIDTH 630 0
DWIDTH 7 0
BBX 4 4 1 -1
BITMAP
10
10
20
C0
ENDCHAR
STARTCHAR 25DF
ENCODING 9695
SWIDTH 630 0
DWIDTH 7 0
BBX 4 4 1 -1
BITMAP
80
80
40
30
ENDCHAR
STARTCHAR 25E0
ENCODING 9696
SWIDTH 990 0
DWIDTH 11 0
BBX 9 4 1 3
BITMAP
3E00
6300
8100
8080
ENDCHAR
STARTCHAR 25E1
ENCODING 9697
SWIDTH 990 0
DWIDTH 11 0
BBX 9 4 1 -1
BITMAP
8080
8100
6300
3E00
ENDCHAR
STARTCHAR 25E2
ENCODING 9698
SWIDTH 810 0
DWIDTH 9 0
BBX 6 6 2 0
BITMAP
04
0C
1C
3C
7C
FC
ENDCHAR
STARTCHAR 25E3
ENCODING 9699
SWIDTH 810 0
DWIDTH 9 0
BBX 6 6 1 0
BITMAP
80
C0
E0
F0
F8
FC
ENDCHAR
STARTCHAR 25E4
ENCODING 9700
SWIDTH 810 0
DWIDTH 9 0
BBX 6 6 1 0
BITMAP
FC
F8
F0
E0
C0
80
ENDCHAR
STARTCHAR 25E5
ENCODING 9701
SWIDTH 810 0
DWIDTH 9 0
BBX 6 6 2 0
BITMAP
FC
7C
3C
1C
0C
04
ENDCHAR
STARTCHAR 25E6
ENCODING 9702
SWIDTH 540 0
DWIDTH 6 0
BBX 4 4 1 1
BITMAP
60
90
90
60
ENDCHAR
STARTCHAR 25E7
ENCODING 9703
SWIDTH 810 0
DWIDTH 9 0
BBX 7 6 1 0
BITMAP
FE
E2
E2
E2
E2
FE
ENDCHAR
STARTCHAR 25E8
ENCODING 9704
SWIDTH 810 0
DWIDTH 9 0
BBX 7 6 1 0
BITMAP
FE
9E
9E
9E
9E
FE
ENDCHAR
STARTCHAR 25E9
ENCODING 9705
SWIDTH 810 0
DWIDTH 9 0
BBX 7 6 1 0
BITMAP
FE
FA
F2
E2
82
FE
ENDCHAR
STARTCHAR 25EA
ENCODING 9706
SWIDTH 810 0
DWIDTH 9 0
BBX 7 6 1 0
BITMAP
FE
86
8E
9E
FE
FE
ENDCHAR
STARTCHAR 25EB
ENCODING 9707
SWIDTH 810 0
DWIDTH 9 0
BBX 7 6 1 0
BITMAP
FE
92
92
92
92
FE
ENDCHAR
STARTCHAR 25EC
ENCODING 9708
SWIDTH 810 0
DWIDTH 9 0
BBX 6 6 1 0
BITMAP
10
30
28
58
84
FC
ENDCHAR
STARTCHAR 25ED
ENCODING 9709
SWIDTH 810 0
DWIDTH 9 0
BBX 6 6 1 0
BITMAP
10
30
28
28
64
FC
ENDCHAR
STARTCHAR 25EE
ENCODING 9710
SWIDTH 810 0
DWIDTH 9 0
BBX 6 6 1 0
BITMAP
10
10
38
58
9C
FC
ENDCHAR
STARTCHAR 263A
ENCODING 9786
SWIDTH 810 0
DWIDTH 9 0
BBX 9 8 0 0
BITMAP
1E00
6100
5680
8080
A280
5C80
6100
1E00
ENDCHAR
STARTCHAR 263B
ENCODING 9787
SWIDTH 810 0
DWIDTH 9 0
BBX 9 8 0 0
BITMAP
1E00
7F00
6980
FF80
DF80
5D80
6300
1E00
ENDCHAR
STARTCHAR 263C
ENCODING 9788
SWIDTH 720 0
DWIDTH 8 0
BBX 8 7 0 0
BITMAP
08
7E
22
C3
22
7E
08
ENDCHAR
STARTCHAR 2640
ENCODING 9792
SWIDTH 810 0
DWIDTH 9 0
BBX 7 11 1 -2
BITMAP
38
44
82
82
82
82
44
38
10
7C
10
ENDCHAR
STARTCHAR 2642
ENCODING 9794
SWIDTH 810 0
DWIDTH 9 0
BBX 9 9 0 0
BITMAP
0380
0180
3E80
4680
8200
8200
8200
4600
3C00
ENDCHAR
STARTCHAR 2660
ENCODING 9824
SWIDTH 810 0
DWIDTH 9 0
BBX 8 8 1 0
BITMAP
10
38
7C
FE
FF
F6
10
10
ENDCHAR
STARTCHAR 2663
ENCODING 9827
SWIDTH 810 0
DWIDTH 9 0
BBX 8 8 1 0
BITMAP
38
38
38
FE
FF
F6
10
10
ENDCHAR
STARTCHAR 2665
ENCODING 9829
SWIDTH 810 0
DWIDTH 9 0
BBX 8 8 1 0
BITMAP
EE
FE
FF
FE
FE
7C
38
10
ENDCHAR
STARTCHAR 2666
ENCODING 9830
SWIDTH 810 0
DWIDTH 9 0
BBX 8 8 1 0
BITMAP
10
18
38
7C
FF
7C
38
10
ENDCHAR
STARTCHAR 266A
ENCODING 9834
SWIDTH 630 0
DWIDTH 7 0
BBX 5 8 1 0
BITMAP
40
20
50
48
48
40
C0
C0
ENDCHAR
STARTCHAR 266B
ENCODING 9835
SWIDTH 630 0
DWIDTH 7 0
BBX 6 10 0 -2
BITMAP
04
1C
34
24
24
24
2C
2C
60
C0
ENDCHAR
STARTCHAR 266D
ENCODING 9837
SWIDTH 630 0
DWIDTH 7 0
BBX 3 7 2 1
BITMAP
80
80
80
E0
A0
A0
C0
ENDCHAR
STARTCHAR 266E
ENCODING 9838
SWIDTH 630 0
DWIDTH 7 0
BBX 3 10 2 -2
BITMAP
80
80
A0
E0
A0
A0
E0
A0
20
20
ENDCHAR
STARTCHAR 266F
ENCODING 9839
SWIDTH 630 0
DWIDTH 7 0
BBX 5 10 1 -2
BITMAP
10
58
70
70
D0
58
70
70
D0
40
ENDCHAR
STARTCHAR FB01
ENCODING 64257
SWIDTH 630 0
DWIDTH 7 0
BBX 6 8 0 0
BITMAP
34
40
FC
44
44
44
44
44
ENDCHAR
STARTCHAR FB02
ENCODING 64258
SWIDTH 630 0
DWIDTH 7 0
BBX 6 8 0 0
BITMAP
3C
44
F4
44
44
44
44
44
ENDCHAR
STARTCHAR FB1E
ENCODING 64286
SWIDTH 0 0
DWIDTH 0 0
BBX 4 2 2 7
BITMAP
90
60
ENDCHAR
STARTCHAR FEFF
ENCODING 65279
SWIDTH 0 0
DWIDTH 0 0
BBX 0 0 0 0
BITMAP
ENDCHAR
ENDFONT
